<svg xmlns="http://www.w3.org/2000/svg" width="658.439" height="323.176" viewBox="0 0 658.439 323.176">
  <g id="Grupo_1074196" data-name="Grupo 1074196" transform="translate(9814.439 3232)">
    <rect id="Rectángulo_5549" data-name="Rectángulo 5549" width="3" height="309" transform="translate(-9645 -3232)" fill="#ffa726"/>
    <rect id="Rectángulo_5550" data-name="Rectángulo 5550" width="3" height="531" transform="translate(-9156 -2980) rotate(90)" fill="#ffa726"/>
    <rect id="Rectángulo_5551" data-name="Rectángulo 5551" width="216" height="100" transform="translate(-9625 -3199)" fill="#b3bad6"/>
    <rect id="Rectángulo_5554" data-name="Rectángulo 5554" width="216" height="100" transform="translate(-9409 -3199)" fill="#add3fd"/>
    <rect id="Rectángulo_5552" data-name="Rectángulo 5552" width="216" height="100" transform="translate(-9625 -3099)" fill="#add3fd"/>
    <rect id="Rectángulo_5553" data-name="Rectángulo 5553" width="216" height="100" transform="translate(-9409 -3099)" fill="#b3bad6"/>
    <path id="Trazado_827375" data-name="Trazado 827375" d="M-61.706-9.759h1.786A1.857,1.857,0,0,0-57.8-11.837a1.8,1.8,0,0,0-.505-1.32,1.916,1.916,0,0,0-1.426-.511,2.052,2.052,0,0,0-1.308.438,1.336,1.336,0,0,0-.556,1.089h-3.785a3.874,3.874,0,0,1,.719-2.3,4.746,4.746,0,0,1,1.993-1.578,6.815,6.815,0,0,1,2.8-.567,6.7,6.7,0,0,1,4.29,1.247,4.144,4.144,0,0,1,1.561,3.425,3.454,3.454,0,0,1-.646,1.993A4.6,4.6,0,0,1-56.54-8.4,4.4,4.4,0,0,1-54.5-6.969a3.771,3.771,0,0,1,.741,2.375,4.219,4.219,0,0,1-1.685,3.5A6.992,6.992,0,0,1-59.864.225a7.252,7.252,0,0,1-2.982-.612,4.672,4.672,0,0,1-2.083-1.7,4.409,4.409,0,0,1-.708-2.465h3.807a1.7,1.7,0,0,0,.606,1.3,2.141,2.141,0,0,0,1.494.55,2.243,2.243,0,0,0,1.595-.556,1.858,1.858,0,0,0,.6-1.421,2.172,2.172,0,0,0-.618-1.752,2.582,2.582,0,0,0-1.707-.517h-1.842Zm12.264,6.087a2.155,2.155,0,0,1,1.494.533,1.75,1.75,0,0,1,.6,1.365,1.75,1.75,0,0,1-.6,1.365,2.155,2.155,0,0,1-1.494.533,2.136,2.136,0,0,1-1.5-.539,1.763,1.763,0,0,1-.59-1.359,1.763,1.763,0,0,1,.59-1.359A2.136,2.136,0,0,1-49.442-3.672ZM-30.5-4.346a1.62,1.62,0,0,0-.612-1.348,7.607,7.607,0,0,0-2.151-1,20.633,20.633,0,0,1-2.516-1q-3.178-1.561-3.178-4.29a3.847,3.847,0,0,1,.792-2.4A5.121,5.121,0,0,1-35.921-16a8.719,8.719,0,0,1,3.257-.578,7.627,7.627,0,0,1,3.161.629,5.005,5.005,0,0,1,2.173,1.791,4.678,4.678,0,0,1,.775,2.656h-3.931a1.977,1.977,0,0,0-.612-1.55,2.386,2.386,0,0,0-1.656-.55,2.69,2.69,0,0,0-1.668.466,1.43,1.43,0,0,0-.612,1.185,1.44,1.44,0,0,0,.674,1.14,8.5,8.5,0,0,0,2.37,1.056A14.516,14.516,0,0,1-29.2-8.58a4.68,4.68,0,0,1,2.65,4.211A3.993,3.993,0,0,1-28.172-1,7.193,7.193,0,0,1-32.608.225a8.8,8.8,0,0,1-3.6-.713,5.427,5.427,0,0,1-2.426-1.954A5.092,5.092,0,0,1-39.447-5.3h3.953a2.508,2.508,0,0,0,.679,1.937,3.212,3.212,0,0,0,2.207.623,2.537,2.537,0,0,0,1.544-.421A1.39,1.39,0,0,0-30.5-4.346ZM-17.862,0a4.273,4.273,0,0,1-.359-1.089A3.519,3.519,0,0,1-21.141.225a4.311,4.311,0,0,1-2.92-1.039,3.307,3.307,0,0,1-1.2-2.611A3.4,3.4,0,0,1-23.8-6.413a7.438,7.438,0,0,1,4.245-1.011h1.168v-.643q0-1.681-1.449-1.681a1.184,1.184,0,0,0-1.348,1.332h-3.785a3.393,3.393,0,0,1,1.5-2.86,6.3,6.3,0,0,1,3.824-1.1,5.524,5.524,0,0,1,3.672,1.134,3.944,3.944,0,0,1,1.381,3.111v5.379a5.509,5.509,0,0,0,.517,2.561V0Zm-2.37-2.471a2.111,2.111,0,0,0,1.174-.3,1.9,1.9,0,0,0,.668-.685V-5.4h-1.1q-1.977,0-1.977,1.774a1.083,1.083,0,0,0,.348.837A1.26,1.26,0,0,0-20.232-2.471Zm12.14-12.7v3.021h2v2.628h-2v5.559a1.419,1.419,0,0,0,.247.955,1.325,1.325,0,0,0,.977.27,5.552,5.552,0,0,0,.943-.067V-.1A6.985,6.985,0,0,1-8.058.225,3.965,3.965,0,0,1-10.944-.7a3.775,3.775,0,0,1-.932-2.8V-9.523h-1.55v-2.628h1.55v-3.021ZM-.612,0h-3.8V-12.151h3.8ZM-4.633-15.3a1.7,1.7,0,0,1,.584-1.333,2.2,2.2,0,0,1,1.516-.52,2.2,2.2,0,0,1,1.516.52A1.7,1.7,0,0,1-.432-15.3a1.7,1.7,0,0,1-.584,1.333,2.2,2.2,0,0,1-1.516.52,2.2,2.2,0,0,1-1.516-.52A1.7,1.7,0,0,1-4.633-15.3ZM8.08-3.414a.874.874,0,0,0-.505-.775A7.687,7.687,0,0,0,5.655-4.8a8.757,8.757,0,0,1-2.336-.825,3.913,3.913,0,0,1-1.4-1.241,2.963,2.963,0,0,1-.483-1.673,3.359,3.359,0,0,1,1.381-2.757,5.69,5.69,0,0,1,3.616-1.084,6.3,6.3,0,0,1,3.863,1.089,3.407,3.407,0,0,1,1.46,2.864h-3.8q0-1.46-1.539-1.46a1.525,1.525,0,0,0-1,.331,1.026,1.026,0,0,0-.4.825.942.942,0,0,0,.494.82,4.669,4.669,0,0,0,1.578.517,13.635,13.635,0,0,1,1.9.483q2.74.943,2.74,3.38A3.182,3.182,0,0,1,10.253-.82,6.476,6.476,0,0,1,6.429.225,6.609,6.609,0,0,1,3.644-.337,4.657,4.657,0,0,1,1.735-1.864,3.459,3.459,0,0,1,1.05-3.9H4.588a1.463,1.463,0,0,0,.562,1.23,2.31,2.31,0,0,0,1.381.387,1.817,1.817,0,0,0,1.162-.314A1.006,1.006,0,0,0,8.08-3.414ZM14.336,0V-9.523H12.573v-2.628h1.763v-.966A4.2,4.2,0,0,1,15.56-16.34,4.836,4.836,0,0,1,19-17.486a7.526,7.526,0,0,1,1.774.236l.011,2.785a3.457,3.457,0,0,0-.932-.1q-1.718,0-1.718,1.482v.932H20.5v2.628h-2.37V0ZM28.677,0a4.273,4.273,0,0,1-.359-1.089A3.519,3.519,0,0,1,25.4.225a4.311,4.311,0,0,1-2.92-1.039,3.307,3.307,0,0,1-1.2-2.611,3.4,3.4,0,0,1,1.46-2.987,7.438,7.438,0,0,1,4.245-1.011h1.168v-.643q0-1.681-1.449-1.681a1.184,1.184,0,0,0-1.348,1.332H21.568a3.393,3.393,0,0,1,1.5-2.86,6.3,6.3,0,0,1,3.824-1.1,5.524,5.524,0,0,1,3.672,1.134,3.944,3.944,0,0,1,1.381,3.111v5.379a5.509,5.509,0,0,0,.517,2.561V0Zm-2.37-2.471a2.111,2.111,0,0,0,1.174-.3,1.9,1.9,0,0,0,.668-.685V-5.4h-1.1q-1.977,0-1.977,1.774a1.083,1.083,0,0,0,.348.837A1.26,1.26,0,0,0,26.307-2.471ZM39.177-2.7a1.683,1.683,0,0,0,1.235-.432,1.586,1.586,0,0,0,.427-1.207h3.549a4.2,4.2,0,0,1-1.432,3.279A5.326,5.326,0,0,1,39.267.225,5.393,5.393,0,0,1,35.09-1.437a6.549,6.549,0,0,1-1.527-4.6V-6.2a7.4,7.4,0,0,1,.679-3.251,4.947,4.947,0,0,1,1.96-2.167,5.843,5.843,0,0,1,3.032-.758A5.259,5.259,0,0,1,43-11.062,4.66,4.66,0,0,1,44.388-7.5H40.84a2.077,2.077,0,0,0-.46-1.449,1.589,1.589,0,0,0-1.235-.505q-1.471,0-1.718,1.875a13.234,13.234,0,0,0-.079,1.64A5.2,5.2,0,0,0,37.785-3.4,1.516,1.516,0,0,0,39.177-2.7ZM51.868.225a6.246,6.246,0,0,1-4.526-1.668,5.759,5.759,0,0,1-1.729-4.341V-6.1A7.462,7.462,0,0,1,46.3-9.389,5.054,5.054,0,0,1,48.319-11.6a6.086,6.086,0,0,1,3.145-.781,5.26,5.26,0,0,1,4.043,1.589,6.245,6.245,0,0,1,1.482,4.43v1.471H49.465a2.728,2.728,0,0,0,.887,1.606,2.64,2.64,0,0,0,1.774.584,3.4,3.4,0,0,0,2.808-1.258l1.729,2.044a4.835,4.835,0,0,1-2,1.555A6.774,6.774,0,0,1,51.868.225Zm-.427-9.681q-1.662,0-1.977,2.2h3.818v-.292a1.875,1.875,0,0,0-.46-1.409A1.832,1.832,0,0,0,51.441-9.456Zm14.42.73-1.247-.09a2.239,2.239,0,0,0-2.291,1.123V0H58.539V-12.151h3.549l.124,1.561a2.931,2.931,0,0,1,2.662-1.786,3.691,3.691,0,0,1,1.056.135Z" transform="translate(-9521 -3136)" fill="#00104e"/>
    <path id="Trazado_827373" data-name="Trazado 827373" d="M-24.363,0h-3.076V-12.8h3.076Zm4.729-9.51.1,1.116a3.225,3.225,0,0,1,2.716-1.292A2.713,2.713,0,0,1-14.6-8.8a4.226,4.226,0,0,1,.76,2.672V0h-2.971V-6a1.6,1.6,0,0,0-.29-1.059A1.342,1.342,0,0,0-18.158-7.4a1.413,1.413,0,0,0-1.292.686V0h-2.962V-9.51Zm10.881-2.364V-9.51h1.564v2.057H-8.754V-3.1a1.111,1.111,0,0,0,.193.747,1.037,1.037,0,0,0,.765.211A4.345,4.345,0,0,0-7.058-2.2V-.079a5.466,5.466,0,0,1-1.67.255,3.1,3.1,0,0,1-2.259-.721,2.954,2.954,0,0,1-.729-2.188v-4.72h-1.213V-9.51h1.213v-2.364ZM-1.424.176A4.889,4.889,0,0,1-4.966-1.129a4.507,4.507,0,0,1-1.354-3.4v-.246a5.84,5.84,0,0,1,.541-2.575A3.955,3.955,0,0,1-4.2-9.075,4.763,4.763,0,0,1-1.74-9.686,4.117,4.117,0,0,1,1.424-8.442a4.887,4.887,0,0,1,1.16,3.467v1.151H-3.3A2.135,2.135,0,0,0-2.61-2.566a2.066,2.066,0,0,0,1.389.457,2.662,2.662,0,0,0,2.2-.984l1.354,1.6A3.784,3.784,0,0,1,.76-.277,5.3,5.3,0,0,1-1.424.176ZM-1.758-7.4q-1.3,0-1.547,1.723H-.316v-.229a1.467,1.467,0,0,0-.36-1.1A1.434,1.434,0,0,0-1.758-7.4Zm11.285.571L8.552-6.9a1.752,1.752,0,0,0-1.793.879V0H3.8V-9.51H6.574l.1,1.222a2.294,2.294,0,0,1,2.083-1.4,2.888,2.888,0,0,1,.826.105Zm5.5,7a4.889,4.889,0,0,1-3.542-1.305,4.507,4.507,0,0,1-1.354-3.4v-.246a5.84,5.84,0,0,1,.541-2.575,3.955,3.955,0,0,1,1.578-1.727,4.763,4.763,0,0,1,2.461-.611,4.117,4.117,0,0,1,3.164,1.244,4.887,4.887,0,0,1,1.16,3.467v1.151H13.148a2.135,2.135,0,0,0,.694,1.257,2.066,2.066,0,0,0,1.389.457,2.662,2.662,0,0,0,2.2-.984l1.354,1.6A3.784,3.784,0,0,1,17.213-.277,5.3,5.3,0,0,1,15.029.176ZM14.7-7.4q-1.3,0-1.547,1.723h2.988v-.229a1.467,1.467,0,0,0-.36-1.1A1.434,1.434,0,0,0,14.7-7.4Zm-.035-6.108h3.129l-2.443,2.76-2.417,0ZM25.207-2.672a.684.684,0,0,0-.4-.606,6.016,6.016,0,0,0-1.5-.475A6.853,6.853,0,0,1,21.48-4.4a3.062,3.062,0,0,1-1.1-.971A2.319,2.319,0,0,1,20-6.68a2.628,2.628,0,0,1,1.081-2.158,4.453,4.453,0,0,1,2.83-.848,4.934,4.934,0,0,1,3.023.853,2.666,2.666,0,0,1,1.143,2.241H25.11q0-1.143-1.2-1.143a1.194,1.194,0,0,0-.782.259.8.8,0,0,0-.316.646.737.737,0,0,0,.387.642,3.654,3.654,0,0,0,1.235.4,10.671,10.671,0,0,1,1.49.378A2.706,2.706,0,0,1,28.063-2.76,2.491,2.491,0,0,1,26.908-.642a5.068,5.068,0,0,1-2.993.817,5.172,5.172,0,0,1-2.18-.439,3.645,3.645,0,0,1-1.494-1.2,2.707,2.707,0,0,1-.536-1.591h2.769a1.145,1.145,0,0,0,.439.962,1.808,1.808,0,0,0,1.081.3,1.422,1.422,0,0,0,.91-.246A.787.787,0,0,0,25.207-2.672Z" transform="translate(-9787 -3087)" fill="#00104e"/>
    <path id="Trazado_827381" data-name="Trazado 827381" d="M-36.22,0H-39.3V-12.8h3.076Zm4.729-9.51.1,1.116a3.225,3.225,0,0,1,2.716-1.292,2.713,2.713,0,0,1,2.219.888,4.226,4.226,0,0,1,.76,2.672V0H-28.67V-6a1.6,1.6,0,0,0-.29-1.059A1.342,1.342,0,0,0-30.015-7.4a1.413,1.413,0,0,0-1.292.686V0h-2.962V-9.51Zm14.054-1.828q-.756-.062-1.274-.062-1.723,0-1.723,1.345v.545h1.854v2.057h-1.854V0h-2.971V-7.453h-1.38V-9.51h1.38v-.615a3.284,3.284,0,0,1,1.1-2.632,4.716,4.716,0,0,1,3.133-.927q1.45,0,4.711.185V0h-2.979Zm10.45,10.31a3.054,3.054,0,0,1-2.54,1.2A3,3,0,0,1-11.9-.734a3.826,3.826,0,0,1-.8-2.615V-9.51h2.962v6.179A1.065,1.065,0,0,0-8.552-2.109,1.548,1.548,0,0,0-7.1-2.839V-9.51h2.979V0H-6.9ZM2.1.176A4.889,4.889,0,0,1-1.441-1.129a4.507,4.507,0,0,1-1.354-3.4v-.246a5.84,5.84,0,0,1,.541-2.575A3.955,3.955,0,0,1-.677-9.075a4.763,4.763,0,0,1,2.461-.611A4.117,4.117,0,0,1,4.948-8.442a4.887,4.887,0,0,1,1.16,3.467v1.151H.22A2.135,2.135,0,0,0,.914-2.566,2.066,2.066,0,0,0,2.3-2.109a2.662,2.662,0,0,0,2.2-.984l1.354,1.6A3.784,3.784,0,0,1,4.285-.277,5.3,5.3,0,0,1,2.1.176ZM1.767-7.4Q.466-7.4.22-5.678H3.208v-.229a1.467,1.467,0,0,0-.36-1.1A1.434,1.434,0,0,0,1.767-7.4ZM10.02-9.51l.1,1.116a3.225,3.225,0,0,1,2.716-1.292,2.713,2.713,0,0,1,2.219.888,4.226,4.226,0,0,1,.76,2.672V0H12.841V-6a1.6,1.6,0,0,0-.29-1.059A1.342,1.342,0,0,0,11.5-7.4a1.413,1.413,0,0,0-1.292.686V0H7.242V-9.51Zm11.452,7.4a1.317,1.317,0,0,0,.967-.338,1.241,1.241,0,0,0,.334-.945H25.55A3.288,3.288,0,0,1,24.429-.826a4.168,4.168,0,0,1-2.887,1,4.22,4.22,0,0,1-3.27-1.3,5.125,5.125,0,0,1-1.2-3.6v-.123A5.792,5.792,0,0,1,17.609-7.4a3.872,3.872,0,0,1,1.534-1.7,4.573,4.573,0,0,1,2.373-.593A4.116,4.116,0,0,1,24.46-8.657a3.647,3.647,0,0,1,1.09,2.786H22.772A1.626,1.626,0,0,0,22.412-7a1.244,1.244,0,0,0-.967-.4q-1.151,0-1.345,1.468a10.357,10.357,0,0,0-.062,1.283,4.068,4.068,0,0,0,.343,1.986A1.187,1.187,0,0,0,21.472-2.109ZM29.927,0H26.956V-9.51h2.971ZM26.78-11.971a1.334,1.334,0,0,1,.457-1.043,1.718,1.718,0,0,1,1.187-.407,1.718,1.718,0,0,1,1.187.407,1.334,1.334,0,0,1,.457,1.043,1.334,1.334,0,0,1-.457,1.043,1.718,1.718,0,0,1-1.187.407,1.718,1.718,0,0,1-1.187-.407A1.334,1.334,0,0,1,26.78-11.971ZM37.107,0a3.344,3.344,0,0,1-.281-.853A2.754,2.754,0,0,1,34.541.176a3.374,3.374,0,0,1-2.285-.813,2.588,2.588,0,0,1-.94-2.043,2.66,2.66,0,0,1,1.143-2.338A5.821,5.821,0,0,1,35.78-5.81h.914v-.5q0-1.316-1.134-1.316a.927.927,0,0,0-1.055,1.042H31.544a2.655,2.655,0,0,1,1.173-2.239,4.931,4.931,0,0,1,2.993-.86,4.323,4.323,0,0,1,2.874.888,3.086,3.086,0,0,1,1.081,2.435v4.21a4.311,4.311,0,0,0,.4,2V0ZM35.253-1.934a1.652,1.652,0,0,0,.918-.237,1.487,1.487,0,0,0,.523-.536V-4.228h-.861q-1.547,0-1.547,1.389a.848.848,0,0,0,.272.655A.986.986,0,0,0,35.253-1.934Z" transform="translate(-9411 -2909)" fill="#00104e"/>
    <path id="Trazado_827372" data-name="Trazado 827372" d="M-45.844-11.375l3.719,9.281,3.719-9.281h1.945V0h-1.5V-4.43l.141-4.781L-41.555,0H-42.7L-46.43-9.187l.148,4.758V0h-1.5V-11.375ZM-28.82-.836A3.07,3.07,0,0,1-31.3.156a2.628,2.628,0,0,1-2.059-.785,3.4,3.4,0,0,1-.715-2.324v-5.5h1.445v5.461q0,1.922,1.563,1.922a2.163,2.163,0,0,0,2.2-1.234V-8.453h1.445V0h-1.375Zm6.992-.187a2.082,2.082,0,0,0,1.352-.469,1.649,1.649,0,0,0,.641-1.172h1.367a2.621,2.621,0,0,1-.5,1.383A3.293,3.293,0,0,1-20.2-.234a3.55,3.55,0,0,1-1.629.391A3.482,3.482,0,0,1-24.574-1a4.59,4.59,0,0,1-1.02-3.152v-.242a5.089,5.089,0,0,1,.453-2.2,3.451,3.451,0,0,1,1.3-1.492,3.7,3.7,0,0,1,2-.531,3.39,3.39,0,0,1,2.363.852,3.043,3.043,0,0,1,1,2.211h-1.367a1.992,1.992,0,0,0-.621-1.348,1.932,1.932,0,0,0-1.379-.527,2.023,2.023,0,0,0-1.707.793,3.724,3.724,0,0,0-.605,2.293v.273a3.65,3.65,0,0,0,.6,2.25A2.033,2.033,0,0,0-21.828-1.023ZM-15.4-7.43a3.073,3.073,0,0,1,2.5-1.18q2.68,0,2.7,3.023V0h-1.445V-5.594a1.946,1.946,0,0,0-.418-1.352,1.675,1.675,0,0,0-1.277-.437,2.086,2.086,0,0,0-1.234.375,2.546,2.546,0,0,0-.828.984V0h-1.445V-12H-15.4ZM-8.414-4.3a4.993,4.993,0,0,1,.488-2.234A3.643,3.643,0,0,1-6.566-8.07a3.7,3.7,0,0,1,1.988-.539,3.565,3.565,0,0,1,2.793,1.2A4.6,4.6,0,0,1-.719-4.234v.1a5.036,5.036,0,0,1-.473,2.215A3.589,3.589,0,0,1-2.543-.391a3.743,3.743,0,0,1-2.02.547,3.556,3.556,0,0,1-2.785-1.2A4.575,4.575,0,0,1-8.414-4.2Zm1.453.172a3.616,3.616,0,0,0,.652,2.258,2.088,2.088,0,0,0,1.746.852,2.075,2.075,0,0,0,1.75-.863A3.955,3.955,0,0,0-2.164-4.3a3.61,3.61,0,0,0-.66-2.254,2.1,2.1,0,0,0-1.754-.863A2.075,2.075,0,0,0-6.3-6.57,3.925,3.925,0,0,0-6.961-4.133Z" transform="translate(-9666 -3136)" fill="#00104e"/>
    <path id="Trazado_827380" data-name="Trazado 827380" d="M-45.422-11.375-41.7-2.094l3.719-9.281h1.945V0h-1.5V-4.43l.141-4.781L-41.133,0h-1.148l-3.727-9.187.148,4.758V0h-1.5V-11.375ZM-28.4-.836a3.07,3.07,0,0,1-2.477.992,2.628,2.628,0,0,1-2.059-.785,3.4,3.4,0,0,1-.715-2.324v-5.5H-32.2v5.461q0,1.922,1.563,1.922a2.163,2.163,0,0,0,2.2-1.234V-8.453h1.445V0h-1.375Zm6.992-.187a2.082,2.082,0,0,0,1.352-.469,1.649,1.649,0,0,0,.641-1.172h1.367a2.621,2.621,0,0,1-.5,1.383,3.293,3.293,0,0,1-1.23,1.047,3.55,3.55,0,0,1-1.629.391A3.482,3.482,0,0,1-24.152-1a4.59,4.59,0,0,1-1.02-3.152v-.242a5.089,5.089,0,0,1,.453-2.2,3.451,3.451,0,0,1,1.3-1.492,3.7,3.7,0,0,1,2-.531,3.39,3.39,0,0,1,2.363.852,3.043,3.043,0,0,1,1,2.211h-1.367a1.992,1.992,0,0,0-.621-1.348,1.932,1.932,0,0,0-1.379-.527,2.023,2.023,0,0,0-1.707.793,3.724,3.724,0,0,0-.605,2.293v.273a3.65,3.65,0,0,0,.6,2.25A2.033,2.033,0,0,0-21.406-1.023Zm6.43-6.406a3.073,3.073,0,0,1,2.5-1.18q2.68,0,2.7,3.023V0h-1.445V-5.594a1.946,1.946,0,0,0-.418-1.352,1.675,1.675,0,0,0-1.277-.437,2.086,2.086,0,0,0-1.234.375,2.546,2.546,0,0,0-.828.984V0h-1.445V-12h1.445ZM-2.391,0a3.036,3.036,0,0,1-.2-.891A3.225,3.225,0,0,1-5,.156,2.984,2.984,0,0,1-7.051-.551a2.287,2.287,0,0,1-.8-1.793,2.39,2.39,0,0,1,1-2.051,4.733,4.733,0,0,1,2.824-.73h1.406v-.664A1.623,1.623,0,0,0-3.07-7a1.821,1.821,0,0,0-1.336-.449,2.107,2.107,0,0,0-1.3.391,1.151,1.151,0,0,0-.523.945H-7.68A2,2,0,0,1-7.23-7.332a3.066,3.066,0,0,1,1.219-.934A4.1,4.1,0,0,1-4.32-8.609a3.342,3.342,0,0,1,2.289.73,2.635,2.635,0,0,1,.859,2.012v3.891a4.757,4.757,0,0,0,.3,1.852V0Zm-2.4-1.1A2.54,2.54,0,0,0-3.5-1.453a2.127,2.127,0,0,0,.883-.914V-4.1H-3.75q-2.656,0-2.656,1.555a1.316,1.316,0,0,0,.453,1.063A1.742,1.742,0,0,0-4.789-1.1Z" transform="translate(-9277 -2950)" fill="#00104e"/>
    <path id="Trazado_827379" data-name="Trazado 827379" d="M-33.375-4.453V0h-1.5V-11.375h4.2a4.215,4.215,0,0,1,2.926.953A3.231,3.231,0,0,1-26.7-7.9,3.189,3.189,0,0,1-27.73-5.348a4.4,4.4,0,0,1-2.965.895Zm0-1.227h2.7a2.7,2.7,0,0,0,1.844-.567,2.075,2.075,0,0,0,.641-1.64,2.143,2.143,0,0,0-.641-1.628,2.525,2.525,0,0,0-1.758-.634h-2.781ZM-25.492-4.3A4.993,4.993,0,0,1-25-6.539,3.643,3.643,0,0,1-23.645-8.07a3.7,3.7,0,0,1,1.988-.539,3.565,3.565,0,0,1,2.793,1.2A4.6,4.6,0,0,1-17.8-4.234v.1a5.036,5.036,0,0,1-.473,2.215A3.589,3.589,0,0,1-19.621-.391a3.743,3.743,0,0,1-2.02.547,3.556,3.556,0,0,1-2.785-1.2A4.575,4.575,0,0,1-25.492-4.2Zm1.453.172a3.616,3.616,0,0,0,.652,2.258,2.088,2.088,0,0,0,1.746.852,2.075,2.075,0,0,0,1.75-.863A3.955,3.955,0,0,0-19.242-4.3a3.61,3.61,0,0,0-.66-2.254,2.1,2.1,0,0,0-1.754-.863,2.075,2.075,0,0,0-1.727.852A3.925,3.925,0,0,0-24.039-4.133Zm11.445,3.109a2.082,2.082,0,0,0,1.352-.469A1.649,1.649,0,0,0-10.6-2.664h1.367a2.621,2.621,0,0,1-.5,1.383,3.293,3.293,0,0,1-1.23,1.047,3.55,3.55,0,0,1-1.629.391A3.482,3.482,0,0,1-15.34-1a4.59,4.59,0,0,1-1.02-3.152v-.242a5.089,5.089,0,0,1,.453-2.2,3.451,3.451,0,0,1,1.3-1.492,3.7,3.7,0,0,1,2-.531,3.39,3.39,0,0,1,2.363.852,3.043,3.043,0,0,1,1,2.211H-10.6a1.992,1.992,0,0,0-.621-1.348A1.932,1.932,0,0,0-12.6-7.422a2.023,2.023,0,0,0-1.707.793,3.724,3.724,0,0,0-.605,2.293v.273a3.65,3.65,0,0,0,.6,2.25A2.033,2.033,0,0,0-12.594-1.023ZM-2.391,0a3.036,3.036,0,0,1-.2-.891A3.225,3.225,0,0,1-5,.156,2.984,2.984,0,0,1-7.051-.551a2.287,2.287,0,0,1-.8-1.793,2.39,2.39,0,0,1,1-2.051,4.733,4.733,0,0,1,2.824-.73h1.406v-.664A1.623,1.623,0,0,0-3.07-7a1.821,1.821,0,0,0-1.336-.449,2.107,2.107,0,0,0-1.3.391,1.151,1.151,0,0,0-.523.945H-7.68A2,2,0,0,1-7.23-7.332a3.066,3.066,0,0,1,1.219-.934A4.1,4.1,0,0,1-4.32-8.609a3.342,3.342,0,0,1,2.289.73,2.635,2.635,0,0,1,.859,2.012v3.891a4.757,4.757,0,0,0,.3,1.852V0Zm-2.4-1.1A2.54,2.54,0,0,0-3.5-1.453a2.127,2.127,0,0,0,.883-.914V-4.1H-3.75q-2.656,0-2.656,1.555a1.316,1.316,0,0,0,.453,1.063A1.742,1.742,0,0,0-4.789-1.1Z" transform="translate(-9493 -2950)" fill="#00104e"/>
    <path id="Trazado_827374" data-name="Trazado 827374" d="M-33.8-4.453V0h-1.5V-11.375h4.2a4.215,4.215,0,0,1,2.926.953A3.231,3.231,0,0,1-27.117-7.9a3.189,3.189,0,0,1-1.035,2.551,4.4,4.4,0,0,1-2.965.895Zm0-1.227h2.7a2.7,2.7,0,0,0,1.844-.567,2.075,2.075,0,0,0,.641-1.64,2.143,2.143,0,0,0-.641-1.628,2.525,2.525,0,0,0-1.758-.634H-33.8ZM-25.914-4.3a4.993,4.993,0,0,1,.488-2.234A3.643,3.643,0,0,1-24.066-8.07a3.7,3.7,0,0,1,1.988-.539,3.565,3.565,0,0,1,2.793,1.2,4.6,4.6,0,0,1,1.066,3.18v.1a5.036,5.036,0,0,1-.473,2.215A3.589,3.589,0,0,1-20.043-.391a3.743,3.743,0,0,1-2.02.547,3.556,3.556,0,0,1-2.785-1.2A4.575,4.575,0,0,1-25.914-4.2Zm1.453.172a3.616,3.616,0,0,0,.652,2.258,2.088,2.088,0,0,0,1.746.852,2.075,2.075,0,0,0,1.75-.863A3.955,3.955,0,0,0-19.664-4.3a3.61,3.61,0,0,0-.66-2.254,2.1,2.1,0,0,0-1.754-.863A2.075,2.075,0,0,0-23.8-6.57,3.925,3.925,0,0,0-24.461-4.133Zm11.445,3.109a2.082,2.082,0,0,0,1.352-.469,1.649,1.649,0,0,0,.641-1.172h1.367a2.621,2.621,0,0,1-.5,1.383,3.293,3.293,0,0,1-1.23,1.047,3.55,3.55,0,0,1-1.629.391A3.482,3.482,0,0,1-15.762-1a4.59,4.59,0,0,1-1.02-3.152v-.242a5.089,5.089,0,0,1,.453-2.2,3.451,3.451,0,0,1,1.3-1.492,3.7,3.7,0,0,1,2-.531,3.39,3.39,0,0,1,2.363.852,3.043,3.043,0,0,1,1,2.211h-1.367a1.992,1.992,0,0,0-.621-1.348,1.932,1.932,0,0,0-1.379-.527,2.023,2.023,0,0,0-1.707.793,3.724,3.724,0,0,0-.605,2.293v.273a3.65,3.65,0,0,0,.6,2.25A2.033,2.033,0,0,0-13.016-1.023Zm4.6-3.281a4.993,4.993,0,0,1,.488-2.234A3.643,3.643,0,0,1-6.566-8.07a3.7,3.7,0,0,1,1.988-.539,3.565,3.565,0,0,1,2.793,1.2A4.6,4.6,0,0,1-.719-4.234v.1a5.036,5.036,0,0,1-.473,2.215A3.589,3.589,0,0,1-2.543-.391a3.743,3.743,0,0,1-2.02.547,3.556,3.556,0,0,1-2.785-1.2A4.575,4.575,0,0,1-8.414-4.2Zm1.453.172a3.616,3.616,0,0,0,.652,2.258,2.088,2.088,0,0,0,1.746.852,2.075,2.075,0,0,0,1.75-.863A3.955,3.955,0,0,0-2.164-4.3a3.61,3.61,0,0,0-.66-2.254,2.1,2.1,0,0,0-1.754-.863A2.075,2.075,0,0,0-6.3-6.57,3.925,3.925,0,0,0-6.961-4.133Z" transform="translate(-9665 -3043)" fill="#00104e"/>
    <path id="Trazado_827378" data-name="Trazado 827378" d="M-49.347-6.39h1.662v2.92h-1.662V0h-3.785V-3.47h-6.323l-.225-2.313,6.547-10.534v-.034h3.785Zm-6.727,0h2.942v-5.031l-.236.382Zm12.455,2.718a2.155,2.155,0,0,1,1.494.533,1.75,1.75,0,0,1,.6,1.365,1.75,1.75,0,0,1-.6,1.365,2.155,2.155,0,0,1-1.494.533,2.136,2.136,0,0,1-1.5-.539,1.763,1.763,0,0,1-.59-1.359,1.763,1.763,0,0,1,.59-1.359A2.136,2.136,0,0,1-43.619-3.672ZM-19.26-7.839A9.643,9.643,0,0,1-20.147-3.6,6.557,6.557,0,0,1-22.669-.769a7.02,7.02,0,0,1-3.723.994A7.12,7.12,0,0,1-30.1-.736a6.546,6.546,0,0,1-2.521-2.746,9.365,9.365,0,0,1-.949-4.1V-8.5a9.685,9.685,0,0,1,.882-4.24,6.541,6.541,0,0,1,2.527-2.836,7.069,7.069,0,0,1,3.745-1,7,7,0,0,1,3.706.988,6.659,6.659,0,0,1,2.532,2.813,9.407,9.407,0,0,1,.915,4.183Zm-4.009-.685a6.876,6.876,0,0,0-.814-3.7,2.612,2.612,0,0,0-2.33-1.263q-2.965,0-3.133,4.447l-.011,1.2a7.072,7.072,0,0,0,.8,3.695,2.608,2.608,0,0,0,2.37,1.292,2.576,2.576,0,0,0,2.3-1.269,6.879,6.879,0,0,0,.82-3.65ZM-6.121-5.975A7.406,7.406,0,0,1-7.356-1.381,4.138,4.138,0,0,1-10.837.225a3.591,3.591,0,0,1-2.987-1.471L-13.982,0h-3.392V-17.25h3.785v6.076a3.464,3.464,0,0,1,2.729-1.2,4.139,4.139,0,0,1,3.5,1.628A7.444,7.444,0,0,1-6.121-6.166Zm-3.8-.241a4.94,4.94,0,0,0-.466-2.495,1.571,1.571,0,0,0-1.432-.746,1.812,1.812,0,0,0-1.774.975V-3.66a1.822,1.822,0,0,0,1.8.964A1.607,1.607,0,0,0-10.1-4,9.339,9.339,0,0,0-9.917-6.216Zm11.826,2.8A.874.874,0,0,0,1.4-4.189,7.687,7.687,0,0,0-.517-4.8a8.757,8.757,0,0,1-2.336-.825,3.913,3.913,0,0,1-1.4-1.241,2.963,2.963,0,0,1-.483-1.673,3.359,3.359,0,0,1,1.381-2.757A5.69,5.69,0,0,1,.258-12.376a6.3,6.3,0,0,1,3.863,1.089,3.407,3.407,0,0,1,1.46,2.864h-3.8q0-1.46-1.539-1.46a1.525,1.525,0,0,0-1,.331,1.026,1.026,0,0,0-.4.825.942.942,0,0,0,.494.82A4.669,4.669,0,0,0,.915-7.39a13.635,13.635,0,0,1,1.9.483q2.74.943,2.74,3.38A3.182,3.182,0,0,1,4.082-.82,6.476,6.476,0,0,1,.258.225,6.609,6.609,0,0,1-2.527-.337,4.657,4.657,0,0,1-4.436-1.864,3.459,3.459,0,0,1-5.121-3.9h3.538a1.463,1.463,0,0,0,.562,1.23A2.31,2.31,0,0,0,.359-2.28a1.817,1.817,0,0,0,1.162-.314A1.006,1.006,0,0,0,1.909-3.414ZM13.207.225A6.246,6.246,0,0,1,8.681-1.443,5.759,5.759,0,0,1,6.952-5.784V-6.1a7.462,7.462,0,0,1,.691-3.291A5.054,5.054,0,0,1,9.658-11.6a6.086,6.086,0,0,1,3.145-.781,5.26,5.26,0,0,1,4.043,1.589,6.245,6.245,0,0,1,1.482,4.43v1.471H10.8a2.728,2.728,0,0,0,.887,1.606,2.64,2.64,0,0,0,1.774.584,3.4,3.4,0,0,0,2.808-1.258L18-1.909A4.835,4.835,0,0,1,16-.354,6.774,6.774,0,0,1,13.207.225ZM12.78-9.456q-1.662,0-1.977,2.2h3.818v-.292a1.875,1.875,0,0,0-.46-1.409A1.832,1.832,0,0,0,12.78-9.456Zm14.42.73-1.247-.09a2.239,2.239,0,0,0-2.291,1.123V0H19.878V-12.151h3.549l.124,1.561a2.931,2.931,0,0,1,2.662-1.786,3.691,3.691,0,0,1,1.056.135ZM33.613-4.5l1.92-7.648H39.52L35.556,0H31.692L27.728-12.151h4ZM47.325,0a4.273,4.273,0,0,1-.359-1.089A3.519,3.519,0,0,1,44.046.225a4.311,4.311,0,0,1-2.92-1.039,3.307,3.307,0,0,1-1.2-2.611,3.4,3.4,0,0,1,1.46-2.987,7.438,7.438,0,0,1,4.245-1.011H46.8v-.643q0-1.681-1.449-1.681A1.184,1.184,0,0,0,44-8.416H40.216a3.393,3.393,0,0,1,1.5-2.86,6.3,6.3,0,0,1,3.824-1.1,5.524,5.524,0,0,1,3.672,1.134,3.944,3.944,0,0,1,1.381,3.111v5.379A5.509,5.509,0,0,0,51.11-.191V0Zm-2.37-2.471a2.111,2.111,0,0,0,1.174-.3,1.9,1.9,0,0,0,.668-.685V-5.4H45.7q-1.977,0-1.977,1.774a1.083,1.083,0,0,0,.348.837A1.26,1.26,0,0,0,44.956-2.471ZM60.038-8.726l-1.247-.09A2.239,2.239,0,0,0,56.5-7.693V0H52.716V-12.151h3.549l.124,1.561a2.931,2.931,0,0,1,2.662-1.786,3.691,3.691,0,0,1,1.056.135Z" transform="translate(-9521 -3041)" fill="#00104e"/>
    <path id="Trazado_827376" data-name="Trazado 827376" d="M-54.462,0h-3.8V-12.084l-3.729,1.089V-13.87l7.176-2.482h.348Zm7.333-3.672a2.155,2.155,0,0,1,1.494.533,1.75,1.75,0,0,1,.6,1.365,1.75,1.75,0,0,1-.6,1.365,2.155,2.155,0,0,1-1.494.533,2.136,2.136,0,0,1-1.5-.539,1.763,1.763,0,0,1-.59-1.359,1.763,1.763,0,0,1,.59-1.359A2.136,2.136,0,0,1-47.129-3.672Zm23.741-1.864a5.972,5.972,0,0,1-.921,3.015A5.558,5.558,0,0,1-26.672-.494a8.046,8.046,0,0,1-3.476.719,6.421,6.421,0,0,1-5.076-2.1,8.671,8.671,0,0,1-1.853-5.93v-.809a9.9,9.9,0,0,1,.837-4.206A6.339,6.339,0,0,1-33.832-15.6a6.721,6.721,0,0,1,3.639-.983,7.048,7.048,0,0,1,4.784,1.567A6.19,6.19,0,0,1-23.354-10.7h-3.931a2.929,2.929,0,0,0-.752-2.145,3.1,3.1,0,0,0-2.156-.651,2.355,2.355,0,0,0-2.156,1.1,7.074,7.074,0,0,0-.719,3.515v1.157a7.827,7.827,0,0,0,.657,3.74,2.4,2.4,0,0,0,2.263,1.123,3.027,3.027,0,0,0,2.078-.64,2.717,2.717,0,0,0,.764-2.033Zm1.213-.651a7.172,7.172,0,0,1,.708-3.24,5.06,5.06,0,0,1,2.033-2.184,6.122,6.122,0,0,1,3.111-.764,5.587,5.587,0,0,1,4.3,1.69,6.486,6.486,0,0,1,1.572,4.6v.135a6.293,6.293,0,0,1-1.578,4.509A5.6,5.6,0,0,1-16.3.225a5.666,5.666,0,0,1-4.167-1.555,6.084,6.084,0,0,1-1.7-4.217Zm3.785.236a4.521,4.521,0,0,0,.528,2.471A1.758,1.758,0,0,0-16.3-2.7q2.021,0,2.066-3.111v-.382q0-3.268-2.089-3.268-1.9,0-2.055,2.819ZM-4.79,0h-3.8V-17.25h3.8ZM4.385,0a4.273,4.273,0,0,1-.359-1.089A3.519,3.519,0,0,1,1.106.225,4.311,4.311,0,0,1-1.814-.814a3.307,3.307,0,0,1-1.2-2.611,3.4,3.4,0,0,1,1.46-2.987A7.438,7.438,0,0,1,2.69-7.423H3.858v-.643q0-1.681-1.449-1.681A1.184,1.184,0,0,0,1.061-8.416H-2.723a3.393,3.393,0,0,1,1.5-2.86,6.3,6.3,0,0,1,3.824-1.1,5.524,5.524,0,0,1,3.672,1.134A3.944,3.944,0,0,1,7.654-8.131v5.379A5.509,5.509,0,0,0,8.17-.191V0ZM2.016-2.471a2.111,2.111,0,0,0,1.174-.3,1.9,1.9,0,0,0,.668-.685V-5.4h-1.1Q.781-5.4.781-3.627a1.083,1.083,0,0,0,.348.837A1.26,1.26,0,0,0,2.016-2.471Zm19.013-3.5a7.406,7.406,0,0,1-1.235,4.593A4.138,4.138,0,0,1,16.312.225a3.591,3.591,0,0,1-2.987-1.471L13.168,0H9.776V-17.25h3.785v6.076a3.464,3.464,0,0,1,2.729-1.2,4.139,4.139,0,0,1,3.5,1.628,7.444,7.444,0,0,1,1.235,4.582Zm-3.8-.241a4.94,4.94,0,0,0-.466-2.495,1.571,1.571,0,0,0-1.432-.746,1.812,1.812,0,0,0-1.774.975V-3.66a1.822,1.822,0,0,0,1.8.964,1.607,1.607,0,0,0,1.7-1.3A9.339,9.339,0,0,0,17.233-6.216Zm4.986.028a7.172,7.172,0,0,1,.708-3.24,5.06,5.06,0,0,1,2.033-2.184,6.122,6.122,0,0,1,3.111-.764,5.587,5.587,0,0,1,4.3,1.69,6.486,6.486,0,0,1,1.572,4.6v.135a6.293,6.293,0,0,1-1.578,4.509A5.6,5.6,0,0,1,28.093.225a5.666,5.666,0,0,1-4.167-1.555,6.084,6.084,0,0,1-1.7-4.217ZM26-5.952a4.521,4.521,0,0,0,.528,2.471,1.758,1.758,0,0,0,1.561.786q2.021,0,2.066-3.111v-.382q0-3.268-2.089-3.268-1.9,0-2.055,2.819ZM42.962-8.726l-1.247-.09a2.239,2.239,0,0,0-2.291,1.123V0H35.64V-12.151h3.549l.124,1.561a2.931,2.931,0,0,1,2.662-1.786,3.691,3.691,0,0,1,1.056.135ZM50.835,0a4.273,4.273,0,0,1-.359-1.089A3.519,3.519,0,0,1,47.555.225a4.311,4.311,0,0,1-2.92-1.039,3.307,3.307,0,0,1-1.2-2.611,3.4,3.4,0,0,1,1.46-2.987,7.438,7.438,0,0,1,4.245-1.011h1.168v-.643q0-1.681-1.449-1.681A1.184,1.184,0,0,0,47.51-8.416H43.726a3.393,3.393,0,0,1,1.5-2.86,6.3,6.3,0,0,1,3.824-1.1,5.524,5.524,0,0,1,3.672,1.134A3.944,3.944,0,0,1,54.1-8.131v5.379a5.509,5.509,0,0,0,.517,2.561V0Zm-2.37-2.471a2.111,2.111,0,0,0,1.174-.3,1.9,1.9,0,0,0,.668-.685V-5.4h-1.1q-1.977,0-1.977,1.774a1.083,1.083,0,0,0,.348.837A1.26,1.26,0,0,0,48.465-2.471ZM63.548-8.726,62.3-8.816A2.239,2.239,0,0,0,60.01-7.693V0H56.225V-12.151h3.549L59.9-10.59a2.931,2.931,0,0,1,2.662-1.786,3.691,3.691,0,0,1,1.056.135Z" transform="translate(-9305 -3136)" fill="#00104e"/>
    <path id="Trazado_827377" data-name="Trazado 827377" d="M-57.068,0h-11.41V-2.471L-63.222-8q1.943-2.212,1.943-3.515a2.445,2.445,0,0,0-.46-1.606,1.644,1.644,0,0,0-1.336-.55,1.664,1.664,0,0,0-1.4.736,3.023,3.023,0,0,0-.539,1.836h-3.8a5.37,5.37,0,0,1,.752-2.78,5.277,5.277,0,0,1,2.089-1.993,6.205,6.205,0,0,1,2.987-.719A6.1,6.1,0,0,1-58.9-15.363a4.37,4.37,0,0,1,1.432,3.515,5.1,5.1,0,0,1-.359,1.881,8.249,8.249,0,0,1-1.117,1.92,28.148,28.148,0,0,1-2.443,2.69L-63.5-2.92h6.435Zm4.313-3.672a2.155,2.155,0,0,1,1.494.533,1.75,1.75,0,0,1,.6,1.365,1.75,1.75,0,0,1-.6,1.365,2.155,2.155,0,0,1-1.494.533,2.136,2.136,0,0,1-1.5-.539,1.763,1.763,0,0,1-.59-1.359,1.763,1.763,0,0,1,.59-1.359A2.136,2.136,0,0,1-52.755-3.672Zm23.741-1.864a5.972,5.972,0,0,1-.921,3.015A5.558,5.558,0,0,1-32.3-.494a8.046,8.046,0,0,1-3.476.719,6.421,6.421,0,0,1-5.076-2.1A8.671,8.671,0,0,1-42.7-7.805v-.809a9.9,9.9,0,0,1,.837-4.206A6.339,6.339,0,0,1-39.458-15.6a6.721,6.721,0,0,1,3.639-.983,7.048,7.048,0,0,1,4.784,1.567A6.19,6.19,0,0,1-28.98-10.7h-3.931a2.929,2.929,0,0,0-.752-2.145A3.1,3.1,0,0,0-35.82-13.5a2.355,2.355,0,0,0-2.156,1.1,7.074,7.074,0,0,0-.719,3.515v1.157a7.827,7.827,0,0,0,.657,3.74,2.4,2.4,0,0,0,2.263,1.123A3.027,3.027,0,0,0-33.7-3.5a2.717,2.717,0,0,0,.764-2.033Zm1.213-.651a7.172,7.172,0,0,1,.708-3.24,5.06,5.06,0,0,1,2.033-2.184,6.122,6.122,0,0,1,3.111-.764,5.587,5.587,0,0,1,4.3,1.69,6.486,6.486,0,0,1,1.572,4.6v.135a6.293,6.293,0,0,1-1.578,4.509A5.6,5.6,0,0,1-21.927.225a5.666,5.666,0,0,1-4.167-1.555,6.084,6.084,0,0,1-1.7-4.217Zm3.785.236a4.521,4.521,0,0,0,.528,2.471,1.758,1.758,0,0,0,1.561.786q2.021,0,2.066-3.111v-.382q0-3.268-2.089-3.268-1.9,0-2.055,2.819Zm13.185-6.2.124,1.426a4.178,4.178,0,0,1,3.47-1.651,3.076,3.076,0,0,1,3.111,1.831A4.044,4.044,0,0,1-.556-12.376q3.695,0,3.8,4.47V0h-3.8V-7.67A2.317,2.317,0,0,0-.87-9.029a1.339,1.339,0,0,0-1.146-.427,1.793,1.793,0,0,0-1.673,1l.011.157V0h-3.8V-7.648a2.435,2.435,0,0,0-.3-1.381,1.335,1.335,0,0,0-1.157-.427,1.815,1.815,0,0,0-1.662,1V0h-3.785V-12.151ZM12.64-1.314A3.9,3.9,0,0,1,9.394.225,3.827,3.827,0,0,1,6.368-.938,4.889,4.889,0,0,1,5.34-4.279v-7.873H9.125v7.9A1.36,1.36,0,0,0,10.641-2.7a1.978,1.978,0,0,0,1.853-.932v-8.524H16.3V0H12.752Zm9.209-10.837.124,1.426a4.121,4.121,0,0,1,3.47-1.651,3.467,3.467,0,0,1,2.836,1.134,5.4,5.4,0,0,1,.971,3.414V0h-3.8V-7.67a2.051,2.051,0,0,0-.371-1.353,1.714,1.714,0,0,0-1.348-.432,1.8,1.8,0,0,0-1.651.876V0H18.3V-12.151ZM35.337,0h-3.8V-12.151h3.8ZM31.316-15.3a1.7,1.7,0,0,1,.584-1.333,2.2,2.2,0,0,1,1.516-.52,2.2,2.2,0,0,1,1.516.52,1.7,1.7,0,0,1,.584,1.333,1.7,1.7,0,0,1-.584,1.333,2.2,2.2,0,0,1-1.516.52,2.2,2.2,0,0,1-1.516-.52A1.7,1.7,0,0,1,31.316-15.3ZM42.8-2.7a1.683,1.683,0,0,0,1.235-.432,1.586,1.586,0,0,0,.427-1.207h3.549a4.2,4.2,0,0,1-1.432,3.279A5.326,5.326,0,0,1,42.895.225a5.393,5.393,0,0,1-4.178-1.662,6.549,6.549,0,0,1-1.527-4.6V-6.2a7.4,7.4,0,0,1,.679-3.251,4.947,4.947,0,0,1,1.96-2.167,5.843,5.843,0,0,1,3.032-.758,5.259,5.259,0,0,1,3.762,1.314A4.66,4.66,0,0,1,48.016-7.5H44.467a2.077,2.077,0,0,0-.46-1.449,1.589,1.589,0,0,0-1.235-.505q-1.471,0-1.718,1.875a13.234,13.234,0,0,0-.079,1.64A5.2,5.2,0,0,0,41.412-3.4,1.516,1.516,0,0,0,42.8-2.7ZM56.461,0A4.273,4.273,0,0,1,56.1-1.089,3.519,3.519,0,0,1,53.182.225a4.311,4.311,0,0,1-2.92-1.039,3.307,3.307,0,0,1-1.2-2.611,3.4,3.4,0,0,1,1.46-2.987,7.438,7.438,0,0,1,4.245-1.011h1.168v-.643q0-1.681-1.449-1.681a1.184,1.184,0,0,0-1.348,1.332H49.352a3.393,3.393,0,0,1,1.5-2.86,6.3,6.3,0,0,1,3.824-1.1,5.524,5.524,0,0,1,3.672,1.134,3.944,3.944,0,0,1,1.381,3.111v5.379a5.509,5.509,0,0,0,.517,2.561V0Zm-2.37-2.471a2.111,2.111,0,0,0,1.174-.3,1.9,1.9,0,0,0,.668-.685V-5.4h-1.1q-1.977,0-1.977,1.774a1.083,1.083,0,0,0,.348.837A1.26,1.26,0,0,0,54.092-2.471ZM69.174-8.726l-1.247-.09a2.239,2.239,0,0,0-2.291,1.123V0H61.852V-12.151H65.4l.124,1.561a2.931,2.931,0,0,1,2.662-1.786,3.691,3.691,0,0,1,1.056.135Z" transform="translate(-9305 -3041)" fill="#00104e"/>
    <path id="Trazado_5502" data-name="Trazado 5502" d="M4689.6,6191.5h-14.267V6286H4689.6" transform="translate(-14416.446 -9333)" fill="none" stroke="#00104e" stroke-width="1"/>
    <path id="Trazado_5503" data-name="Trazado 5503" d="M4892,6391v9.5h212.938V6391" transform="translate(-14401.27 -9333)" fill="none" stroke="#707070" stroke-width="1"/>
  </g>
</svg>
