<svg xmlns="http://www.w3.org/2000/svg" width="50" height="49.999" viewBox="0 0 50 49.999">
  <g id="handshake" transform="translate(0 -0.008)">
    <path id="Trazado_826334" data-name="Trazado 826334" d="M102,244.98l-2.625-1.247,2.2-10.238,6.677-1.653a7.014,7.014,0,0,1,5.795,1.124l5.227,4.271,6.846,7.182a2.2,2.2,0,0,1-3.1,3.1l-3.719-3.719-1.552-1.552,5.271,5.271a2.2,2.2,0,0,1-3.1,3.1l-3.719-3.719-1.552-1.552,5.271,5.271a2.2,2.2,0,1,1-3.1,3.1l-3.719-3.719Z" transform="translate(-89.669 -209.009)" fill="#ffd1c8"/>
    <path id="Trazado_826335" data-name="Trazado 826335" d="M218,235.023l-5.817,2.247a2.494,2.494,0,0,1-2.376-4.335l4.014-2.953a4.108,4.108,0,0,1,3.406-.683l8.737,2.126,2.91,10.014-3.471,1.7Z" transform="translate(-188.401 -206.794)" fill="#ffcaa6"/>
    <g id="Grupo_1074302" data-name="Grupo 1074302" transform="translate(11.686 33.857)">
      <path id="Trazado_826336" data-name="Trazado 826336" d="M124.886,347.264a2.2,2.2,0,0,0-3.1,0l-1.472,1.472a2.2,2.2,0,1,0,3.1,3.1l1.472-1.472A2.2,2.2,0,0,0,124.886,347.264Z" transform="translate(-119.668 -346.621)" fill="#ffcaa6"/>
      <path id="Trazado_826337" data-name="Trazado 826337" d="M156.674,379.051a2.2,2.2,0,0,0-3.1,0l-1.472,1.472a2.2,2.2,0,0,0,3.1,3.1l1.472-1.472A2.2,2.2,0,0,0,156.674,379.051Z" transform="translate(-148.351 -375.304)" fill="#ffcaa6"/>
      <path id="Trazado_826338" data-name="Trazado 826338" d="M188.462,410.839a2.2,2.2,0,0,0-3.1,0l-1.472,1.472a2.2,2.2,0,1,0,3.1,3.1l1.472-1.472A2.2,2.2,0,0,0,188.462,410.839Z" transform="translate(-177.035 -403.988)" fill="#ffcaa6"/>
      <path id="Trazado_826339" data-name="Trazado 826339" d="M220.249,442.627a2.2,2.2,0,0,0-3.1,0l-1.472,1.472a2.2,2.2,0,0,0,3.1,3.1l1.472-1.472A2.2,2.2,0,0,0,220.249,442.627Z" transform="translate(-205.718 -432.672)" fill="#ffcaa6"/>
    </g>
    <path id="Trazado_826340" data-name="Trazado 826340" d="M10,166.118l11.462,5.952-3.371,14.167L10,183.675Z" transform="translate(-9.023 -149.888)" fill="#33d7f6"/>
    <path id="Trazado_826341" data-name="Trazado 826341" d="M396.093,166.118l-11.462,5.952L388,186.237l8.091-2.563Z" transform="translate(-347.069 -149.888)" fill="#ff7d99"/>
    <g id="XMLID_1_" transform="translate(28.045 0.984)">
      <path id="XMLID_3_" d="M293.256,83.063h2.1a6.078,6.078,0,0,1,6.078,6.078v1.052H287.178V89.141A6.078,6.078,0,0,1,293.256,83.063Z" transform="translate(-287.178 -75.929)" fill="#ff7d99"/>
      <path id="XMLID_2_" d="M332.775,10.007a2.966,2.966,0,0,1,2.966,2.966v1.2a2.966,2.966,0,0,1-5.932,0v-1.2a2.966,2.966,0,0,1,2.966-2.966Z" transform="translate(-325.646 -10.007)" fill="#ffcaa6"/>
    </g>
    <g id="XMLID_580_" transform="translate(7.698 0.984)">
      <path id="XMLID_585_" d="M87,83.063H84.9a6.078,6.078,0,0,0-6.078,6.078v1.052H93.08V89.141A6.078,6.078,0,0,0,87,83.063Z" transform="translate(-78.822 -75.929)" fill="#33d7f6"/>
      <path id="XMLID_582_" d="M124.417,10.007a2.966,2.966,0,0,0-2.966,2.966v1.2a2.966,2.966,0,1,0,5.932,0v-1.2a2.966,2.966,0,0,0-2.966-2.966Z" transform="translate(-117.288 -10.007)" fill="#ffd1c8"/>
    </g>
    <g id="Grupo_1074303" data-name="Grupo 1074303" transform="translate(17.149 0.984)">
      <g id="XMLID_1362_">
        <path id="XMLID_579_" d="M184.611,90.467H182.3a6.694,6.694,0,0,0-6.694,6.694v1.159h15.7V97.161A6.694,6.694,0,0,0,184.611,90.467Z" transform="translate(-175.602 -82.61)" fill="#ffcf5c"/>
        <path id="XMLID_1364_" d="M225.818,10.007a3.266,3.266,0,0,0-3.266,3.266V14.6a3.266,3.266,0,1,0,6.533,0V13.274A3.266,3.266,0,0,0,225.818,10.007Z" transform="translate(-217.967 -10.007)" fill="#ffb888"/>
      </g>
    </g>
    <g id="Grupo_1074304" data-name="Grupo 1074304" transform="translate(0 0.008)">
      <path id="Trazado_826342" data-name="Trazado 826342" d="M49.531,156.26a.977.977,0,0,0-.957-.032l-11.462,5.952a.977.977,0,0,0-.5,1.093l.249,1.047-7.805-1.9a5.072,5.072,0,0,0-4.215.845l-.5.369a7.973,7.973,0,0,0-6-.884l-5.132,1.271.178-.748a.976.976,0,0,0-.5-1.093L1.427,156.228A.977.977,0,0,0,0,157.095v17.557a.976.976,0,0,0,.682.931l8.091,2.563a.977.977,0,0,0,1.245-.7l.133-.558.773.367a3.167,3.167,0,0,0,2.895,4.308,3.163,3.163,0,0,0,3.1,3.1,3.163,3.163,0,0,0,3.1,3.1,3.171,3.171,0,0,0,5.411,2.178l1.471-1.471a3.152,3.152,0,0,0,.817-1.414,3.167,3.167,0,0,0,4.128-2.957,3.163,3.163,0,0,0,3.1-3.1,3.17,3.17,0,0,0,3.107-3.17c0-.016,0-.032,0-.048l1.791-.879.128.539a.977.977,0,0,0,1.245.7l8.091-2.563a.976.976,0,0,0,.682-.931V157.095a.975.975,0,0,0-.469-.835ZM1.953,173.937V158.7l9.359,4.86-2.951,12.4Zm11.067,3.591,1.471-1.471a1.218,1.218,0,1,1,1.723,1.723l-1.471,1.471a1.218,1.218,0,1,1-1.723-1.723Zm3.1,3.1L17.6,179.16a1.218,1.218,0,0,1,1.723,1.723l-1.472,1.472a1.218,1.218,0,0,1-1.723-1.723Zm3.1,3.1,1.472-1.472a1.218,1.218,0,0,1,1.723,1.723l-1.472,1.472a1.218,1.218,0,0,1-1.723-1.723Zm6.3,3.356-1.471,1.471a1.218,1.218,0,1,1-1.723-1.723l1.472-1.472a1.218,1.218,0,0,1,1.723,1.723Zm10.228-8.4a1.218,1.218,0,0,1-1.723,0h0l-5.271-5.271A.977.977,0,1,0,27.38,174.8l5.271,5.271a1.218,1.218,0,1,1-1.723,1.723l-5.271-5.271a.977.977,0,0,0-1.381,1.381l5.271,5.271a1.218,1.218,0,1,1-1.723,1.723L23.8,180.883a3.159,3.159,0,0,0-2.178-.926,3.163,3.163,0,0,0-3.1-3.1,3.171,3.171,0,0,0-5.413-2.178l-.984.984-1.514-.719,2.089-8.78,6.11-1.513a6.024,6.024,0,0,1,3.765.285l-1.749,1.287a3.469,3.469,0,0,0,2.067,6.264,3.44,3.44,0,0,0,1.24-.231l5.208-2.012,6.413,6.727A1.219,1.219,0,0,1,35.755,178.69Zm1.67-2.772c-.085-.113-7.119-7.5-7.119-7.5a.977.977,0,0,0-1.059-.237h0l-5.817,2.247a1.517,1.517,0,0,1-1.446-2.638L26,164.839a3.125,3.125,0,0,1,2.6-.52l8.737,2.126.037.007,2.023,8.5Zm10.622-1.982-6.407,2.029-2.951-12.4,9.359-4.86Z" transform="translate(0 -140.873)"/>
      <path id="Trazado_826343" data-name="Trazado 826343" d="M69.8,16.225h8.475v.469a.977.977,0,0,0,.977.977H82.7a.977.977,0,0,0,0-1.953h-2.48v-.182a5.724,5.724,0,0,1,5.717-5.717h.181v1.334a.977.977,0,0,0,1.953,0V9.819h.181a5.724,5.724,0,0,1,5.717,5.717v.182h-2.48a.977.977,0,0,0,0,1.953h3.457a.977.977,0,0,0,.977-.977v-.469H104.4a.977.977,0,0,0,.977-.977V14.2a7.066,7.066,0,0,0-4.921-6.724,3.92,3.92,0,0,0,.758-2.32V3.95a3.942,3.942,0,0,0-7.885,0v1.2a3.92,3.92,0,0,0,.756,2.318,6.99,6.99,0,0,0-2.314,1.251,7.619,7.619,0,0,0-1.331-.538,4.221,4.221,0,0,0,.9-2.609V4.251a4.243,4.243,0,0,0-8.486,0V5.576a4.22,4.22,0,0,0,.9,2.609,7.619,7.619,0,0,0-1.331.538,6.99,6.99,0,0,0-2.314-1.251,3.92,3.92,0,0,0,.756-2.318V3.95a3.942,3.942,0,0,0-7.885,0v1.2a3.92,3.92,0,0,0,.758,2.32A7.066,7.066,0,0,0,68.82,14.2v1.052A.977.977,0,0,0,69.8,16.225ZM95.284,3.95a1.989,1.989,0,0,1,3.979,0v1.2a1.989,1.989,0,1,1-3.979,0ZM96.222,9.1H96.3V10a.977.977,0,1,0,1.953,0V9.1h.075a5.107,5.107,0,0,1,5.1,5.1v.075h-7.6a7.663,7.663,0,0,0-2.361-4.365A5.066,5.066,0,0,1,96.222,9.1ZM84.81,4.251a2.29,2.29,0,0,1,4.58,0V5.576a2.29,2.29,0,0,1-4.58,0Zm-9.873-.3a1.989,1.989,0,0,1,3.979,0v1.2a1.989,1.989,0,1,1-3.979,0ZM70.773,14.2a5.107,5.107,0,0,1,5.1-5.1h.075V10A.977.977,0,1,0,77.9,10V9.1h.075a5.066,5.066,0,0,1,2.761.812,7.663,7.663,0,0,0-2.361,4.365h-7.6Z" transform="translate(-62.099 -0.008)"/>
      <circle id="Elipse_9935" data-name="Elipse 9935" cx="0.977" cy="0.977" r="0.977" transform="translate(24.024 15.71)"/>
    </g>
  </g>
</svg>
