<svg xmlns="http://www.w3.org/2000/svg" width="52" height="54.808" viewBox="0 0 52 54.808">
  <g id="law_1_" data-name="law(1)" transform="translate(-19.711 -6.5)">
    <g id="Grupo_1074301" data-name="Grupo 1074301" transform="translate(20.711 7.5)">
      <g id="Grupo_1074292" data-name="Grupo 1074292" transform="translate(0 0)">
        <path id="Trazado_826307" data-name="Trazado 826307" d="M37.359,395.083H23.252a2.438,2.438,0,0,1-2.435-2.42l-.107-.016v3.112a2.541,2.541,0,0,0,2.541,2.541H38.085v-3.112Z" transform="translate(-20.711 -351.725)" fill="#a44f3e"/>
        <path id="Trazado_826308" data-name="Trazado 826308" d="M147,415.568v3.218h3.956v-3.112l-.726-.106Z" transform="translate(-133.581 -372.21)" fill="#883f2e"/>
        <path id="Trazado_826309" data-name="Trazado 826309" d="M38.085,368.729H23.252a2.541,2.541,0,1,0,0,5.083H38.085Z" transform="translate(-20.711 -330.348)" fill="#fff"/>
        <rect id="Rectángulo_382824" data-name="Rectángulo 382824" width="3.956" height="5.083" transform="translate(13.418 38.381)" fill="#f9f3f1"/>
        <g id="Grupo_1074290" data-name="Grupo 1074290" transform="translate(0 40.923)">
          <path id="Trazado_826310" data-name="Trazado 826310" d="M20.711,392.648v3.112a2.541,2.541,0,0,0,2.541,2.541H28.3" transform="translate(-20.711 -392.648)" fill="none" stroke="#000" stroke-linecap="round" stroke-linejoin="round" stroke-miterlimit="10" stroke-width="2"/>
          <path id="Trazado_826311" data-name="Trazado 826311" d="M148.707,415.568H145.3v3.218h4.03v-3.127Z" transform="translate(-132.059 -413.133)" fill="none" stroke="#000" stroke-linecap="round" stroke-linejoin="round" stroke-miterlimit="10" stroke-width="2"/>
        </g>
        <path id="Trazado_826312" data-name="Trazado 826312" d="M25.141,371.27h0a2.541,2.541,0,0,1,2.541-2.541h-4.43a2.541,2.541,0,0,0-2.541,2.541h0a2.541,2.541,0,0,0,2.541,2.541h4.431A2.541,2.541,0,0,1,25.141,371.27Z" transform="translate(-20.711 -330.348)" fill="#efe2dd"/>
        <path id="Trazado_826313" data-name="Trazado 826313" d="M20.711,371.27a2.541,2.541,0,0,0,2.541,2.541h4.431a2.541,2.541,0,0,1-2.541-2.541h0a2.541,2.541,0,0,1,2.541-2.541H23.252" transform="translate(-20.711 -330.348)" fill="none" stroke="#000" stroke-linecap="round" stroke-linejoin="round" stroke-miterlimit="10" stroke-width="2"/>
        <path id="Trazado_826314" data-name="Trazado 826314" d="M38.085,18.531a.425.425,0,0,1,.425-.425h15V9.056A1.556,1.556,0,0,0,51.956,7.5h-28.7a2.541,2.541,0,0,0-2.541,2.541V48.423a2.541,2.541,0,0,1,2.541-2.541H38.085Z" transform="translate(-20.711 -7.5)" fill="#a44f3e"/>
        <path id="Trazado_826315" data-name="Trazado 826315" d="M25.141,7.5H23.252a2.541,2.541,0,0,0-2.541,2.541V48.423a2.541,2.541,0,0,1,2.541-2.541h1.889Z" transform="translate(-20.711 -7.5)" fill="#c96e59"/>
        <g id="Grupo_1074291" data-name="Grupo 1074291" transform="translate(0)">
          <path id="Trazado_826316" data-name="Trazado 826316" d="M20.711,371.27a2.541,2.541,0,0,1,2.541-2.541H20.711Z" transform="translate(-20.711 -330.348)" fill="#883f2e"/>
          <path id="Trazado_826317" data-name="Trazado 826317" d="M148.594,107.32A1.594,1.594,0,0,0,147,108.914V135.1h3.956v-27.35a.425.425,0,0,1,.425-.425Z" transform="translate(-133.581 -96.714)" fill="#883f2e"/>
          <path id="Trazado_826318" data-name="Trazado 826318" d="M277.494,7.5h-4.432a1.556,1.556,0,0,1,1.556,1.556v9.05h4.432V9.056A1.556,1.556,0,0,0,277.494,7.5Z" transform="translate(-246.249 -7.5)" fill="#883f2e"/>
        </g>
        <path id="Trazado_826319" data-name="Trazado 826319" d="M37.979,18.531A.531.531,0,0,1,38.51,18h15V9.056A1.556,1.556,0,0,0,51.956,7.5h-28.7a2.541,2.541,0,0,0-2.541,2.541V48.423a2.541,2.541,0,0,1,2.541-2.541H37.979Z" transform="translate(-20.711 -7.5)" fill="none" stroke="#000" stroke-linecap="round" stroke-linejoin="round" stroke-miterlimit="10" stroke-width="2"/>
      </g>
      <g id="Grupo_1074299" data-name="Grupo 1074299" transform="translate(17.268 10.5)">
        <path id="Trazado_826320" data-name="Trazado 826320" d="M215.43,148.628H183.76a.531.531,0,0,1-.531-.531V106.852a.531.531,0,0,1,.531-.531h31.67a.531.531,0,0,1,.531.531V148.1A.531.531,0,0,1,215.43,148.628Z" transform="translate(-183.229 -106.321)" fill="#f9f3f1"/>
        <path id="Trazado_826321" data-name="Trazado 826321" d="M454.971,106.321h-3.723a.531.531,0,0,1,.531.531V148.1a.531.531,0,0,1-.531.531h3.723a.531.531,0,0,0,.531-.531V106.852A.531.531,0,0,0,454.971,106.321Z" transform="translate(-422.77 -106.321)" fill="#f3eae6"/>
        <path id="Trazado_826322" data-name="Trazado 826322" d="M183.229,147.194v.9a.531.531,0,0,0,.531.531h31.67a.531.531,0,0,0,.531-.531V106.852a.531.531,0,0,0-.531-.531h-5.768" transform="translate(-183.229 -106.321)" fill="none" stroke="#000" stroke-linecap="round" stroke-linejoin="round" stroke-miterlimit="10" stroke-width="2"/>
        <path id="Trazado_826323" data-name="Trazado 826323" d="M205.943,106.321H183.76a.531.531,0,0,0-.531.531v36.623" transform="translate(-183.229 -106.321)" fill="none" stroke="#000" stroke-linecap="round" stroke-linejoin="round" stroke-miterlimit="10" stroke-width="2"/>
        <g id="Grupo_1074296" data-name="Grupo 1074296" transform="translate(6.023 9.774)">
          <g id="Grupo_1074294" data-name="Grupo 1074294">
            <g id="Grupo_1074293" data-name="Grupo 1074293">
              <path id="Trazado_826324" data-name="Trazado 826324" d="M239.919,233.468" transform="translate(-239.919 -229.732)" fill="none" stroke="#000" stroke-linecap="round" stroke-linejoin="round" stroke-miterlimit="10" stroke-width="2"/>
              <path id="Trazado_826325" data-name="Trazado 826325" d="M239.919,198.308v7.472h4.335" transform="translate(-239.919 -198.308)" fill="none" stroke="#000" stroke-linecap="round" stroke-linejoin="round" stroke-miterlimit="10" stroke-width="2"/>
            </g>
            <path id="Trazado_826326" data-name="Trazado 826326" d="M367.868,198.308l1.223,7.472,2.305-3.873,2.305,3.873,1.257-7.472" transform="translate(-354.273 -198.308)" fill="none" stroke="#000" stroke-linecap="round" stroke-linejoin="round" stroke-miterlimit="10" stroke-width="2"/>
          </g>
          <g id="Grupo_1074295" data-name="Grupo 1074295" transform="translate(6.831)">
            <path id="Trazado_826327" data-name="Trazado 826327" d="M309.5,205.78l-2.644-7.472h0l-2.644,7.472" transform="translate(-304.214 -198.308)" fill="none" stroke="#000" stroke-linecap="round" stroke-linejoin="round" stroke-miterlimit="10" stroke-width="2"/>
            <line id="Línea_317" data-name="Línea 317" x2="3.959" transform="translate(0.63 5.632)" fill="none" stroke="#000" stroke-linecap="round" stroke-linejoin="round" stroke-miterlimit="10" stroke-width="2"/>
          </g>
        </g>
        <g id="Grupo_1074298" data-name="Grupo 1074298" transform="translate(6.023 5.061)">
          <line id="Línea_318" data-name="Línea 318" x2="12.84" transform="translate(3.923)" fill="none" stroke="#000" stroke-linecap="round" stroke-linejoin="round" stroke-miterlimit="10" stroke-width="2"/>
          <g id="Grupo_1074297" data-name="Grupo 1074297" transform="translate(0 16.585)">
            <line id="Línea_319" data-name="Línea 319" x2="20.685" fill="none" stroke="#000" stroke-linecap="round" stroke-linejoin="round" stroke-miterlimit="10" stroke-width="2"/>
            <line id="Línea_320" data-name="Línea 320" x2="4.25" transform="translate(0 3.826)" fill="none" stroke="#000" stroke-linecap="round" stroke-linejoin="round" stroke-miterlimit="10" stroke-width="2"/>
            <line id="Línea_321" data-name="Línea 321" x2="13.446" transform="translate(7.239 3.826)" fill="none" stroke="#000" stroke-linecap="round" stroke-linejoin="round" stroke-miterlimit="10" stroke-width="2"/>
            <line id="Línea_322" data-name="Línea 322" x2="11.038" transform="translate(9.647 7.652)" fill="none" stroke="#000" stroke-linecap="round" stroke-linejoin="round" stroke-miterlimit="10" stroke-width="2"/>
          </g>
          <line id="Línea_323" data-name="Línea 323" x2="3.914" transform="translate(9.647 28.062)" fill="none" stroke="#000" stroke-linecap="round" stroke-linejoin="round" stroke-miterlimit="10" stroke-width="2"/>
          <path id="Trazado_826328" data-name="Trazado 826328" d="M239.919,379.71v2.763a3.852,3.852,0,0,0,1.229,2.822l1.689,1.57a.642.642,0,0,0,.874,0l1.689-1.57a3.852,3.852,0,0,0,1.229-2.822V379.71a.642.642,0,0,0-.642-.642h-5.427A.642.642,0,0,0,239.919,379.71Z" transform="translate(-239.919 -355.149)" fill="#e9b665"/>
          <path id="Trazado_826329" data-name="Trazado 826329" d="M259.168,379.068h-1.9v2.442a3.852,3.852,0,0,1-1.23,2.822l-1.374,1.277,1.352,1.257a.642.642,0,0,0,.874,0l1.689-1.57a3.852,3.852,0,0,0,1.229-2.822V379.71A.642.642,0,0,0,259.168,379.068Z" transform="translate(-253.098 -355.149)" fill="#d8aa5e"/>
          <path id="Trazado_826330" data-name="Trazado 826330" d="M239.919,379.71v2.763a3.852,3.852,0,0,0,1.229,2.822l1.689,1.57a.642.642,0,0,0,.874,0l1.689-1.57a3.852,3.852,0,0,0,1.229-2.822V379.71a.642.642,0,0,0-.642-.642h-5.427A.642.642,0,0,0,239.919,379.71Z" transform="translate(-239.919 -355.149)" fill="none" stroke="#000" stroke-linecap="round" stroke-linejoin="round" stroke-miterlimit="10" stroke-width="2"/>
          <line id="Línea_324" data-name="Línea 324" x2="4.02" transform="translate(16.665 28.062)" fill="none" stroke="#000" stroke-linecap="round" stroke-linejoin="round" stroke-miterlimit="10" stroke-width="2"/>
          <line id="Línea_325" data-name="Línea 325" x2="11.038" transform="translate(9.647 31.888)" fill="none" stroke="#000" stroke-linecap="round" stroke-linejoin="round" stroke-miterlimit="10" stroke-width="2"/>
        </g>
      </g>
      <path id="Trazado_826331" data-name="Trazado 826331" d="M97.763,404.617v-5.879a.319.319,0,0,0-.319-.319H92.431a.319.319,0,0,0-.319.319v5.879a.424.424,0,0,0,.661.351l1.841-1.245a.577.577,0,0,1,.647,0l1.841,1.245A.424.424,0,0,0,97.763,404.617Z" transform="translate(-84.525 -356.883)" fill="#fe7d43"/>
      <g id="Grupo_1074300" data-name="Grupo 1074300" transform="translate(10.762 41.536)">
        <path id="Trazado_826332" data-name="Trazado 826332" d="M124.156,398.418H122a.319.319,0,0,1,.319.319v5.219l1.5,1.011a.424.424,0,0,0,.661-.351v-5.879A.319.319,0,0,0,124.156,398.418Z" transform="translate(-122 -398.418)" fill="#fd6930"/>
      </g>
      <path id="Trazado_826333" data-name="Trazado 826333" d="M97.763,404.617v-5.879a.319.319,0,0,0-.319-.319H92.431a.319.319,0,0,0-.319.319v5.879a.424.424,0,0,0,.661.351l1.841-1.245a.577.577,0,0,1,.647,0l1.841,1.245A.424.424,0,0,0,97.763,404.617Z" transform="translate(-84.525 -356.883)" fill="none" stroke="#000" stroke-linecap="round" stroke-linejoin="round" stroke-miterlimit="10" stroke-width="2"/>
    </g>
    <line id="Línea_326" data-name="Línea 326" y1="10.384" transform="translate(25.141 35.497)" fill="none" stroke="#000" stroke-linecap="round" stroke-linejoin="round" stroke-miterlimit="10" stroke-width="2"/>
    <line id="Línea_327" data-name="Línea 327" y1="24.279" transform="translate(25.141 7.5)" fill="none" stroke="#000" stroke-linecap="round" stroke-linejoin="round" stroke-miterlimit="10" stroke-width="2"/>
  </g>
</svg>
