<svg id="Grupo_22648" data-name="Grupo 22648" xmlns="http://www.w3.org/2000/svg" xmlns:xlink="http://www.w3.org/1999/xlink" width="295" height="279.05" viewBox="0 0 295 279.05">
  <defs>
    <clipPath id="clip-path">
      <rect id="Rectángulo_5589" data-name="Rectángulo 5589" width="272.316" height="121.312" rx="10.067" fill="none"/>
    </clipPath>
  </defs>
  <g id="Grupo_22617" data-name="Grupo 22617" transform="translate(22.684)">
    <g id="Grupo_22615" data-name="Grupo 22615" transform="translate(0 6.734)" opacity="0.12" style="mix-blend-mode: multiply;isolation: isolate">
      <rect id="Rectángulo_5587" data-name="Rectángulo 5587" width="272.316" height="272.316" rx="10.067"/>
    </g>
    <g id="Grupo_22616" data-name="Grupo 22616">
      <rect id="Rectángulo_5588" data-name="Rectángulo 5588" width="272.316" height="272.316" rx="10.067" fill="#039be5"/>
    </g>
  </g>
  <g id="Grupo_22647" data-name="Grupo 22647" transform="translate(0 15.101)">
    <g id="Grupo_22641" data-name="Grupo 22641" transform="translate(22.684 50.217)">
      <g id="Grupo_22618" data-name="Grupo 22618" transform="translate(74.538 92.895)">
        <path id="Trazado_5590" data-name="Trazado 5590" d="M268.237,281.591c2.094,17.958-10.144,34.139-27.335,36.146s-32.822-10.929-34.917-28.887,10.144-34.142,27.335-36.145S266.143,263.633,268.237,281.591Z" transform="translate(-129.563 -249.416)" fill="#2f2f2f"/>
        <path id="Trazado_5591" data-name="Trazado 5591" d="M245.607,280.675c2.094,17.958-10.144,34.142-27.335,36.145s-32.826-10.929-34.917-28.887,10.144-34.139,27.335-36.146S243.513,262.716,245.607,280.675Z" transform="translate(-183.123 -251.583)" fill="#2f2f2f"/>
      </g>
      <g id="Grupo_22623" data-name="Grupo 22623" transform="translate(0 85.686)">
        <g id="Grupo_22622" data-name="Grupo 22622" clip-path="url(#clip-path)">
          <g id="Grupo_22621" data-name="Grupo 22621" transform="translate(42.848 57.037)">
            <g id="Grupo_22619" data-name="Grupo 22619">
              <path id="Trazado_5592" data-name="Trazado 5592" d="M371.038,332.459c-8.168-9.228-22.214-31.641-37.384-43.2-30.755-23.433-58.975-22.369-58.975-22.369-21.015,1.421-40.839,8.269-56,19.147-11.912,8.548-37.607,33.146-44.253,44.778l16.309,6.733H358.214Z" transform="translate(-172.015 -265.2)" fill="#fff"/>
              <path id="Trazado_5593" data-name="Trazado 5593" d="M360.231,340.417l-168.445-.128-18.076-7.467.949-1.66c6.818-11.932,32.7-36.677,44.731-45.306,15.5-11.12,35.694-18.029,56.868-19.46,1.232-.044,29.234-.815,60.11,22.709,10.76,8.195,20.759,21.493,28.8,32.173,3.434,4.565,6.4,8.5,8.828,11.252l1.589,1.794ZM192.762,337.05H359.585l10.339-4.1c-2.175-2.633-4.66-5.932-7.451-9.646-7.912-10.514-17.756-23.6-28.146-31.52-29.866-22.752-57.609-22.082-57.891-22.022-20.507,1.384-40.088,8.074-55.083,18.83-11.242,8.067-35.024,30.785-42.764,42.606Z" transform="translate(-173.71 -266.384)" fill="#2f2f2f"/>
            </g>
            <path id="Trazado_5594" data-name="Trazado 5594" d="M341.532,337.544c-21.221-43.855-49.535-70.658-80.64-70.658s-59.42,26.8-80.64,70.658Z" transform="translate(-158.229 -265.194)" fill="#fff"/>
            <g id="Grupo_22620" data-name="Grupo 22620" transform="translate(19.339 34.568)">
              <path id="Trazado_5595" data-name="Trazado 5595" d="M346.1,316.116H179.454l1.168-2.417a198.935,198.935,0,0,1,22.756-37.048l2.636,2.1a192.332,192.332,0,0,0-21.177,34H340.718a194.429,194.429,0,0,0-20.089-32.614l2.66-2.067a201.06,201.06,0,0,1,21.645,35.63Z" transform="translate(-179.454 -276.651)" fill="#2f2f2f"/>
            </g>
          </g>
        </g>
      </g>
      <g id="Grupo_22624" data-name="Grupo 22624" transform="translate(115.859 138.298)">
        <path id="Trazado_5596" data-name="Trazado 5596" d="M251.418,279.827c0,7.872-12.43,14.255-27.762,14.255S195.9,287.7,195.9,279.827s12.427-14.258,27.759-14.258S251.418,271.952,251.418,279.827Z" transform="translate(-194.21 -263.886)" fill="#fff"/>
        <path id="Trazado_5597" data-name="Trazado 5597" d="M224.845,296.949c-16.514,0-29.449-7-29.449-15.938s12.935-15.941,29.449-15.941,29.442,7,29.442,15.941S241.356,296.949,224.845,296.949Zm0-28.513c-14.137,0-26.082,5.757-26.082,12.575s11.945,12.572,26.082,12.572,26.075-5.757,26.075-12.572S238.979,268.436,224.845,268.436Z" transform="translate(-195.396 -265.069)" fill="#2f2f2f"/>
      </g>
      <g id="Grupo_22625" data-name="Grupo 22625" transform="translate(126.986 109.334)">
        <rect id="Rectángulo_5590" data-name="Rectángulo 5590" width="33.272" height="45.065" rx="4.239" transform="translate(1.684 1.681)" fill="#fff"/>
        <path id="Trazado_5598" data-name="Trazado 5598" d="M219.386,304.9h-4.734A15.973,15.973,0,0,1,198.7,288.942V272.418a15.972,15.972,0,0,1,15.952-15.952h4.734a15.97,15.97,0,0,1,15.952,15.952v16.524A15.971,15.971,0,0,1,219.386,304.9Zm-4.734-45.064a12.6,12.6,0,0,0-12.585,12.585v16.524a12.6,12.6,0,0,0,12.585,12.588h4.734a12.6,12.6,0,0,0,12.585-12.588V272.418a12.6,12.6,0,0,0-12.585-12.585Z" transform="translate(-198.701 -256.466)" fill="#2f2f2f"/>
      </g>
      <g id="Grupo_22640" data-name="Grupo 22640" transform="translate(78.02)">
        <g id="Grupo_22639" data-name="Grupo 22639" transform="translate(1.714 2.076)">
          <g id="Grupo_22634" data-name="Grupo 22634">
            <path id="Trazado_5599" data-name="Trazado 5599" d="M195.54,302.37s-10.255-17.3-7.5-42.125c4.535-40.842,50.966-35.459,56.578-35.344,20.743.424,54.178,4.346,53.949,26.722-.252,24.49-5.713,57.555-6.518,61.433S210.839,329.341,195.54,302.37Z" transform="translate(-177.794 -224.608)" fill="#2f2f2f"/>
            <g id="Grupo_22632" data-name="Grupo 22632" transform="translate(0 70.257)">
              <g id="Grupo_22628" data-name="Grupo 22628">
                <g id="Grupo_22626" data-name="Grupo 22626">
                  <path id="Trazado_5600" data-name="Trazado 5600" d="M185.172,258.566a13.1,13.1,0,1,0,13.487-12.585A13.046,13.046,0,0,0,185.172,258.566Z" transform="translate(-183.482 -244.295)" fill="#fff"/>
                  <path id="Trazado_5601" data-name="Trazado 5601" d="M199.453,274.817c-.151,0-.3,0-.455-.007a14.745,14.745,0,0,1-10.309-4.609,14.541,14.541,0,0,1-4.016-10.508,14.8,14.8,0,0,1,25.53-9.605,14.522,14.522,0,0,1,4.017,10.508A14.746,14.746,0,0,1,199.453,274.817Zm-.017-25.978a11.369,11.369,0,0,0-11.4,10.955,11.184,11.184,0,0,0,3.094,8.09,11.435,11.435,0,0,0,19.719-7.39,11.19,11.19,0,0,0-3.094-8.09,11.378,11.378,0,0,0-7.969-3.559C199.672,248.843,199.55,248.839,199.436,248.839Z" transform="translate(-184.666 -245.476)" fill="#2f2f2f"/>
                </g>
                <g id="Grupo_22627" data-name="Grupo 22627" transform="translate(12.555 7.457)">
                  <path id="Trazado_5602" data-name="Trazado 5602" d="M196.637,256.832a6.853,6.853,0,0,0,.017-.832c-.007-.3-.027-.6-.061-.9-.013-.125.02-.333,0-.013a1.443,1.443,0,0,0-.04-.269c-.034-.2-.074-.4-.121-.593a8.572,8.572,0,0,0-.37-1.192c-.1-.266.084.172-.037-.088-.044-.094-.084-.185-.128-.276-.115-.219-.236-.434-.37-.643-.061-.088-.121-.172-.182-.259-.162-.232.108.114-.077-.1a7.311,7.311,0,0,0-.545-.572c-.084-.077-.175-.145-.259-.222-.172-.152.135.1.013.01-.047-.034-.094-.071-.141-.1a5.957,5.957,0,0,0-.72-.428l-.172-.084-.141-.064c.121.051.128.054.024.01-.155-.054-.3-.115-.461-.162a8.117,8.117,0,0,0-1.017-.246c-.024,0-.33-.051-.1-.02-.094-.013-.192-.024-.286-.034q-.3-.025-.606-.04a12.866,12.866,0,0,0-1.441.034,1.012,1.012,0,1,1,0-2.023c2.855-.209,5.771.508,7.568,2.872a9.257,9.257,0,0,1,1.687,5.107,7.89,7.89,0,0,1,0,1.128,1.042,1.042,0,0,1-1.013,1.013,1.02,1.02,0,0,1-1.01-1.013Z" transform="translate(-188.395 -247.691)" fill="#2f2f2f"/>
                </g>
              </g>
              <g id="Grupo_22631" data-name="Grupo 22631" transform="translate(102.255 1.05)">
                <g id="Grupo_22629" data-name="Grupo 22629">
                  <path id="Trazado_5603" data-name="Trazado 5603" d="M241.721,259.675a13.095,13.095,0,1,1-12.693-13.383A13.038,13.038,0,0,1,241.721,259.675Z" transform="translate(-213.854 -244.609)" fill="#fff"/>
                  <path id="Trazado_5604" data-name="Trazado 5604" d="M229.828,275.126c-.155,0-.306,0-.461-.007a14.671,14.671,0,1,1,11.2-24.719,14.518,14.518,0,0,1,4.017,10.5A14.742,14.742,0,0,1,229.828,275.126Zm-.024-25.974A11.305,11.305,0,1,0,241.221,260.8h0a11.177,11.177,0,0,0-3.094-8.087,11.357,11.357,0,0,0-7.966-3.559C230.044,249.151,229.923,249.151,229.8,249.151Z" transform="translate(-215.038 -245.788)" fill="#2f2f2f"/>
                </g>
                <g id="Grupo_22630" data-name="Grupo 22630" transform="translate(6.631 7.464)">
                  <path id="Trazado_5605" data-name="Trazado 5605" d="M217.013,256.708c-.111-3.34,1.609-6.845,4.791-8.134a10.127,10.127,0,0,1,5.2-.421,1.015,1.015,0,0,1,.707,1.242,1.037,1.037,0,0,1-1.242.707,7.987,7.987,0,0,0-3.791.29c-.064.023-.434.175-.212.077-.118.051-.239.108-.354.168a6.223,6.223,0,0,0-.7.428c-.239.165.078-.081-.138.108-.091.077-.178.151-.266.232-.175.165-.333.343-.492.525-.037.044-.071.088-.1.131.155-.192.067-.091.037-.044-.061.091-.128.178-.189.269-.131.2-.252.4-.364.613-.047.094-.094.189-.138.283-.034.071-.168.4-.051.1-.077.2-.151.394-.219.593a9.6,9.6,0,0,0-.29,1.1c-.034.162-.061.323-.088.485-.017.114-.115.327,0,0a1.036,1.036,0,0,0-.027.229,7.414,7.414,0,0,0-.054,1.023c.044,1.3-1.976,1.3-2.02,0Z" transform="translate(-217.008 -248.005)" fill="#2f2f2f"/>
                </g>
              </g>
            </g>
            <g id="Grupo_22633" data-name="Grupo 22633" transform="translate(22.868 13.188)">
              <rect id="Rectángulo_5591" data-name="Rectángulo 5591" width="109.59" height="82.748" rx="10.572" transform="matrix(0.01, -1, 1, 0.01, 1.327, 110.909)" fill="#fff"/>
              <path id="Trazado_5606" data-name="Trazado 5606" d="M240.3,341.6c-.128,0-.252,0-.38,0l-11.561-.118a37.318,37.318,0,0,1-36.9-37.65l.391-38.4a37.378,37.378,0,0,1,37.65-36.9l11.558.118a37.372,37.372,0,0,1,36.9,37.65l-.384,38.4A37.326,37.326,0,0,1,240.3,341.6ZM229.121,231.891a34.014,34.014,0,0,0-33.9,33.57l-.391,38.4a33.946,33.946,0,0,0,33.567,34.25l11.561.118c.114,0,.232,0,.347,0a33.955,33.955,0,0,0,33.907-33.566l.384-38.4a34,34,0,0,0-33.563-34.25l-11.558-.118C229.353,231.891,229.235,231.891,229.121,231.891Z" transform="translate(-191.458 -228.525)" fill="#2f2f2f"/>
            </g>
          </g>
          <g id="Grupo_22638" data-name="Grupo 22638" transform="translate(26.161 61.263)">
            <path id="Trazado_5607" data-name="Trazado 5607" d="M207.531,242.8l-4.724,18.913,9.922-.1Z" transform="translate(-167.892 -242.805)" fill="#ea80a2"/>
            <g id="Grupo_22635" data-name="Grupo 22635" transform="translate(0 15.722)">
              <path id="Trazado_5608" data-name="Trazado 5608" d="M213.248,258.792a10.425,10.425,0,1,1-9.491-11.279A10.422,10.422,0,0,1,213.248,258.792Z" transform="translate(-192.437 -247.474)" fill="#ea80a2"/>
              <path id="Trazado_5609" data-name="Trazado 5609" d="M230.194,258.792a10.425,10.425,0,1,1-9.494-11.279A10.427,10.427,0,0,1,230.194,258.792Z" transform="translate(-152.33 -247.474)" fill="#ea80a2"/>
            </g>
            <g id="Grupo_22636" data-name="Grupo 22636" transform="translate(31.232 31.309)">
              <path id="Trazado_5610" data-name="Trazado 5610" d="M202.275,252.61a8.184,8.184,0,0,0,16.248.165Z" transform="translate(-200.383 -250.906)" fill="#fff"/>
              <path id="Trazado_5611" data-name="Trazado 5611" d="M211.739,262.77h-.1A9.9,9.9,0,0,1,201.935,254l-.222-1.9,20.066.2-.256,1.892A9.91,9.91,0,0,1,211.739,262.77Zm-5.942-7.255a6.485,6.485,0,0,0,11.834.114Z" transform="translate(-201.713 -252.104)" fill="#2f2f2f"/>
            </g>
            <g id="Grupo_22637" data-name="Grupo 22637" transform="translate(8.36 2.404)">
              <path id="Trazado_5612" data-name="Trazado 5612" d="M204.5,248.513a4.793,4.793,0,1,1-4.586-4.99A4.789,4.789,0,0,1,204.5,248.513Z" transform="translate(-194.92 -243.519)" fill="#2f2f2f"/>
              <path id="Trazado_5613" data-name="Trazado 5613" d="M219.57,248.513a4.793,4.793,0,1,1-4.586-4.99A4.79,4.79,0,0,1,219.57,248.513Z" transform="translate(-159.258 -243.519)" fill="#2f2f2f"/>
            </g>
          </g>
        </g>
        <path id="Trazado_5614" data-name="Trazado 5614" d="M184.2,266.095c1.215,22.729,47.885,28.365,86.919-.047,0,0,15.3,19.6,29.072,23.688,0,0,8.73-41.775-8.663-55.467s-56.41-11.1-71.14-6.993C193.015,234.912,183.386,250.759,184.2,266.095Z" transform="translate(-184.157 -223.991)" fill="#2f2f2f"/>
      </g>
    </g>
    <g id="Grupo_22646" data-name="Grupo 22646">
      <g id="Grupo_22642" data-name="Grupo 22642" transform="translate(60.254)">
        <path id="Trazado_5615" data-name="Trazado 5615" d="M361.466,249.349a106.04,106.04,0,1,0-16.5,149.053A106.035,106.035,0,0,0,361.466,249.349ZM245.538,396.779a87.665,87.665,0,1,1,114.3-48A87.667,87.667,0,0,1,245.538,396.779Z" transform="translate(-170.952 -207.887)" fill="#fff"/>
        <path id="Trazado_5616" data-name="Trazado 5616" d="M279.985,424.491a107.622,107.622,0,1,1,67.22-23.584A107.575,107.575,0,0,1,279.985,424.491ZM279.776,212.5a104.3,104.3,0,1,0,81.566,39.095A103.85,103.85,0,0,0,279.776,212.5Zm.108,193.713a89.23,89.23,0,0,1-33.8-6.683h0a88.762,88.762,0,1,1,33.8,6.683Zm-32.523-9.8A85.982,85.982,0,1,0,200.28,284.3a86.081,86.081,0,0,0,47.081,112.113Z" transform="translate(-172.142 -209.076)" fill="#2f2f2f"/>
      </g>
      <g id="Grupo_22645" data-name="Grupo 22645" transform="translate(0 164.727)">
        <g id="Grupo_22643" data-name="Grupo 22643" transform="translate(56.193)">
          <path id="Trazado_5617" data-name="Trazado 5617" d="M171.436,275.514,192.685,258.5l12.172,15.2-21.037,16.843Z" transform="translate(-169.753 -256.823)" fill="#fff"/>
          <path id="Trazado_5618" data-name="Trazado 5618" d="M185.005,293.413a1.67,1.67,0,0,1-1.3-.613l-12.383-15.036a1.66,1.66,0,0,1-.377-1.242,1.7,1.7,0,0,1,.623-1.141l21.248-17.012a1.726,1.726,0,0,1,1.239-.357,1.691,1.691,0,0,1,1.128.619l12.171,15.2a1.682,1.682,0,0,1-.263,2.367l-21.035,16.844A1.7,1.7,0,0,1,185.005,293.413Zm-10-16.47,10.242,12.437,18.426-14.757-10.067-12.571Z" transform="translate(-170.936 -258.004)" fill="#2f2f2f"/>
        </g>
        <g id="Grupo_22644" data-name="Grupo 22644" transform="translate(0 14.633)">
          <path id="Rectángulo_5592" data-name="Rectángulo 5592" d="M2.933,0H25.666A2.934,2.934,0,0,1,28.6,2.934V69.251a2.934,2.934,0,0,1-2.934,2.934H2.934A2.934,2.934,0,0,1,0,69.251V2.933A2.933,2.933,0,0,1,2.933,0Z" transform="matrix(0.625, 0.781, -0.781, 0.625, 56.353, 0)" fill="#fff"/>
          <path id="Trazado_5619" data-name="Trazado 5619" d="M172.032,325.823a11.541,11.541,0,0,1-9.036-4.33h0l-5.528-6.9a11.58,11.58,0,0,1,1.8-16.255L200.2,265.572a11.58,11.58,0,0,1,16.251,1.8l5.528,6.909a11.552,11.552,0,0,1-1.8,16.248l-40.93,32.769A11.5,11.5,0,0,1,172.032,325.823Zm-6.41-6.434a8.208,8.208,0,0,0,11.518,1.276l40.93-32.769a8.191,8.191,0,0,0,1.276-11.514l-5.528-6.908A8.2,8.2,0,0,0,202.3,268.2L161.373,300.97a8.2,8.2,0,0,0-1.276,11.518Z" transform="translate(-152.608 -260.713)" fill="#2f2f2f"/>
        </g>
      </g>
    </g>
  </g>
</svg>
