<svg xmlns="http://www.w3.org/2000/svg" xmlns:xlink="http://www.w3.org/1999/xlink" width="295" height="302.295" viewBox="0 0 295 302.295">
  <defs>
    <clipPath id="clip-path">
      <rect id="Rectángulo_5599" data-name="Rectángulo 5599" width="295" height="155.134" rx="10.067" fill="none"/>
    </clipPath>
  </defs>
  <g id="Grupo_1074217" data-name="Grupo 1074217" transform="translate(-508.948 -132.141)">
    <g id="Grupo_22693" data-name="Grupo 22693" transform="translate(508.948 132.141)">
      <g id="Grupo_22691" data-name="Grupo 22691" transform="translate(0 7.294)" opacity="0.12" style="mix-blend-mode: multiply;isolation: isolate">
        <rect id="Rectángulo_5597" data-name="Rectángulo 5597" width="295" height="295.001" rx="10.067"/>
      </g>
      <g id="Grupo_22692" data-name="Grupo 22692">
        <rect id="Rectángulo_5598" data-name="Rectángulo 5598" width="295" height="295.001" rx="10.067" fill="#ffa726"/>
      </g>
    </g>
    <g id="Grupo_22762" data-name="Grupo 22762" transform="translate(508.948 143.085)">
      <g id="Grupo_22703" data-name="Grupo 22703" transform="translate(0 128.923)">
        <g id="Grupo_22702" data-name="Grupo 22702" clip-path="url(#clip-path)">
          <g id="Grupo_22701" data-name="Grupo 22701" transform="translate(-49.048 38.983)">
            <g id="Grupo_22694" data-name="Grupo 22694" transform="translate(90.819)">
              <path id="Trazado_5656" data-name="Trazado 5656" d="M521.144,199.912l31.693-18.087,39.726,50.368L566.1,259.324Z" transform="translate(-518.435 -179.464)" fill="#fff"/>
              <path id="Trazado_5657" data-name="Trazado 5657" d="M567.891,263.827,520.4,201.07l34.86-19.892,41.691,52.855Zm-42.074-61.645,42.424,56.065,23.867-24.469L554.342,185.9Z" transform="translate(-520.401 -181.178)" fill="#2f2f2f"/>
            </g>
            <g id="Grupo_22700" data-name="Grupo 22700" transform="translate(0 11.525)">
              <g id="Grupo_22695" data-name="Grupo 22695">
                <path id="Trazado_5658" data-name="Trazado 5658" d="M573.677,324.829c25.892-27.7,67.244-75.3,67.244-75.3l-50.485-64.545s-59.84,33.481-94.149,52.666Z" transform="translate(-493.417 -182.628)" fill="#fff"/>
                <path id="Trazado_5659" data-name="Trazado 5659" d="M575.724,329.249,495.5,238.878l97.494-54.54L645.367,251.3l-.985,1.138c-.416.474-41.669,47.939-67.291,75.351Zm-74.487-89.4,74.556,83.988c23.389-25.129,58.53-65.4,64.847-72.656l-48.592-62.13Z" transform="translate(-495.5 -184.338)"/>
              </g>
              <g id="Grupo_22699" data-name="Grupo 22699" transform="translate(103.276 59.124)">
                <g id="Grupo_22696" data-name="Grupo 22696" transform="translate(20.124)">
                  <path id="Trazado_5660" data-name="Trazado 5660" d="M537.911,210.672a5.232,5.232,0,1,1,1.543-7.236A5.232,5.232,0,0,1,537.911,210.672Z" transform="translate(-528.013 -199.222)" fill="#fff"/>
                  <path id="Trazado_5661" data-name="Trazado 5661" d="M536.4,214.661a7.048,7.048,0,1,1,3.829-1.134h0A7.033,7.033,0,0,1,536.4,214.661Zm-.018-10.46a3.362,3.362,0,0,0-1.846.551,3.406,3.406,0,1,0,3.706,5.715h0a3.405,3.405,0,0,0-1.142-6.189A3.468,3.468,0,0,0,536.38,204.2Z" transform="translate(-529.334 -200.549)"/>
                </g>
                <g id="Grupo_22697" data-name="Grupo 22697" transform="translate(10.278 12.032)">
                  <path id="Trazado_5662" data-name="Trazado 5662" d="M535.211,213.965a5.23,5.23,0,1,1,1.543-7.236A5.229,5.229,0,0,1,535.211,213.965Z" transform="translate(-525.313 -202.526)" fill="#fff"/>
                  <path id="Trazado_5663" data-name="Trazado 5663" d="M533.7,217.949a7.045,7.045,0,1,1,3.83-1.131h0A7.029,7.029,0,0,1,533.7,217.949Zm-.018-10.457a3.407,3.407,0,1,0,1.86,6.266h0a3.406,3.406,0,0,0-1.86-6.266Z" transform="translate(-526.634 -203.848)"/>
                </g>
                <g id="Grupo_22698" data-name="Grupo 22698" transform="translate(0 23.403)">
                  <path id="Trazado_5664" data-name="Trazado 5664" d="M532.4,217.082a5.23,5.23,0,1,1,1.543-7.232A5.23,5.23,0,0,1,532.4,217.082Z" transform="translate(-522.492 -205.646)" fill="#fff"/>
                  <path id="Trazado_5665" data-name="Trazado 5665" d="M530.89,221.071a7.056,7.056,0,1,1,3.826-1.138A7.075,7.075,0,0,1,530.89,221.071Zm-.022-10.464a3.408,3.408,0,1,0,2.863,1.554A3.387,3.387,0,0,0,530.869,210.607Z" transform="translate(-523.816 -206.965)"/>
                </g>
              </g>
            </g>
          </g>
        </g>
      </g>
      <g id="Grupo_22761" data-name="Grupo 22761" transform="translate(54.978)">
        <g id="Grupo_22708" data-name="Grupo 22708" transform="translate(89.695 63.377)">
          <g id="Grupo_22707" data-name="Grupo 22707">
            <g id="Grupo_22704" data-name="Grupo 22704" transform="translate(67.291 6.249)">
              <path id="Trazado_5666" data-name="Trazado 5666" d="M569.239,188.776l-2.174-1.663c12.419-16.208,28.142-35.028,32.632-32.683a3.49,3.49,0,0,1,1.812,2.59c1.105,5.949-8.469,20.122-17.839,30.771l-2.05-1.805c11.62-13.218,17.871-24.852,17.2-28.47-.091-.507-.3-.613-.39-.664h-.011C595.571,156.852,581.023,173.4,569.239,188.776Z" transform="translate(-567.065 -154.231)" fill="#1a2e35"/>
            </g>
            <g id="Grupo_22705" data-name="Grupo 22705" transform="translate(70.912)">
              <path id="Trazado_5667" data-name="Trazado 5667" d="M572.268,177.2s18.947-26.953,26.964-24.1c10.909,3.877-13.83,30.418-21.57,39.029S564.386,186.512,572.268,177.2Z" transform="translate(-567.044 -151.535)" fill="#f6f6f6"/>
              <path id="Trazado_5668" data-name="Trazado 5668" d="M574.1,197.145a5.043,5.043,0,0,1-3.257-1.24c-3.808-3.326-4.041-12.142,1.349-18.553,3.344-4.756,19.983-27.576,28.51-24.56a5.1,5.1,0,0,1,3.454,3.625c1.827,7.236-10.07,21.675-23.2,36.206l-1.269,1.4C577.527,196.434,575.612,197.145,574.1,197.145Zm24.768-41.925c-5.635,0-17.765,14.221-24.473,23.754l-.077.1c-4.581,5.416-4.183,12.583-1.678,14.771,1.729,1.51,3.884-.383,5.011-1.648l1.276-1.408c6.642-7.353,24.294-26.887,22.576-33.7a2.37,2.37,0,0,0-1.721-1.718A2.665,2.665,0,0,0,598.87,155.221Z" transform="translate(-568.058 -152.518)" fill="#2f2f2f"/>
            </g>
            <g id="Grupo_22706" data-name="Grupo 22706" transform="translate(0 15.823)">
              <path id="Trazado_5669" data-name="Trazado 5669" d="M605.7,210.961s4.745-15.752,5.6-19.815,6.594-19.925,6.594-19.925.211-.766.5-1.915c.627-2.549,1.6-6.981,1.4-9.049-.3-3-3.508-4.041-7.17-1.875s-17.445,29.046-17.445,29.046l-45.969,71.033,60.463,16.759s5.456-14.913,8.535-21.985,12.692-28.189,14.811-32.584.46-16.219-.853-22.872-3.242-22.332-3.242-22.332l-8.319-7.141" transform="translate(-547.048 -155.861)" fill="#fff"/>
              <path id="Trazado_5670" data-name="Trazado 5670" d="M612.091,277.873l-63.476-17.594L595.6,187.685c2.261-4.431,14.086-27.226,17.889-29.48,2.451-1.452,4.92-1.747,6.784-.806a4.5,4.5,0,0,1,2.451,3.716c.2,2.075-.587,6-1.331,9.092l1.667-1.944,8.721,7.488.066.525c.018.157,1.944,15.7,3.228,22.237.831,4.205,3.341,18.349.744,23.729-2.032,4.205-11.66,25.344-14.789,32.537-3.027,6.952-8.451,21.759-8.5,21.909Zm-59.158-19.235,57.458,15.927c1.357-3.68,5.573-15.016,8.126-20.88,3.14-7.207,12.8-28.412,14.837-32.632,1.773-3.673.587-14.151-.967-22.011-1.185-6.022-2.841-19.079-3.195-21.905l-7.845-6.74c-.022.077-.04.153-.058.23-.288,1.174-.507,1.955-.507,1.955-.088.255-5.744,15.916-6.568,19.841-.865,4.074-5.446,19.286-5.635,19.932l-2.623-.791c.051-.157,4.742-15.741,5.577-19.706.868-4.1,6.375-19.356,6.642-20.1h0s.2-.726.456-1.78c1.007-4.089,1.506-7.218,1.368-8.589a1.809,1.809,0,0,0-.959-1.55c-1-.5-2.55-.23-4.154.719-2.29,1.357-11.274,17.477-16.919,28.492Z" transform="translate(-548.615 -156.856)" fill="#1a2e35"/>
            </g>
          </g>
        </g>
        <g id="Grupo_22760" data-name="Grupo 22760" transform="translate(0)">
          <g id="Grupo_22755" data-name="Grupo 22755">
            <rect id="Rectángulo_5600" data-name="Rectángulo 5600" width="165.811" height="238.718" rx="4.731" transform="translate(18.303 20.464) rotate(4.397)" fill="#2f2f2f"/>
            <g id="Grupo_22753" data-name="Grupo 22753" transform="translate(16.154 37.433)">
              <rect id="Rectángulo_5601" data-name="Rectángulo 5601" width="140.858" height="193.98" transform="matrix(0.997, 0.075, -0.075, 0.997, 14.619, 0)" fill="#fff"/>
              <g id="Grupo_22747" data-name="Grupo 22747" transform="translate(20.861 10.677)">
                <g id="Grupo_22709" data-name="Grupo 22709">
                  <rect id="Rectángulo_5602" data-name="Rectángulo 5602" width="105.134" height="140.179" transform="translate(11.249 1.13) rotate(4.139)" fill="#fff"/>
                  <path id="Trazado_5671" data-name="Trazado 5671" d="M641.14,298l-106.969-7.743,10.271-141.92,106.969,7.743Zm-104.708-9.7,102.753,7.437,9.964-137.7L546.4,150.593Z" transform="translate(-534.171 -148.332)" fill="#2f2f2f"/>
                </g>
                <g id="Grupo_22746" data-name="Grupo 22746" transform="translate(3.957 15.251)">
                  <g id="Grupo_22710" data-name="Grupo 22710" transform="translate(0 89.413)">
                    <path id="Trazado_5672" data-name="Trazado 5672" d="M632.1,220.009c-11.766-25.476-27.711-41.334-46.2-42.672-18.459-1.335-35.63,12.145-50.277,35.692Z" transform="translate(-534.263 -176.454)" fill="#fff"/>
                    <path id="Trazado_5673" data-name="Trazado 5673" d="M634.38,221.474,535.256,214.3l.693-1.116c15.486-24.885,33.124-37.358,51.01-36.064,18.229,1.32,34.433,16.237,46.859,43.132ZM538,212.907,631.8,219.7c-12.083-25.571-27.613-39.74-44.963-40.995C569.846,177.474,552.974,189.295,538,212.907Z" transform="translate(-535.256 -177.029)" fill="#2f2f2f"/>
                  </g>
                  <g id="Grupo_22745" data-name="Grupo 22745" transform="translate(12.425)">
                    <g id="Grupo_22733" data-name="Grupo 22733">
                      <g id="Grupo_22732" data-name="Grupo 22732">
                        <g id="Grupo_22724" data-name="Grupo 22724">
                          <g id="Grupo_22711" data-name="Grupo 22711" transform="translate(14.683 15.131)">
                            <path id="Trazado_5674" data-name="Trazado 5674" d="M546.2,193.611a26.468,26.468,0,0,1-2.218-21.26c3.873-11.864,26.825-16.518,29.466-15.57s12.878,2.2,12.878,2.2,12.321.846,13.039,13.061-5.708,25.983-6.248,27.887S552.848,207.6,546.2,193.611Z" transform="translate(-542.688 -156.662)" fill="#2f2f2f"/>
                          </g>
                          <g id="Grupo_22712" data-name="Grupo 22712" transform="translate(31.227 68.871)">
                            <rect id="Rectángulo_5603" data-name="Rectángulo 5603" width="27.335" height="16.343" rx="1.847" transform="matrix(0.063, -0.998, 0.998, 0.063, 0.381, 27.661)" fill="#fff"/>
                            <path id="Trazado_5675" data-name="Trazado 5675" d="M554.21,200.269a7.533,7.533,0,0,1-6.97-7.984l.875-13.834a7.539,7.539,0,0,1,7.991-7.039l2.863.182a7.549,7.549,0,0,1,7.039,7.991l-.875,13.834a7.539,7.539,0,0,1-7.991,7.035l-2.863-.179Zm4.716-27.088-.058,0L556,172.995a5.952,5.952,0,0,0-6.306,5.558l-.875,13.834a5.951,5.951,0,0,0,5.5,6.3l.055,0,2.863.179a5.95,5.95,0,0,0,6.31-5.555l.875-13.834a5.958,5.958,0,0,0-5.5-6.3Z" transform="translate(-547.225 -171.397)" fill="#2f2f2f"/>
                          </g>
                          <g id="Grupo_22721" data-name="Grupo 22721" transform="translate(7.446 48.141)">
                            <g id="Grupo_22716" data-name="Grupo 22716">
                              <g id="Grupo_22713" data-name="Grupo 22713">
                                <path id="Trazado_5676" data-name="Trazado 5676" d="M540.956,171.747a6.541,6.541,0,1,0,7.174-5.781A6.515,6.515,0,0,0,540.956,171.747Z" transform="translate(-540.129 -165.138)" fill="#fff"/>
                                <path id="Trazado_5677" data-name="Trazado 5677" d="M547.516,180.254c-.073,0-.15-.011-.223-.018a7.318,7.318,0,0,1-4.938-2.648,7.2,7.2,0,0,1-1.612-5.347,7.335,7.335,0,1,1,6.773,8.013Zm.93-12.94a5.729,5.729,0,0,0-6.127,5.092h0a5.62,5.62,0,0,0,1.262,4.176,5.722,5.722,0,1,0,5.041-9.253Z" transform="translate(-540.704 -165.713)" fill="#2f2f2f"/>
                              </g>
                              <g id="Grupo_22715" data-name="Grupo 22715" transform="translate(6.446 3.662)">
                                <g id="Grupo_22714" data-name="Grupo 22714">
                                  <path id="Trazado_5678" data-name="Trazado 5678" d="M546.288,171.517a4.043,4.043,0,0,0,.04-.416q.011-.224,0-.449c0-.062.022-.164,0-.007a.566.566,0,0,0-.011-.135c-.007-.1-.022-.2-.036-.3a4.3,4.3,0,0,0-.142-.609c-.04-.135.036.091-.014-.044l-.055-.142a3.483,3.483,0,0,0-.161-.332l-.08-.139c-.073-.12.047.062-.036-.051s-.161-.208-.252-.306l-.12-.12c-.08-.08.062.055.007.007l-.069-.058a3.192,3.192,0,0,0-.343-.241l-.084-.047-.066-.036c.058.029.062.033.011.007-.073-.033-.149-.069-.222-.1a3.6,3.6,0,0,0-.5-.157c-.011,0-.161-.04-.051-.015l-.142-.025c-.1-.018-.2-.033-.3-.044a6.8,6.8,0,0,0-.718-.037.511.511,0,0,1-.471-.54.517.517,0,0,1,.543-.467,4.172,4.172,0,0,1,3.666,1.7,4.593,4.593,0,0,1,.657,2.6,3.625,3.625,0,0,1-.044.562.521.521,0,0,1-.54.471.51.51,0,0,1-.467-.54Z" transform="translate(-542.472 -166.717)" fill="#2f2f2f"/>
                                </g>
                              </g>
                            </g>
                            <g id="Grupo_22720" data-name="Grupo 22720" transform="translate(54.26 4.458)">
                              <g id="Grupo_22717" data-name="Grupo 22717">
                                <path id="Trazado_5679" data-name="Trazado 5679" d="M568.85,174.312a6.543,6.543,0,1,1-5.843-7.127A6.521,6.521,0,0,1,568.85,174.312Z" transform="translate(-555.006 -166.366)" fill="#fff"/>
                                <path id="Trazado_5680" data-name="Trazado 5680" d="M562.4,181.472c-.077,0-.153-.011-.226-.018a7.308,7.308,0,0,1-4.938-2.651,7.2,7.2,0,0,1-1.612-5.347,7.385,7.385,0,0,1,8.042-6.488,7.308,7.308,0,0,1,4.938,2.652,7.191,7.191,0,0,1,1.612,5.343A7.319,7.319,0,0,1,562.4,181.472Zm.926-12.94a5.726,5.726,0,0,0-6.127,5.088,5.631,5.631,0,0,0,1.262,4.176,5.756,5.756,0,0,0,10.176-3h0a5.623,5.623,0,0,0-1.258-4.172,5.71,5.71,0,0,0-3.873-2.079Z" transform="translate(-555.581 -166.935)" fill="#2f2f2f"/>
                              </g>
                              <g id="Grupo_22719" data-name="Grupo 22719" transform="translate(3.223 3.666)">
                                <g id="Grupo_22718" data-name="Grupo 22718">
                                  <path id="Trazado_5681" data-name="Trazado 5681" d="M556.465,172a4.2,4.2,0,0,1,2.681-3.881,5.109,5.109,0,0,1,2.611-.022.513.513,0,0,1,.306.646.521.521,0,0,1-.646.31,3.939,3.939,0,0,0-1.9.007c-.033.007-.222.069-.106.029-.062.022-.124.047-.186.069a3.486,3.486,0,0,0-.365.19c-.124.073.04-.036-.073.047-.047.036-.095.069-.138.109a3.366,3.366,0,0,0-.266.244l-.055.058c.084-.088.037-.04.018-.018l-.1.128a2.777,2.777,0,0,0-.2.292l-.08.135c-.018.033-.1.193-.026.047-.047.095-.091.19-.131.288a4.64,4.64,0,0,0-.186.536c-.022.077-.04.157-.058.237-.015.058-.069.16,0,0-.011.033-.015.08-.022.113a3.969,3.969,0,0,0-.062.507c-.026.653-1.032.576-1.007-.073Z" transform="translate(-556.465 -167.94)" fill="#2f2f2f"/>
                                </g>
                              </g>
                            </g>
                          </g>
                          <g id="Grupo_22722" data-name="Grupo 22722" transform="translate(19.734 20.838)">
                            <path id="Rectángulo_5604" data-name="Rectángulo 5604" d="M4.875,0h45a4.876,4.876,0,0,1,4.876,4.876V36.464a4.876,4.876,0,0,1-4.876,4.876h-45A4.875,4.875,0,0,1,0,36.464V4.875A4.875,4.875,0,0,1,4.875,0Z" transform="matrix(0.082, -0.997, 0.997, 0.082, 0, 54.563)" fill="#fff"/>
                            <path id="Trazado_5682" data-name="Trazado 5682" d="M567.234,215.082l-.193-.015-5.755-.474A18.6,18.6,0,0,1,544.3,194.556l1.576-19.122a18.444,18.444,0,0,1,6.518-12.627,18.732,18.732,0,0,1,13.524-4.358l5.755.474a18.63,18.63,0,0,1,16.985,20.041l-1.579,19.122a18.63,18.63,0,0,1-19.848,17Zm-1.619-55.065a17.039,17.039,0,0,0-18.152,15.548l-1.579,19.119a17.009,17.009,0,0,0,15.534,18.331l5.755.474A17.043,17.043,0,0,0,585.5,197.955l1.576-19.122a17.037,17.037,0,0,0-15.534-18.327l-5.755-.474Z" transform="translate(-543.631 -157.778)" fill="#2f2f2f"/>
                          </g>
                          <g id="Grupo_22723" data-name="Grupo 22723">
                            <path id="Trazado_5683" data-name="Trazado 5683" d="M607.132,180.938c-1.3-2.123-6.175-5.846-10.044-7.9,2.177-18.51-46.75-32.624-38.241-5.106,0,0-15.9-8.166-19.25-.146-8.141,19.505,39.171,29.24,53.968,12.477,2.765,1.266,6.106,3.56,6.525,7.364.73,6.605,1.368,21.143,1.368,21.143a37.77,37.77,0,0,1,2.619-6.233C605.637,199.725,609,184,607.132,180.938Z" transform="translate(-538.663 -152.514)" fill="#2f2f2f"/>
                          </g>
                        </g>
                        <g id="Grupo_22725" data-name="Grupo 22725" transform="translate(21.25 47.271)">
                          <path id="Trazado_5684" data-name="Trazado 5684" d="M545.072,168.154s2.721,5.558,7.958,7.783,7.7-1.648,12.116-1.419,7.254.47,10.653,3.549,8.352-3.381,10.723-11.066.879,15.789-4.953,22.175-12.576,7.17-20.877,5.89-14.126-6.944-15.552-12.594S545.072,168.154,545.072,168.154Z" transform="translate(-544.489 -165.474)" fill="#2f2f2f"/>
                        </g>
                        <g id="Grupo_22731" data-name="Grupo 22731" transform="translate(26.879 45.593)">
                          <g id="Grupo_22726" data-name="Grupo 22726" transform="translate(12.815)">
                            <path id="Trazado_5685" data-name="Trazado 5685" d="M552.582,165.014l-3.035,9.254,4.947.309Z" transform="translate(-549.546 -165.014)" fill="#2f2f2f"/>
                          </g>
                          <g id="Grupo_22727" data-name="Grupo 22727" transform="translate(11.414 16.215)">
                            <path id="Trazado_5686" data-name="Trazado 5686" d="M549.162,169.46a4.088,4.088,0,0,0,8.09.667Z" transform="translate(-549.162 -169.46)" fill="#fff"/>
                          </g>
                          <g id="Grupo_22730" data-name="Grupo 22730" transform="translate(0 0.235)">
                            <g id="Grupo_22728" data-name="Grupo 22728">
                              <path id="Trazado_5687" data-name="Trazado 5687" d="M550.8,167.749a2.394,2.394,0,1,1-2.1-2.655A2.394,2.394,0,0,1,550.8,167.749Z" transform="translate(-546.032 -165.079)" fill="#2f2f2f"/>
                            </g>
                            <g id="Grupo_22729" data-name="Grupo 22729" transform="translate(25.276 1.831)">
                              <path id="Trazado_5688" data-name="Trazado 5688" d="M557.738,168.248a2.4,2.4,0,1,1-2.1-2.651A2.391,2.391,0,0,1,557.738,168.248Z" transform="translate(-552.963 -165.581)" fill="#2f2f2f"/>
                            </g>
                          </g>
                        </g>
                      </g>
                    </g>
                    <g id="Grupo_22744" data-name="Grupo 22744" transform="translate(23.838 81.129)">
                      <g id="Grupo_22734" data-name="Grupo 22734">
                        <path id="Rectángulo_5605" data-name="Rectángulo 5605" d="M2.2,0H28.884a2.2,2.2,0,0,1,2.2,2.2V17.367a2.456,2.456,0,0,1-2.456,2.456H2.2a2.2,2.2,0,0,1-2.2-2.2V2.2A2.2,2.2,0,0,1,2.2,0Z" transform="translate(1.67 0.24) rotate(4.14)" fill="#fff"/>
                        <path id="Trazado_5689" data-name="Trazado 5689" d="M567.528,197.163l-14.206-1.028a8.77,8.77,0,0,1-8.1-9.366l.281-3.888a8.768,8.768,0,0,1,9.366-8.1l15.121,1.094a8.77,8.77,0,0,1,8.1,9.366l-.215,2.972A9.689,9.689,0,0,1,567.528,197.163Zm-12.776-20.8a7.174,7.174,0,0,0-7.666,6.631l-.281,3.892a7.172,7.172,0,0,0,6.634,7.666l14.206,1.029a8.1,8.1,0,0,0,8.647-7.48l.215-2.976a7.172,7.172,0,0,0-6.631-7.666Z" transform="translate(-545.199 -174.758)" fill="#2f2f2f"/>
                      </g>
                      <g id="Grupo_22743" data-name="Grupo 22743" transform="translate(2.959 0.854)">
                        <g id="Grupo_22735" data-name="Grupo 22735" transform="translate(0 1.12)">
                          <path id="Trazado_5690" data-name="Trazado 5690" d="M546.01,191.343a8.08,8.08,0,0,0,.788.751l1.215-16.8a7.634,7.634,0,0,0-.886.631Z" transform="translate(-546.01 -175.299)" fill="#2f2f2f"/>
                        </g>
                        <g id="Grupo_22736" data-name="Grupo 22736" transform="translate(3.377)">
                          <path id="Trazado_5691" data-name="Trazado 5691" d="M546.936,194.322c.27.087.547.153.828.215l1.415-19.545a8.161,8.161,0,0,0-.85.091Z" transform="translate(-546.936 -174.992)" fill="#2f2f2f"/>
                        </g>
                        <g id="Grupo_22737" data-name="Grupo 22737" transform="translate(7.116 0.098)">
                          <rect id="Rectángulo_5606" data-name="Rectángulo 5606" width="19.823" height="0.839" transform="translate(0 19.771) rotate(-85.863)" fill="#2f2f2f"/>
                        </g>
                        <g id="Grupo_22738" data-name="Grupo 22738" transform="translate(11.371 0.406)">
                          <rect id="Rectángulo_5607" data-name="Rectángulo 5607" width="19.823" height="0.839" transform="translate(0 19.771) rotate(-85.861)" fill="#2f2f2f"/>
                        </g>
                        <g id="Grupo_22739" data-name="Grupo 22739" transform="translate(14.974 0.666)">
                          <rect id="Rectángulo_5608" data-name="Rectángulo 5608" width="19.823" height="0.839" transform="translate(0 19.771) rotate(-85.861)" fill="#2f2f2f"/>
                        </g>
                        <g id="Grupo_22740" data-name="Grupo 22740" transform="translate(18.882 0.949)">
                          <rect id="Rectángulo_5609" data-name="Rectángulo 5609" width="19.823" height="0.839" transform="translate(0 19.772) rotate(-85.863)" fill="#2f2f2f"/>
                        </g>
                        <g id="Grupo_22741" data-name="Grupo 22741" transform="translate(22.244 1.463)">
                          <path id="Trazado_5692" data-name="Trazado 5692" d="M552.109,194.621a7.491,7.491,0,0,0,.857-.2l1.353-18.707c-.266-.12-.54-.226-.817-.321Z" transform="translate(-552.109 -175.393)" fill="#2f2f2f"/>
                        </g>
                        <g id="Grupo_22742" data-name="Grupo 22742" transform="translate(25.29 3.06)">
                          <path id="Trazado_5693" data-name="Trazado 5693" d="M552.944,192.229a7.73,7.73,0,0,0,.883-.653l1.025-14.99a8.57,8.57,0,0,0-.788-.755Z" transform="translate(-552.944 -175.831)" fill="#2f2f2f"/>
                        </g>
                      </g>
                    </g>
                  </g>
                </g>
              </g>
              <g id="Grupo_22752" data-name="Grupo 22752" transform="translate(13.599 160.056)">
                <g id="Grupo_22748" data-name="Grupo 22748" transform="translate(92.632 6.302)">
                  <path id="Trazado_5694" data-name="Trazado 5694" d="M570.488,191.288l-4.22,6.952-8.419.588,5.654,6.019-1.963,7.823,7.714-3.232,7.205,4.246-.886-8.017,6.416-5.2-8.261-1.723Z" transform="translate(-556.859 -190.3)" fill="#fff"/>
                  <path id="Trazado_5695" data-name="Trazado 5695" d="M577.732,215.256l-7.794-4.592-8.341,3.494,2.123-8.465-6.142-6.536,9.144-.638,4.552-7.5,3.5,8.049,8.972,1.867-6.97,5.65Zm-7.725-5.609,6.62,3.9-.817-7.36,5.868-4.749-7.557-1.576L571.138,193l-3.884,6.4-7.7.54,5.164,5.5-1.8,7.178Z" transform="translate(-557.578 -191.017)" fill="#2f2f2f"/>
                </g>
                <g id="Grupo_22749" data-name="Grupo 22749" transform="translate(61.755 4.198)">
                  <path id="Trazado_5696" data-name="Trazado 5696" d="M562.022,190.712l-4.22,6.952-8.418.588,5.653,6.019-1.963,7.823,7.714-3.232,7.205,4.246-.886-8.017,6.416-5.2-8.261-1.723Z" transform="translate(-548.393 -189.72)" fill="#fff"/>
                  <path id="Trazado_5697" data-name="Trazado 5697" d="M569.266,214.683l-7.794-4.592-8.341,3.5,2.123-8.469-6.142-6.536,9.14-.638,4.555-7.506,3.5,8.053,8.969,1.871-6.966,5.646Zm-7.721-5.609,6.616,3.9-.817-7.36,5.865-4.752-7.553-1.572-2.983-6.871-3.884,6.4-7.7.54,5.164,5.5-1.8,7.181Z" transform="translate(-549.112 -190.44)" fill="#2f2f2f"/>
                </g>
                <g id="Grupo_22750" data-name="Grupo 22750" transform="translate(30.877 2.101)">
                  <path id="Trazado_5698" data-name="Trazado 5698" d="M553.556,190.136l-4.22,6.952-8.419.588,5.653,6.019-1.963,7.823,7.714-3.232,7.2,4.247-.886-8.017,6.416-5.2L556.8,197.6Z" transform="translate(-539.927 -189.147)" fill="#fff"/>
                  <path id="Trazado_5699" data-name="Trazado 5699" d="M560.8,214.108l-7.794-4.6-8.341,3.5,2.126-8.465-6.142-6.539,9.14-.638,4.556-7.5,3.5,8.049,8.968,1.871-6.97,5.646Zm-7.721-5.613,6.616,3.9-.813-7.36,5.865-4.749-7.55-1.576-2.987-6.868-3.884,6.4-7.7.536,5.164,5.5-1.805,7.181Z" transform="translate(-540.646 -189.865)" fill="#2f2f2f"/>
                </g>
                <g id="Grupo_22751" data-name="Grupo 22751">
                  <path id="Trazado_5700" data-name="Trazado 5700" d="M545.09,189.56l-4.22,6.952-8.418.588,5.654,6.019-1.963,7.823,7.714-3.232,7.206,4.247-.886-8.017,6.417-5.2-8.262-1.722Z" transform="translate(-531.462 -188.57)" fill="#fff"/>
                  <path id="Trazado_5701" data-name="Trazado 5701" d="M552.331,213.532l-7.794-4.592-8.341,3.494,2.123-8.465-6.138-6.539,9.144-.635,4.555-7.506,3.494,8.053,8.972,1.867-6.973,5.649Zm-7.721-5.613,6.616,3.9-.813-7.36,5.864-4.749-7.553-1.576-2.983-6.868-3.884,6.4-7.7.536,5.164,5.5-1.8,7.178Z" transform="translate(-532.18 -189.289)" fill="#2f2f2f"/>
                </g>
              </g>
            </g>
            <g id="Grupo_22754" data-name="Grupo 22754" transform="translate(59.612)">
              <path id="Trazado_5702" data-name="Trazado 5702" d="M610.847,156.136l-10.041-.773c.073-10.267-7.065-18.936-16.635-19.669s-18.025,6.722-19.513,16.89l-9.971-.766a12.836,12.836,0,0,0-1.969,25.6l56.159,4.318a12.836,12.836,0,1,0,1.97-25.6Zm-27.365-11.47c5.015.387,8.8,4.76,9.071,10.063l-19.575-1.506C574.054,148.025,578.467,144.283,583.482,144.666Z" transform="translate(-539.044 -133.813)" fill="#fff"/>
              <path id="Trazado_5703" data-name="Trazado 5703" d="M611.2,184.921c-.372,0-.751-.015-1.131-.044L553.9,180.559a14.659,14.659,0,0,1,2.243-29.232l8.338.642c2.287-10.267,11.284-17.576,21.15-16.766,9.829.755,17.576,9.3,18.269,19.8l8.407.646a14.66,14.66,0,0,1-1.112,29.276ZM555.018,154.93a11.012,11.012,0,0,0-.839,21.993l56.163,4.318a11.012,11.012,0,0,0,1.689-21.96l-11.737-.9.011-1.7c.066-9.355-6.5-17.193-14.95-17.842-8.487-.653-16.216,6.084-17.569,15.337l-.252,1.685-11.667-.9C555.584,154.941,555.3,154.93,555.018,154.93Zm40.783,3.1-23.707-1.824.423-2.028c1.269-6.149,6.594-10.449,12.426-10h0c5.817.449,10.438,5.515,10.752,11.788Zm-19.064-5.124,14.983,1.152a7.806,7.806,0,0,0-14.983-1.152Z" transform="translate(-540.367 -135.141)" fill="#2f2f2f"/>
            </g>
          </g>
          <g id="Grupo_22759" data-name="Grupo 22759" transform="translate(160.483 96.453)">
            <g id="Grupo_22756" data-name="Grupo 22756">
              <path id="Trazado_5704" data-name="Trazado 5704" d="M570.753,189.86s-3.764-1.82-1.78-7.933,10-21.785,18.116-19.79S577.942,192.216,570.753,189.86Z" transform="translate(-567.039 -160.59)" fill="#f6f6f6"/>
              <path id="Trazado_5705" data-name="Trazado 5705" d="M572.66,192.366a4.369,4.369,0,0,1-1.349-.208l-.168-.069c-1.674-.81-4.348-3.855-2.487-9.585,1.521-4.7,9.811-23.127,19.746-20.7a3.967,3.967,0,0,1,2.961,2.987c1.557,5.916-6,18.386-11.857,23.9C576.917,191.137,574.619,192.366,572.66,192.366Zm-.394-2.779c1.16.274,3.144-.788,5.361-2.881,6.244-5.883,12.149-17.186,11.088-21.219a1.213,1.213,0,0,0-.967-1.021c-6.831-1.689-14.461,12.63-16.493,18.882C569.83,187.753,571.774,189.281,572.267,189.587Z" transform="translate(-568.024 -161.587)" fill="#2f2f2f"/>
            </g>
            <g id="Grupo_22757" data-name="Grupo 22757" transform="translate(3.935 17.937)">
              <path id="Trazado_5706" data-name="Trazado 5706" d="M571.7,191.4s-3.534-1.612-1.693-6.988,9.311-19.155,16.927-17.372S578.443,193.492,571.7,191.4Z" transform="translate(-568.116 -165.509)" fill="#f6f6f6"/>
              <path id="Trazado_5707" data-name="Trazado 5707" d="M573.532,193.885a4.058,4.058,0,0,1-1.251-.186l-.164-.058c-1.612-.737-4.191-3.5-2.414-8.68,1.419-4.147,9.242-20.428,18.531-18.258a3.742,3.742,0,0,1,2.859,2.754c1.4,5.04-5.11,15.424-10.2,20.359C578.124,192.5,575.611,193.885,573.532,193.885Zm-.347-2.772c1,.222,2.983-.522,5.8-3.261,5.5-5.332,10.369-14.414,9.468-17.667a1.015,1.015,0,0,0-.843-.821c-6.368-1.488-13.451,11.015-15.325,16.485C571,189.6,572.806,190.891,573.185,191.114Z" transform="translate(-569.102 -166.505)" fill="#2f2f2f"/>
            </g>
            <g id="Grupo_22758" data-name="Grupo 22758" transform="translate(4.821 40.202)">
              <path id="Trazado_5708" data-name="Trazado 5708" d="M572.59,187.62s-4.245-.773-2.407-5.577c1.09-2.852,6.215-9.957,11.434-8.965S582.5,188.138,572.59,187.62Z" transform="translate(-568.351 -171.617)" fill="#f6f6f6"/>
              <path id="Trazado_5709" data-name="Trazado 5709" d="M574.143,189.994c-.208,0-.416,0-.631-.015l-.175-.022a5.19,5.19,0,0,1-3.4-2.389,5.761,5.761,0,0,1-.036-5.022c1.295-3.37,6.806-10.96,12.969-9.822,2.4.46,3.658,2.739,3.268,5.956C585.573,183.338,581.386,189.994,574.143,189.994Zm-.372-2.743c5.478.15,9.176-5.008,9.651-8.9.077-.627.222-2.7-1.069-2.94-4.161-.784-8.834,5.325-9.9,8.111a3.231,3.231,0,0,0-.135,2.706A2.48,2.48,0,0,0,573.771,187.251Z" transform="translate(-569.346 -172.609)" fill="#2f2f2f"/>
            </g>
          </g>
        </g>
      </g>
    </g>
  </g>
</svg>
