<svg xmlns="http://www.w3.org/2000/svg" width="190" height="120" viewBox="0 0 190 120">
  <g id="Grupo_1074338" data-name="Grupo 1074338" transform="translate(-180 -2032)">
    <rect id="Rectángulo_382740" data-name="Rectángulo 382740" width="190" height="120" rx="13" transform="translate(180 2032)" fill="#dcecfe"/>
    <g id="meeting" transform="translate(201.08 2041.158)">
      <g id="Grupo_1074339" data-name="Grupo 1074339" transform="translate(62.2 7.5)">
        <path id="Trazado_826380" data-name="Trazado 826380" d="M206.556,59.861H194.485a5.684,5.684,0,0,0-5.685,5.685V77.217h23.441V65.546A5.685,5.685,0,0,0,206.556,59.861Z" transform="translate(-188.8 -50.729)" fill="#fe76a8"/>
        <path id="Trazado_826381" data-name="Trazado 826381" d="M200.623,59.86a5.684,5.684,0,0,0-5.684,5.684V77.216H188.8V65.544a5.684,5.684,0,0,1,5.684-5.684Z" transform="translate(-188.8 -50.728)" fill="#fe5694"/>
        <path id="Trazado_826382" data-name="Trazado 826382" d="M188.8,73.724V65.668a5.684,5.684,0,0,1,5.143-5.658" transform="translate(-188.8 -50.852)" fill="none" stroke="#000" stroke-linecap="round" stroke-linejoin="round" stroke-miterlimit="10" stroke-width="2"/>
        <path id="Trazado_826383" data-name="Trazado 826383" d="M293.71,60.01a5.684,5.684,0,0,1,5.143,5.658v8.056" transform="translate(-275.412 -50.852)" fill="none" stroke="#000" stroke-linecap="round" stroke-linejoin="round" stroke-miterlimit="10" stroke-width="2"/>
        <path id="Trazado_826384" data-name="Trazado 826384" d="M230.09,35.03a6.94,6.94,0,1,1-13.379-2.59c2.823,1.157,3.521.519,6.439.519s3.23.837,6.439-.519A6.912,6.912,0,0,1,230.09,35.03Z" transform="translate(-211.429 -28.09)" fill="#ffdfcf"/>
        <path id="Trazado_826385" data-name="Trazado 826385" d="M231.959,11.85a6.94,6.94,0,0,1-12.879,0,6.941,6.941,0,0,1,12.879,0Z" transform="translate(-213.799 -7.5)" fill="#7a6d79"/>
        <circle id="Elipse_9944" data-name="Elipse 9944" cx="6.941" cy="6.941" r="6.941" transform="translate(4.78 0)" fill="none" stroke="#000" stroke-linecap="round" stroke-linejoin="round" stroke-miterlimit="10" stroke-width="2"/>
        <path id="Trazado_826386" data-name="Trazado 826386" d="M219.08,32.44a6.94,6.94,0,0,0,12.879,0" transform="translate(-213.799 -28.09)" fill="none" stroke="#000" stroke-linecap="round" stroke-linejoin="round" stroke-miterlimit="10" stroke-width="2"/>
      </g>
      <path id="Trazado_826387" data-name="Trazado 826387" d="M206.556,369.986H194.485A5.684,5.684,0,0,1,188.8,364.3V352.63h23.441V364.3A5.685,5.685,0,0,1,206.556,369.986Z" transform="translate(-126.6 -284.935)" fill="#8ac9fe"/>
      <path id="Trazado_826388" data-name="Trazado 826388" d="M200.623,369.986a5.684,5.684,0,0,1-5.684-5.684V352.63H188.8V364.3a5.684,5.684,0,0,0,5.684,5.684h6.139Z" transform="translate(-126.6 -284.935)" fill="#60b7ff"/>
      <path id="Trazado_826389" data-name="Trazado 826389" d="M298.853,373.36v8.056a5.684,5.684,0,0,1-5.143,5.658" transform="translate(-213.213 -302.05)" fill="none" stroke="#000" stroke-linecap="round" stroke-linejoin="round" stroke-miterlimit="10" stroke-width="2"/>
      <path id="Trazado_826390" data-name="Trazado 826390" d="M230.09,431.852a6.94,6.94,0,1,0-13.379,2.59c2.823-1.157,3.521-.519,6.439-.519s3.23-.837,6.439.519A6.912,6.912,0,0,0,230.09,431.852Z" transform="translate(-149.23 -344.609)" fill="#ffdfcf"/>
      <path id="Trazado_826391" data-name="Trazado 826391" d="M231.959,458.962a6.94,6.94,0,0,0-12.879,0,6.941,6.941,0,0,0,12.879,0Z" transform="translate(-151.599 -369.129)" fill="#7a6d79"/>
      <circle id="Elipse_9945" data-name="Elipse 9945" cx="6.941" cy="6.941" r="6.941" transform="translate(66.98 80.301)" fill="none" stroke="#000" stroke-linecap="round" stroke-linejoin="round" stroke-miterlimit="10" stroke-width="2"/>
      <path id="Trazado_826392" data-name="Trazado 826392" d="M231.959,458.962a6.94,6.94,0,0,0-12.879,0" transform="translate(-151.599 -369.129)" fill="none" stroke="#000" stroke-linecap="round" stroke-linejoin="round" stroke-miterlimit="10" stroke-width="2"/>
      <g id="Grupo_1074342" data-name="Grupo 1074342" transform="translate(35.454 25.666)">
        <g id="Grupo_1074340" data-name="Grupo 1074340" transform="translate(0)">
          <path id="Trazado_826393" data-name="Trazado 826393" d="M71.261,114.5l-6.036,10.454a5.685,5.685,0,0,0,2.081,7.765l10.107,5.835,11.72-20.3-10.107-5.835A5.685,5.685,0,0,0,71.261,114.5Z" transform="translate(-59.404 -111.658)" fill="#8ac9fe"/>
          <path id="Trazado_826394" data-name="Trazado 826394" d="M68.293,157.419a5.684,5.684,0,0,0,2.081,7.765l10.108,5.836-3.07,5.317L67.3,170.5a5.684,5.684,0,0,1-2.081-7.765Z" transform="translate(-59.402 -149.437)" fill="#60b7ff"/>
          <path id="Trazado_826395" data-name="Trazado 826395" d="M74.282,201.974l-6.977-4.028a5.684,5.684,0,0,1-2.328-7.283" transform="translate(-59.403 -176.883)" fill="none" stroke="#000" stroke-linecap="round" stroke-linejoin="round" stroke-miterlimit="10" stroke-width="2"/>
          <path id="Trazado_826396" data-name="Trazado 826396" d="M105.123,114.044a5.684,5.684,0,0,1,7.472-1.625l6.977,4.028" transform="translate(-92.972 -111.656)" fill="none" stroke="#000" stroke-linecap="round" stroke-linejoin="round" stroke-miterlimit="10" stroke-width="2"/>
          <path id="Trazado_826397" data-name="Trazado 826397" d="M52.864,113.108A6.94,6.94,0,1,1,43.932,123.4c2.414-1.867,2.21-2.79,3.669-5.317s2.34-2.378,2.77-5.836A6.914,6.914,0,0,1,52.864,113.108Z" transform="translate(-42.453 -112.143)" fill="#ae6c6c"/>
          <path id="Trazado_826398" data-name="Trazado 826398" d="M43.372,111.921a6.94,6.94,0,0,1-6.439,11.153,6.941,6.941,0,0,1,6.439-11.153Z" transform="translate(-35.454 -111.818)" fill="#7a6d79"/>
          <circle id="Elipse_9946" data-name="Elipse 9946" cx="6.941" cy="6.941" r="6.941" transform="translate(0.001 0.034)" fill="none" stroke="#000" stroke-linecap="round" stroke-linejoin="round" stroke-miterlimit="10" stroke-width="2"/>
          <path id="Trazado_826399" data-name="Trazado 826399" d="M43.931,123.4a6.94,6.94,0,0,0,6.439-11.153" transform="translate(-42.453 -112.143)" fill="none" stroke="#000" stroke-linecap="round" stroke-linejoin="round" stroke-miterlimit="10" stroke-width="2"/>
        </g>
        <g id="Grupo_1074341" data-name="Grupo 1074341" transform="translate(47.201 23.452)">
          <path id="Trazado_826400" data-name="Trazado 826400" d="M329.993,259.719l-6.036,10.454a5.685,5.685,0,0,1-7.765,2.081l-10.107-5.835,11.72-20.3,10.107,5.835A5.685,5.685,0,0,1,329.993,259.719Z" transform="translate(-306.084 -246.118)" fill="#9be69d"/>
          <path id="Trazado_826401" data-name="Trazado 826401" d="M327.026,335.783a5.684,5.684,0,0,1-7.765,2.081l-10.108-5.836-3.07,5.317,10.108,5.836a5.684,5.684,0,0,0,7.765-2.081Z" transform="translate(-306.084 -317.044)" fill="#6fd7a3"/>
          <path id="Trazado_826402" data-name="Trazado 826402" d="M338.484,375.28a5.684,5.684,0,0,1-7.472,1.625l-6.977-4.028" transform="translate(-320.905 -350.769)" fill="none" stroke="#000" stroke-linecap="round" stroke-linejoin="round" stroke-miterlimit="10" stroke-width="2"/>
          <path id="Trazado_826403" data-name="Trazado 826403" d="M391.237,256.483l6.977,4.028a5.684,5.684,0,0,1,2.328,7.283" transform="translate(-376.385 -254.675)" fill="none" stroke="#000" stroke-linecap="round" stroke-linejoin="round" stroke-miterlimit="10" stroke-width="2"/>
          <path id="Trazado_826404" data-name="Trazado 826404" d="M407.355,321.487a6.94,6.94,0,1,0-4.447,12.882c.41-3.024,1.311-3.309,2.77-5.836s.89-3.216,3.669-5.317A6.908,6.908,0,0,0,407.355,321.487Z" transform="translate(-381.096 -307.573)" fill="#ffdfcf"/>
          <path id="Trazado_826405" data-name="Trazado 826405" d="M430.584,335.479a6.94,6.94,0,0,0-6.439,11.153,6.941,6.941,0,0,0,6.439-11.153Z" transform="translate(-402.332 -319.837)" fill="#7a6d79"/>
          <circle id="Elipse_9947" data-name="Elipse 9947" cx="6.941" cy="6.941" r="6.941" transform="translate(15.848 12.983)" fill="none" stroke="#000" stroke-linecap="round" stroke-linejoin="round" stroke-miterlimit="10" stroke-width="2"/>
          <path id="Trazado_826406" data-name="Trazado 826406" d="M430.584,335.479a6.94,6.94,0,0,0-6.439,11.153" transform="translate(-402.332 -319.837)" fill="none" stroke="#000" stroke-linecap="round" stroke-linejoin="round" stroke-miterlimit="10" stroke-width="2"/>
        </g>
      </g>
      <g id="Grupo_1074345" data-name="Grupo 1074345" transform="translate(35.454 25.666)">
        <g id="Grupo_1074343" data-name="Grupo 1074343" transform="translate(0 23.452)">
          <path id="Trazado_826407" data-name="Trazado 826407" d="M65.226,259.719l6.036,10.454a5.685,5.685,0,0,0,7.765,2.081l10.107-5.835-11.72-20.3-10.107,5.835A5.685,5.685,0,0,0,65.226,259.719Z" transform="translate(-59.404 -246.118)" fill="#7a6d79"/>
          <path id="Trazado_826408" data-name="Trazado 826408" d="M85.843,335.783a5.684,5.684,0,0,0,7.765,2.081l10.108-5.836,3.07,5.317-10.108,5.836a5.684,5.684,0,0,1-7.765-2.081Z" transform="translate(-77.055 -317.044)" fill="#685e68"/>
          <path id="Trazado_826409" data-name="Trazado 826409" d="M119.57,372.877l-6.977,4.028a5.684,5.684,0,0,1-7.472-1.625" transform="translate(-92.971 -350.769)" fill="none" stroke="#000" stroke-linecap="round" stroke-linejoin="round" stroke-miterlimit="10" stroke-width="2"/>
          <path id="Trazado_826410" data-name="Trazado 826410" d="M64.978,267.794a5.684,5.684,0,0,1,2.328-7.283l2.67-1.542,4.307-2.486" transform="translate(-59.404 -254.675)" fill="none" stroke="#000" stroke-linecap="round" stroke-linejoin="round" stroke-miterlimit="10" stroke-width="2"/>
          <path id="Trazado_826411" data-name="Trazado 826411" d="M45.925,321.487a6.94,6.94,0,1,1,4.447,12.882c-.41-3.024-1.311-3.309-2.77-5.836s-.89-3.216-3.669-5.317A6.908,6.908,0,0,1,45.925,321.487Z" transform="translate(-42.453 -307.573)" fill="#ffdfcf"/>
          <path id="Trazado_826412" data-name="Trazado 826412" d="M36.933,335.479a6.94,6.94,0,0,1,6.439,11.153,6.941,6.941,0,0,1-6.439-11.153Z" transform="translate(-35.455 -319.837)" fill="#7a6d79"/>
          <circle id="Elipse_9948" data-name="Elipse 9948" cx="6.941" cy="6.941" r="6.941" transform="translate(0.001 12.983)" fill="none" stroke="#000" stroke-linecap="round" stroke-linejoin="round" stroke-miterlimit="10" stroke-width="2"/>
          <path id="Trazado_826413" data-name="Trazado 826413" d="M50.37,346.633a6.94,6.94,0,0,0-6.439-11.153" transform="translate(-42.453 -319.837)" fill="none" stroke="#000" stroke-linecap="round" stroke-linejoin="round" stroke-miterlimit="10" stroke-width="2"/>
        </g>
        <g id="Grupo_1074344" data-name="Grupo 1074344" transform="translate(47.201)">
          <path id="Trazado_826414" data-name="Trazado 826414" d="M323.957,114.5l6.036,10.454a5.685,5.685,0,0,1-2.081,7.765L317.8,138.557l-11.72-20.3,10.107-5.835A5.685,5.685,0,0,1,323.957,114.5Z" transform="translate(-306.084 -111.658)" fill="#ffe177"/>
          <path id="Trazado_826415" data-name="Trazado 826415" d="M367.872,157.419a5.684,5.684,0,0,1-2.081,7.765l-10.108,5.836,3.07,5.317,10.108-5.836a5.684,5.684,0,0,0,2.081-7.765Z" transform="translate(-347.033 -149.437)" fill="#fece85"/>
          <path id="Trazado_826416" data-name="Trazado 826416" d="M400.541,190.663a5.684,5.684,0,0,1-2.328,7.283l-6.977,4.028" transform="translate(-376.385 -176.883)" fill="none" stroke="#000" stroke-linecap="round" stroke-linejoin="round" stroke-miterlimit="10" stroke-width="2"/>
          <path id="Trazado_826417" data-name="Trazado 826417" d="M324.037,116.447l4.676-2.7,2.3-1.328a5.684,5.684,0,0,1,7.472,1.625" transform="translate(-320.906 -111.656)" fill="none" stroke="#000" stroke-linecap="round" stroke-linejoin="round" stroke-miterlimit="10" stroke-width="2"/>
          <path id="Trazado_826418" data-name="Trazado 826418" d="M400.415,113.108a6.94,6.94,0,1,0,8.932,10.292c-2.414-1.867-2.211-2.79-3.669-5.317s-2.34-2.378-2.77-5.836A6.914,6.914,0,0,0,400.415,113.108Z" transform="translate(-381.096 -112.143)" fill="#ae6c6c"/>
          <path id="Trazado_826419" data-name="Trazado 826419" d="M424.144,111.921a6.94,6.94,0,0,0,6.439,11.153,6.941,6.941,0,0,0-6.439-11.153Z" transform="translate(-402.332 -111.818)" fill="#7a6d79"/>
          <path id="Trazado_826420" data-name="Trazado 826420" d="M410.8,118.233a6.942,6.942,0,1,1-2.977-5.157" transform="translate(-381.095 -111.815)" fill="none" stroke="#000" stroke-linecap="round" stroke-linejoin="round" stroke-miterlimit="10" stroke-width="2"/>
          <path id="Trazado_826421" data-name="Trazado 826421" d="M424.144,112.246a6.94,6.94,0,0,0,6.439,11.153" transform="translate(-402.332 -112.143)" fill="none" stroke="#000" stroke-linecap="round" stroke-linejoin="round" stroke-miterlimit="10" stroke-width="2"/>
        </g>
      </g>
      <circle id="Elipse_9949" data-name="Elipse 9949" cx="23.584" cy="23.584" r="23.584" transform="translate(50.336 27.258)" fill="#dc8758"/>
      <path id="Trazado_826422" data-name="Trazado 826422" d="M186.789,190.051l-3.9,9.248a1.124,1.124,0,0,1-1.472.6l-13.04-5.5a1.124,1.124,0,0,1-.6-1.472l3.9-9.248a1.124,1.124,0,0,1,1.472-.6l13.04,5.5A1.124,1.124,0,0,1,186.789,190.051Z" transform="translate(-109.173 -144.885)" fill="#d8ecfe"/>
      <path id="Trazado_826423" data-name="Trazado 826423" d="M181.58,199.951a.908.908,0,0,1-.16-.052l-13.041-5.5a1.124,1.124,0,0,1-.6-1.472l3.9-9.249a1.125,1.125,0,0,1,1.472-.6l12.587,5.307h0" transform="translate(-109.174 -144.886)" fill="none" stroke="#000" stroke-linecap="round" stroke-linejoin="round" stroke-miterlimit="10" stroke-width="2"/>
      <path id="Trazado_826424" data-name="Trazado 826424" d="M267.62,212.581l-9.2,4a1.124,1.124,0,0,1-1.478-.583L251.3,203.021a1.124,1.124,0,0,1,.583-1.478l9.2-4a1.124,1.124,0,0,1,1.478.583L268.2,211.1A1.124,1.124,0,0,1,267.62,212.581Z" transform="translate(-178.119 -156.819)" fill="#f5f8f9"/>
      <path id="Trazado_826425" data-name="Trazado 826425" d="M264.762,213.822l2.859-1.242a1.122,1.122,0,0,0,.583-1.477l-5.64-12.98a1.126,1.126,0,0,0-1.479-.583l-6.4,2.782h0l-2.8,1.219a1.124,1.124,0,0,0-.583,1.479l1.83,4.21" transform="translate(-178.12 -156.819)" fill="none" stroke="#000" stroke-linecap="round" stroke-linejoin="round" stroke-miterlimit="10" stroke-width="2"/>
      <path id="Trazado_826426" data-name="Trazado 826426" d="M258.386,252.324l-9.2,4a1.124,1.124,0,0,1-1.478-.583l-5.641-12.979a1.124,1.124,0,0,1,.583-1.478l9.2-4a1.124,1.124,0,0,1,1.478.583l5.641,12.979A1.123,1.123,0,0,1,258.386,252.324Z" transform="translate(-170.496 -189.631)" fill="#f5f8f9"/>
      <path id="Trazado_826427" data-name="Trazado 826427" d="M251.777,255.2l6.608-2.871a1.125,1.125,0,0,0,.583-1.479l-5.642-12.978a1.121,1.121,0,0,0-1.477-.583l-9.205,4a1.126,1.126,0,0,0-.583,1.479l5.307,12.207" transform="translate(-170.496 -189.632)" fill="none" stroke="#000" stroke-linecap="round" stroke-linejoin="round" stroke-miterlimit="10" stroke-width="2"/>
      <path id="Trazado_826428" data-name="Trazado 826428" d="M146.391,167.376q-1.01.089-2.044.089a23.584,23.584,0,1,1,0-47.168q1.033,0,2.044.089a23.584,23.584,0,0,0,0,46.99Z" transform="translate(-70.43 -93.124)" fill="#c57a44"/>
      <path id="Trazado_826429" data-name="Trazado 826429" d="M159.53,127.837a23.593,23.593,0,0,1,28.692-3.856" transform="translate(-102.435 -93.523)" fill="none" stroke="#000" stroke-linecap="round" stroke-linejoin="round" stroke-miterlimit="10" stroke-width="2"/>
      <path id="Trazado_826430" data-name="Trazado 826430" d="M120.78,200.637v-.084a23.471,23.471,0,0,1,3.111-11.713" transform="translate(-70.444 -149.712)" fill="none" stroke="#000" stroke-linecap="round" stroke-linejoin="round" stroke-miterlimit="10" stroke-width="2"/>
      <path id="Trazado_826431" data-name="Trazado 826431" d="M222.69,387.08a23.733,23.733,0,0,0,11.619,0" transform="translate(-154.58 -313.377)" fill="none" stroke="#000" stroke-linecap="round" stroke-linejoin="round" stroke-miterlimit="10" stroke-width="2"/>
      <path id="Trazado_826432" data-name="Trazado 826432" d="M125.82,292.7A23.631,23.631,0,0,0,136.8,306.768" transform="translate(-74.605 -235.458)" fill="none" stroke="#000" stroke-linecap="round" stroke-linejoin="round" stroke-miterlimit="10" stroke-width="2"/>
      <path id="Trazado_826433" data-name="Trazado 826433" d="M328.371,161.62a23.59,23.59,0,0,1-5.171,36.93" transform="translate(-237.56 -127.24)" fill="none" stroke="#000" stroke-linecap="round" stroke-linejoin="round" stroke-miterlimit="10" stroke-width="2"/>
      <g id="Grupo_1074346" data-name="Grupo 1074346" transform="translate(76.008 64.473)">
        <path id="Trazado_826434" data-name="Trazado 826434" d="M277.47,347.837l2.065,2.065v6.99h5.911v-8.34a2.66,2.66,0,0,0-.78-1.88l-3.016-3.016-2.972,1.262Z" transform="translate(-275.814 -341.999)" fill="#8ac9fe"/>
        <path id="Trazado_826435" data-name="Trazado 826435" d="M268.837,339.2l.792.792,4.181-4.181-.792-.792a2.956,2.956,0,0,0-4.181,4.181Z" transform="translate(-267.973 -334.156)" fill="#ffdfcf"/>
        <line id="Línea_328" data-name="Línea 328" x1="4.181" y2="4.181" transform="translate(1.657 1.656)" fill="none" stroke="#000" stroke-linecap="round" stroke-linejoin="round" stroke-miterlimit="10" stroke-width="2"/>
        <path id="Trazado_826436" data-name="Trazado 826436" d="M271.7,346.714v-4.653l-2.856-2.857a2.956,2.956,0,0,1,0-4.179h0a2.956,2.956,0,0,1,4.181,0l3.807,3.807a2.658,2.658,0,0,1,.779,1.88v8.34" transform="translate(-267.975 -334.158)" fill="none" stroke="#000" stroke-linecap="round" stroke-linejoin="round" stroke-miterlimit="10" stroke-width="2"/>
      </g>
      <g id="Grupo_1074347" data-name="Grupo 1074347" transform="translate(82.807 26.429)">
        <path id="Trazado_826437" data-name="Trazado 826437" d="M322.055,121.15l-6.054,3.5-.684,2.552-2.331,1a1.211,1.211,0,1,1-2.364-.524l-1.016-2.012,1.032-3.85a2.658,2.658,0,0,1,1.239-1.614l7.222-4.17" transform="translate(-309.144 -116.031)" fill="#ffe177"/>
        <path id="Trazado_826438" data-name="Trazado 826438" d="M309.918,176.342a2.994,2.994,0,0,1-.767-.1,2.958,2.958,0,0,1-2.089-3.619l.361-1.352,5.71,1.531-.361,1.35A2.956,2.956,0,0,1,309.918,176.342Z" transform="translate(-306.958 -161.636)" fill="#9b5e5e"/>
        <line id="Línea_329" data-name="Línea 329" x1="5.71" y1="1.53" transform="translate(0.463 9.636)" fill="none" stroke="#000" stroke-linecap="round" stroke-linejoin="round" stroke-miterlimit="10" stroke-width="2"/>
        <path id="Trazado_826439" data-name="Trazado 826439" d="M317.969,122.243l-4.161,2.4-1.046,3.9a2.956,2.956,0,0,1-3.619,2.09h0a2.956,2.956,0,0,1-2.091-3.62l1.394-5.2a2.658,2.658,0,0,1,1.239-1.614l7.222-4.17" transform="translate(-306.951 -116.031)" fill="none" stroke="#000" stroke-linecap="round" stroke-linejoin="round" stroke-miterlimit="10" stroke-width="2"/>
      </g>
      <g id="Grupo_1074348" data-name="Grupo 1074348" transform="translate(43.357 50.427)">
        <path id="Trazado_826440" data-name="Trazado 826440" d="M83.72,263.271l6.054-3.5,2.55.683s2.813-.618,3.236-2.194h0c.423-1.577-1.7-3.516-1.7-3.516L90,253.716a2.658,2.658,0,0,0-2.017.266l-7.222,4.17Z" transform="translate(-80.765 -253.626)" fill="#7a6d79"/>
        <path id="Trazado_826441" data-name="Trazado 826441" d="M152.114,263.28a2.994,2.994,0,0,1-.1.767,2.958,2.958,0,0,1-3.619,2.089l-1.352-.361,1.531-5.71,1.35.361A2.956,2.956,0,0,1,152.114,263.28Z" transform="translate(-135.482 -258.943)" fill="#ffdfcf"/>
        <path id="Trazado_826442" data-name="Trazado 826442" d="M85.931,261.994l3.843-2.219,3.9,1.045a2.956,2.956,0,0,0,3.619-2.09h0a2.956,2.956,0,0,0-2.09-3.621L90,253.716a2.658,2.658,0,0,0-2.017.266l-7.222,4.17" transform="translate(-80.764 -253.626)" fill="none" stroke="#000" stroke-linecap="round" stroke-linejoin="round" stroke-miterlimit="10" stroke-width="2"/>
        <line id="Línea_330" data-name="Línea 330" x1="1.53" y2="5.71" transform="translate(11.561 1.124)" fill="none" stroke="#000" stroke-linecap="round" stroke-linejoin="round" stroke-miterlimit="10" stroke-width="2"/>
      </g>
      <g id="Grupo_1074349" data-name="Grupo 1074349" transform="translate(62.199 64.473)">
        <path id="Trazado_826443" data-name="Trazado 826443" d="M196.77,347.846l-2.065,2.065v6.99h-5.911v-8.34a2.66,2.66,0,0,1,.78-1.88l3.016-3.016,2.972,1.262Z" transform="translate(-188.794 -342.007)" fill="#60b7ff"/>
        <path id="Trazado_826444" data-name="Trazado 826444" d="M215.526,339.211l-.792.792-4.181-4.181.792-.792a2.956,2.956,0,0,1,4.181,4.181Z" transform="translate(-206.759 -334.164)" fill="#ffdfcf"/>
        <path id="Trazado_826445" data-name="Trazado 826445" d="M188.8,346v-5.288a2.666,2.666,0,0,1,.778-1.88l3.807-3.807a2.956,2.956,0,1,1,4.181,4.181l-2.855,2.857v4.653" transform="translate(-188.799 -334.16)" fill="none" stroke="#000" stroke-linecap="round" stroke-linejoin="round" stroke-miterlimit="10" stroke-width="2"/>
        <line id="Línea_331" data-name="Línea 331" x1="4.181" y1="4.181" transform="translate(3.794 1.657)" fill="none" stroke="#000" stroke-linecap="round" stroke-linejoin="round" stroke-miterlimit="10" stroke-width="2"/>
      </g>
      <line id="Línea_332" data-name="Línea 332" y1="5.004" transform="translate(62.2 71.31)" fill="none" stroke="#000" stroke-linecap="round" stroke-linejoin="round" stroke-miterlimit="10" stroke-width="2"/>
      <path id="Trazado_826446" data-name="Trazado 826446" d="M193.5,436.41a5.677,5.677,0,0,0,4.324,2.717" transform="translate(-130.481 -354.103)" fill="none" stroke="#000" stroke-linecap="round" stroke-linejoin="round" stroke-miterlimit="10" stroke-width="2"/>
    </g>
  </g>
</svg>
