<svg xmlns="http://www.w3.org/2000/svg" xmlns:xlink="http://www.w3.org/1999/xlink" width="70" height="70" viewBox="0 0 70 70">
  <defs>
    <clipPath id="clip-path">
      <rect id="Rectángulo_5621" data-name="Rectángulo 5621" width="70" height="70" transform="translate(267.947 7553)" fill="#fff" stroke="#707070" stroke-width="1"/>
    </clipPath>
  </defs>
  <g id="Enmascarar_grupo_5" data-name="Enmascarar grupo 5" transform="translate(-267.947 -7553)" opacity="0.3" clip-path="url(#clip-path)">
    <g id="piensa-diferente" transform="translate(268 7553)">
      <g id="Grupo_22835" data-name="Grupo 22835" transform="translate(1.128 1.128)">
        <g id="Grupo_22817" data-name="Grupo 22817" transform="translate(9.025 54.152)">
          <path id="Trazado_5751" data-name="Trazado 5751" d="M32.554,103.532H43.836A13.554,13.554,0,0,0,30.3,117.07H19.016l6.769-3.385-1.128-2.256,4.513-3.385,1.128-4.321A13.533,13.533,0,0,1,32.554,103.532Z" transform="translate(-19.016 -103.532)" fill="#b4dd7f"/>
        </g>
        <g id="Grupo_22818" data-name="Grupo 22818" transform="translate(9.025 54.344)">
          <path id="Trazado_5752" data-name="Trazado 5752" d="M30.3,103.891l-1.128,4.321L24.657,111.6l1.128,2.256-6.769,3.385A13.527,13.527,0,0,1,30.3,103.891Z" transform="translate(-19.016 -103.891)" fill="#a0d468"/>
        </g>
        <g id="Grupo_22819" data-name="Grupo 22819" transform="translate(20.307 54.152)">
          <path id="Trazado_5753" data-name="Trazado 5753" d="M55.94,103.532a8.177,8.177,0,0,1,3.385,3.159,8.168,8.168,0,0,0-1.128,4.14v6.239H40.145l6.769-3.385-1.128-2.256,4.513-3.385,1.128-4.321a13.533,13.533,0,0,1,2.256-.192Z" transform="translate(-40.145 -103.532)" fill="#fcd770"/>
        </g>
        <g id="Grupo_22820" data-name="Grupo 22820" transform="translate(20.307 54.344)">
          <path id="Trazado_5754" data-name="Trazado 5754" d="M51.427,103.891,50.3,108.212,45.786,111.6l1.128,2.256-6.769,3.385A13.527,13.527,0,0,1,51.427,103.891Z" transform="translate(-40.145 -103.891)" fill="#ffc729"/>
        </g>
        <g id="Grupo_22821" data-name="Grupo 22821" transform="translate(38.358 54.152)">
          <path id="Trazado_5755" data-name="Trazado 5755" d="M78.464,103.532h2.256a13.534,13.534,0,0,1,2.256.192v4.321l5.641,3.385-1.128,2.256,6.769,3.385H73.952v-6.239a8.158,8.158,0,0,1,4.513-7.3Z" transform="translate(-73.952 -103.532)" fill="#e6e9ed"/>
        </g>
        <g id="Grupo_22822" data-name="Grupo 22822" transform="translate(47.383 54.344)">
          <path id="Trazado_5756" data-name="Trazado 5756" d="M102.137,117.238l-6.769-3.385L96.5,111.6l-5.641-3.385v-4.321a13.508,13.508,0,0,1,11.282,13.346Z" transform="translate(-90.855 -103.891)" fill="#ccd1d9"/>
        </g>
        <g id="Grupo_22823" data-name="Grupo 22823" transform="translate(2.256 18.051)">
          <path id="Trazado_5757" data-name="Trazado 5757" d="M9.588,43.681,7.275,41.368a3.2,3.2,0,0,1-.936-2.256,3.2,3.2,0,0,1,3.193-3.193H23.092a17.116,17.116,0,0,1,3.757.417A12.4,12.4,0,0,0,17.62,48.329a1.131,1.131,0,0,0,1.128,1.128H11.98a3.382,3.382,0,0,1-2.392-5.776Z" transform="translate(-6.339 -35.919)" fill="#b27946"/>
        </g>
        <g id="Grupo_22824" data-name="Grupo 22824" transform="translate(0 22.36)">
          <path id="Trazado_5758" data-name="Trazado 5758" d="M6.626,49.835v1.128H5.306a3.191,3.191,0,0,1-2.256-5.449l1.523-1.523a3.14,3.14,0,0,0,.733,1.139l2.313,2.313A3.376,3.376,0,0,0,6.626,49.835Z" transform="translate(-2.113 -43.991)" fill="#b27946"/>
        </g>
        <g id="Grupo_22825" data-name="Grupo 22825" transform="translate(13.538 18.051)">
          <path id="Trazado_5759" data-name="Trazado 5759" d="M31.98,50.067a4.389,4.389,0,0,0-2.256-.609H28.6a1.131,1.131,0,0,1-1.128-1.128,12.422,12.422,0,0,1,12.41-12.41h6.6a17.033,17.033,0,0,1,6.713,1.365H53.2a11.214,11.214,0,0,0,.9.891,17.242,17.242,0,0,0-6.216,6.137A16.613,16.613,0,0,0,45.755,50.2h-.011a4.465,4.465,0,0,0-2.482-.745h-7.9a3.39,3.39,0,0,1-3.385-3.385Z" transform="translate(-27.468 -35.919)" fill="#656d78"/>
        </g>
        <g id="Grupo_22826" data-name="Grupo 22826" transform="translate(31.589 15.794)">
          <path id="Trazado_5760" data-name="Trazado 5760" d="M92.863,36.206V31.694A13.319,13.319,0,0,1,86.3,33.916h-.011a12.251,12.251,0,0,1-2.268,2.516l-2.437,2.031v4.513a4.513,4.513,0,1,1-9.025,0V38.463l-2.437-2.031-.259-.226a17.242,17.242,0,0,0-6.216,6.137,16.613,16.613,0,0,0-2.132,5.889,16.333,16.333,0,0,0-.237,2.8,17.063,17.063,0,0,0,4.445,11.5l3.452,3.8,3.385,3.723.993-1.241a16.007,16.007,0,0,0,3.52-10.041H75.94a3.385,3.385,0,1,1,0-6.769h1.128a4.514,4.514,0,0,1,3.554-4.411,4.46,4.46,0,0,1,.959-.1h7.9A3.39,3.39,0,0,0,92.863,44.1v3a6.784,6.784,0,0,0,4.513-6.385V35.078Z" transform="translate(-61.274 -31.694)" fill="#b27946"/>
        </g>
        <g id="Grupo_22827" data-name="Grupo 22827" transform="translate(2.256 28.204)">
          <path id="Trazado_5761" data-name="Trazado 5761" d="M19.877,58.32a4.389,4.389,0,0,1,2.256.609V61.9a7.711,7.711,0,0,1-2.256,5.449L22.133,69.6v6.769a4.511,4.511,0,0,0,4.513,4.513H13.108A4.511,4.511,0,0,1,8.6,76.371V69.6L6.339,67.345A7.711,7.711,0,0,0,8.6,61.9V54.935A3.39,3.39,0,0,0,11.98,58.32h7.9Z" transform="translate(-6.339 -54.935)" fill="#f0d0b4"/>
        </g>
        <g id="Grupo_22828" data-name="Grupo 22828" transform="translate(15.794 28.204)">
          <path id="Trazado_5762" data-name="Trazado 5762" d="M47.488,61.862a17.063,17.063,0,0,0,4.445,11.5l3.452,3.8L52,80.883H38.463a4.511,4.511,0,0,1-4.513-4.513V69.6l-2.256-2.256A7.711,7.711,0,0,0,33.95,61.9V54.935a3.39,3.39,0,0,0,3.385,3.385h7.9a4.465,4.465,0,0,1,2.482.745h.011a16.334,16.334,0,0,0-.237,2.8Z" transform="translate(-31.694 -54.935)" fill="#f0d0b4"/>
        </g>
        <g id="Grupo_22829" data-name="Grupo 22829" transform="translate(42.871 28.204)">
          <path id="Trazado_5763" data-name="Trazado 5763" d="M102.71,57.936V61.9a7.711,7.711,0,0,0,2.256,5.449L102.71,69.6v2.256H95.941a4.507,4.507,0,0,0,4.513,4.513h2.256A4.511,4.511,0,0,1,98.2,80.883H82.4l.993-1.241A16.007,16.007,0,0,0,86.916,69.6H85.788a3.385,3.385,0,0,1,0-6.769h1.128a4.514,4.514,0,0,1,3.554-4.411,4.46,4.46,0,0,1,.959-.1h7.9a3.39,3.39,0,0,0,3.385-3.385Z" transform="translate(-82.403 -54.935)" fill="#f0d0b4"/>
        </g>
        <g id="Grupo_22830" data-name="Grupo 22830" transform="translate(42.871 27.076)">
          <path id="Trazado_5764" data-name="Trazado 5764" d="M82.4,52.823h9.025a4.513,4.513,0,0,1-9.025,0Z" transform="translate(-82.403 -52.823)" fill="#aab2bd"/>
        </g>
        <g id="Grupo_22831" data-name="Grupo 22831" transform="translate(42.871 22.563)">
          <path id="Trazado_5765" data-name="Trazado 5765" d="M91.429,44.371v4.513H82.4V44.371h9.025Z" transform="translate(-82.403 -44.371)" fill="#ccd1d9"/>
        </g>
        <g id="Grupo_22832" data-name="Grupo 22832" transform="translate(36.102)">
          <path id="Trazado_5766" data-name="Trazado 5766" d="M83.264,24.676H76.495l-2.437-2.031L73.8,22.42a11.214,11.214,0,0,1-.9-.891h-.011a11.806,11.806,0,0,1-2.019-3.024,12,12,0,0,1-1.139-5.111,11.282,11.282,0,0,1,22.563,0,12.115,12.115,0,0,1-2.053,6.735h-.011a12.252,12.252,0,0,1-2.268,2.516L85.52,24.676Z" transform="translate(-69.726 -2.113)" fill="#ffeaa7"/>
        </g>
        <g id="Grupo_22833" data-name="Grupo 22833" transform="translate(56.409 45.127)">
          <path id="Trazado_5767" data-name="Trazado 5767" d="M114.527,86.629v4.513h-2.256a4.507,4.507,0,0,1-4.513-4.513Z" transform="translate(-107.758 -86.629)" fill="#ff826e"/>
        </g>
        <g id="Grupo_22834" data-name="Grupo 22834" transform="translate(54.152 36.102)">
          <circle id="Elipse_1273" data-name="Elipse 1273" cx="2.256" cy="2.256" r="2.256" fill="#d3a06c"/>
        </g>
      </g>
      <g id="Grupo_22836" data-name="Grupo 22836" transform="translate(0)">
        <path id="Trazado_5768" data-name="Trazado 5768" d="M69.947,25.948V18.862L65.434,19.99V14.815L63.68,15.984a12.3,12.3,0,0,1-3.864,1.68,13.143,13.143,0,0,0,1.106-5.254,12.41,12.41,0,0,0-24.82,0,13.137,13.137,0,0,0,1.5,6.073,18.251,18.251,0,0,0-3.923-.433h-6.6a13.514,13.514,0,0,0-3.2.4,18.322,18.322,0,0,0-3.738-.4H6.575a4.295,4.295,0,0,0-4.243,5.1L1.265,24.215a4.32,4.32,0,0,0,3.054,7.374h.194V36.3a6.62,6.62,0,0,1-1.926,4.649l-.8.8,2.723,2.723v6.3a5.647,5.647,0,0,0,5.641,5.641h5.758a14.658,14.658,0,0,0-6.886,12.41v1.128h51.9V68.819a14.658,14.658,0,0,0-6.886-12.41h5.758a5.647,5.647,0,0,0,5.641-5.641v-6.3l2.723-2.723-.8-.8A6.62,6.62,0,0,1,65.434,36.3V33.061A7.9,7.9,0,0,0,69.947,25.948Zm-6.769-7.086v4.02l4.513-1.128v4.195a5.648,5.648,0,0,1-2.256,4.509V29.333a4.517,4.517,0,0,0-4.513-4.513v2.256a2.256,2.256,0,0,1,0,4.513h-7.9l-.032,0a5.581,5.581,0,0,0,1.16-3.387V24.221l2.031-1.691a13.207,13.207,0,0,0,2.166-2.315,14.609,14.609,0,0,0,4.829-1.353ZM47.34,45.127a15.019,15.019,0,0,1-3.232,8.212l-.164.2L38,47A15.951,15.951,0,0,1,41.2,22.83l1.669,1.391V28.2a5.647,5.647,0,0,0,5.641,5.641c.01,0,.019,0,.029,0A5.6,5.6,0,0,0,47.5,36.1h-.114a4.513,4.513,0,0,0-.043,9.025Zm.043,11.336v3.97l5.292,3.175L51.51,65.938l3.5,1.752H47.383V63.178H45.127V67.69H40.614V62.582A6.989,6.989,0,0,1,44.3,56.409h1.954c.38,0,.756.02,1.128.054ZM33.845,63.178V67.69H26.214l3.5-1.752-1.212-2.423,4.075-3.055,1.036-3.973a12.562,12.562,0,0,1,1.357-.078h1.953A7.008,7.008,0,0,1,39.3,58.514a9.287,9.287,0,0,0-.941,4.068V67.69H36.1V63.178Zm-16.62.337L21.3,60.46l1.036-3.971a12.5,12.5,0,0,1,1.356-.08h3.5A14.656,14.656,0,0,0,20.365,67.69H14.934l3.5-1.752Zm3.082-12.747V49.64h2.256a4.517,4.517,0,0,0,4.513-4.513H24.82a2.259,2.259,0,0,1-2.256,2.256H20.307V43.532l-1.841-1.841A8.9,8.9,0,0,0,20.307,36.3V33.218a4.466,4.466,0,0,0,2.256.627h7.9a3.372,3.372,0,0,1,1.265.253,18.086,18.086,0,0,0,4.6,14.42l2.764,3.039L36.73,54.152H23.692a3.389,3.389,0,0,1-3.385-3.385Zm20.3,5.747a9.237,9.237,0,0,0-1.617-1.488l1.628-1.792,1.626,1.788A9.289,9.289,0,0,0,40.6,56.515ZM26.69,64.93l-3.966,1.982a12.435,12.435,0,0,1,8.421-9.893L30.6,59.126l-4.95,3.714ZM45.127,24.82H51.9v2.256H45.127Zm3.385,6.769a3.38,3.38,0,0,1-3.177-2.256h6.353a3.377,3.377,0,0,1-3.176,2.256Zm0-29.333A10.165,10.165,0,0,1,58.665,12.41,10.891,10.891,0,0,1,54.739,20.8l-2.123,1.768H51.9V12.41a1.128,1.128,0,0,1,2.256,0v1.128h2.256V12.41a3.385,3.385,0,0,0-6.769,0V22.563H47.383V12.41a3.385,3.385,0,1,0-6.769,0v1.128h2.256V12.41a1.128,1.128,0,1,1,2.256,0V22.563h-.72L42.285,20.8a10.888,10.888,0,0,1-3.927-8.386A10.165,10.165,0,0,1,48.511,2.256ZM33.68,20.306a15.869,15.869,0,0,1,5.667,1.055,18.281,18.281,0,0,0-7.2,10.488,5.684,5.684,0,0,0-1.684-.259h-7.9a2.256,2.256,0,0,1,0-4.513V24.82a4.517,4.517,0,0,0-4.513,4.513v2.382a5.638,5.638,0,0,0-1.128-.125H15.794A11.3,11.3,0,0,1,27.076,20.306Zm-27.105,0H19.61a13.533,13.533,0,0,0-6.072,11.283H9.025a2.256,2.256,0,1,1,0-4.513V24.82a4.453,4.453,0,0,0-2.278.64L5.116,23.828a2.063,2.063,0,0,1,1.459-3.521ZM4.319,29.333A2.063,2.063,0,0,1,2.86,25.811l.538-.538c.044.049.077.1.123.15l1.631,1.631a4.453,4.453,0,0,0-.64,2.278Zm2.45,21.435V49.64H9.025a4.517,4.517,0,0,0,4.513-4.513H11.282a2.259,2.259,0,0,1-2.256,2.256H6.769V43.532L4.928,41.691A8.9,8.9,0,0,0,6.769,36.3V33.218a4.466,4.466,0,0,0,2.256.627h7.9a3.369,3.369,0,0,1,1.128.219V36.3a6.62,6.62,0,0,1-1.926,4.649l-.8.8,2.723,2.723v6.3a5.583,5.583,0,0,0,1.158,3.385H10.154a3.389,3.389,0,0,1-3.385-3.385Zm13.094,6.257-.548,2.1-4.95,3.714,1.045,2.089L11.44,66.914A12.433,12.433,0,0,1,19.863,57.025Zm38.644,9.89L54.538,64.93l1.091-2.182L49.64,59.155V56.883a12.437,12.437,0,0,1,8.867,10.032ZM62.05,49.64a3.391,3.391,0,0,1-3.192-2.256h4.32V49.64Zm1.128-6.108v1.6H56.409v1.128A5.647,5.647,0,0,0,62.05,51.9h.921a3.38,3.38,0,0,1-3.177,2.256H46.307A17.272,17.272,0,0,0,49.64,44V42.871H47.383a2.256,2.256,0,0,1,0-4.513H49.64V37.23a3.389,3.389,0,0,1,3.385-3.385h7.9a4.466,4.466,0,0,0,2.256-.627V36.3a8.9,8.9,0,0,0,1.841,5.395Z" transform="translate(0)"/>
        <path id="Trazado_5769" data-name="Trazado 5769" d="M104.8,67.613A3.385,3.385,0,1,0,108.188,71,3.389,3.389,0,0,0,104.8,67.613Zm0,4.513A1.128,1.128,0,1,1,105.932,71,1.129,1.129,0,0,1,104.8,72.126Z" transform="translate(-47.267 -31.511)"/>
        <path id="Trazado_5770" data-name="Trazado 5770" d="M23.672,67.613H21.416v1.128a1.128,1.128,0,0,1-2.256,0V67.613H16.9v1.128a3.385,3.385,0,1,0,6.769,0Z" transform="translate(-7.878 -31.511)"/>
        <path id="Trazado_5771" data-name="Trazado 5771" d="M46.771,68.741a1.128,1.128,0,0,1-2.256,0V67.613H42.258v1.128a3.385,3.385,0,0,0,6.769,0V67.613H46.771Z" transform="translate(-19.695 -31.511)"/>
      </g>
    </g>
  </g>
</svg>
