<svg xmlns="http://www.w3.org/2000/svg" xmlns:xlink="http://www.w3.org/1999/xlink" width="676" height="382.258" viewBox="0 0 676 382.258">
  <defs>
    <filter id="Rect치ngulo_5623" x="209.221" y="0" width="275.067" height="382.258" filterUnits="userSpaceOnUse">
      <feOffset dy="3" input="SourceAlpha"/>
      <feGaussianBlur stdDeviation="3" result="blur"/>
      <feFlood flood-opacity="0.161"/>
      <feComposite operator="in" in2="blur"/>
      <feComposite in="SourceGraphic"/>
    </filter>
  </defs>
  <g id="Grupo_23525" data-name="Grupo 23525" transform="translate(-264.951 -1665)">
    <path id="Trazado_827373" data-name="Trazado 827373" d="M4.182-10.664l2.38,7.419,2.373-7.419h3.384V0H9.741V-2.49l.249-5.1L7.412,0h-1.7L3.127-7.6l.249,5.1V0H.806V-10.664ZM17.673.146A4.074,4.074,0,0,1,14.722-.941a3.756,3.756,0,0,1-1.128-2.831v-.205a4.867,4.867,0,0,1,.45-2.146,3.3,3.3,0,0,1,1.315-1.439,3.969,3.969,0,0,1,2.051-.509,3.43,3.43,0,0,1,2.637,1.036,4.073,4.073,0,0,1,.967,2.889v.959H16.106a1.779,1.779,0,0,0,.579,1.047,1.722,1.722,0,0,0,1.157.381,2.218,2.218,0,0,0,1.831-.82L20.8-1.245A3.153,3.153,0,0,1,19.493-.231,4.418,4.418,0,0,1,17.673.146ZM17.4-6.167q-1.084,0-1.289,1.436H18.6v-.19a1.223,1.223,0,0,0-.3-.919A1.2,1.2,0,0,0,17.4-6.167Zm-.029-5.09h2.607l-2.036,2.3-2.014,0Zm4.329,7.236a4.841,4.841,0,0,1,.813-2.966,2.676,2.676,0,0,1,2.271-1.084,2.276,2.276,0,0,1,1.787.835V-11.25h2.476V0H26.821L26.7-.85a2.337,2.337,0,0,1-1.934,1A2.671,2.671,0,0,1,22.522-.937,4.994,4.994,0,0,1,21.694-4.021Zm2.468.154q0,2.109,1.23,2.109a1.215,1.215,0,0,0,1.172-.688V-5.464a1.182,1.182,0,0,0-1.157-.7q-1.143,0-1.238,1.846ZM33.047,0H30.571V-7.925h2.476ZM30.425-9.976a1.111,1.111,0,0,1,.381-.87,1.432,1.432,0,0,1,.989-.339,1.432,1.432,0,0,1,.989.339,1.111,1.111,0,0,1,.381.87,1.111,1.111,0,0,1-.381.87,1.432,1.432,0,0,1-.989.339,1.432,1.432,0,0,1-.989-.339A1.111,1.111,0,0,1,30.425-9.976Zm7.493,8.218a1.1,1.1,0,0,0,.806-.282A1.034,1.034,0,0,0,39-2.827h2.314a2.74,2.74,0,0,1-.934,2.139,3.474,3.474,0,0,1-2.406.835A3.517,3.517,0,0,1,35.251-.937a4.271,4.271,0,0,1-1-3v-.1a4.827,4.827,0,0,1,.443-2.12,3.226,3.226,0,0,1,1.278-1.414,3.811,3.811,0,0,1,1.978-.494,3.43,3.43,0,0,1,2.454.857,3.039,3.039,0,0,1,.908,2.322H39a1.355,1.355,0,0,0-.3-.945,1.037,1.037,0,0,0-.806-.33q-.959,0-1.121,1.223a8.631,8.631,0,0,0-.051,1.069,3.39,3.39,0,0,0,.286,1.655A.989.989,0,0,0,37.917-1.758Zm4.131-2.278a4.677,4.677,0,0,1,.461-2.113,3.3,3.3,0,0,1,1.326-1.425,3.993,3.993,0,0,1,2.029-.5,3.644,3.644,0,0,1,2.805,1.1,4.23,4.23,0,0,1,1.025,3v.088A4.1,4.1,0,0,1,48.666-.941,3.654,3.654,0,0,1,45.879.146,3.7,3.7,0,0,1,43.162-.868a3.968,3.968,0,0,1-1.106-2.75Zm2.468.154a2.949,2.949,0,0,0,.344,1.611,1.147,1.147,0,0,0,1.018.513q1.318,0,1.348-2.029v-.249q0-2.131-1.362-2.131-1.238,0-1.34,1.838Z" transform="translate(309.581 1957.244)" fill="#00104e"/>
    <path id="Trazado_827372" data-name="Trazado 827372" d="M3.151-3.377V0H.752V-9.953H4.724a4.626,4.626,0,0,1,2.02.42,3.168,3.168,0,0,1,1.36,1.2,3.267,3.267,0,0,1,.482,1.76A2.88,2.88,0,0,1,7.543-4.249a4.326,4.326,0,0,1-2.861.872Zm0-1.853H4.724a1.483,1.483,0,0,0,1.063-.349,1.3,1.3,0,0,0,.366-.984,1.6,1.6,0,0,0-.376-1.114A1.331,1.331,0,0,0,4.751-8.1h-1.6ZM13.85,0a2.6,2.6,0,0,1-.219-.663,2.142,2.142,0,0,1-1.777.8A2.624,2.624,0,0,1,10.076-.5a2.013,2.013,0,0,1-.731-1.589A2.069,2.069,0,0,1,10.233-3.9a4.527,4.527,0,0,1,2.584-.615h.711V-4.91q0-1.023-.882-1.023a.721.721,0,0,0-.82.811h-2.3a2.065,2.065,0,0,1,.913-1.741,3.835,3.835,0,0,1,2.328-.669A3.363,3.363,0,0,1,15-6.843a2.4,2.4,0,0,1,.841,1.894v3.274a3.353,3.353,0,0,0,.314,1.559V0ZM12.407-1.5a1.285,1.285,0,0,0,.714-.185,1.157,1.157,0,0,0,.407-.417V-3.288h-.67q-1.2,0-1.2,1.08a.659.659,0,0,0,.212.509A.767.767,0,0,0,12.407-1.5Zm7.834-.137a1.025,1.025,0,0,0,.752-.263.965.965,0,0,0,.26-.735h2.16a2.557,2.557,0,0,1-.872,2A3.242,3.242,0,0,1,20.3.137,3.282,3.282,0,0,1,17.753-.875a3.986,3.986,0,0,1-.93-2.8v-.1a4.505,4.505,0,0,1,.414-1.979A3.011,3.011,0,0,1,18.43-7.072a3.557,3.557,0,0,1,1.846-.461,3.2,3.2,0,0,1,2.29.8,2.837,2.837,0,0,1,.848,2.167h-2.16a1.265,1.265,0,0,0-.28-.882.967.967,0,0,0-.752-.308q-.9,0-1.046,1.142a8.056,8.056,0,0,0-.048,1,3.164,3.164,0,0,0,.267,1.545A.923.923,0,0,0,20.241-1.641ZM26.817,0H24.507V-7.4h2.311ZM24.37-9.311a1.037,1.037,0,0,1,.355-.812,1.336,1.336,0,0,1,.923-.316,1.336,1.336,0,0,1,.923.316,1.037,1.037,0,0,1,.355.812,1.037,1.037,0,0,1-.355.812,1.336,1.336,0,0,1-.923.316,1.336,1.336,0,0,1-.923-.316A1.037,1.037,0,0,1,24.37-9.311ZM31.814.137A3.8,3.8,0,0,1,29.06-.878a3.506,3.506,0,0,1-1.053-2.642v-.191a4.542,4.542,0,0,1,.42-2,3.076,3.076,0,0,1,1.227-1.343,3.7,3.7,0,0,1,1.914-.475,3.2,3.2,0,0,1,2.461.967,3.8,3.8,0,0,1,.9,2.7v.9h-4.58a1.66,1.66,0,0,0,.54.978,1.607,1.607,0,0,0,1.08.355,2.07,2.07,0,0,0,1.709-.766l1.053,1.244a2.943,2.943,0,0,1-1.22.947A4.123,4.123,0,0,1,31.814.137Zm-.26-5.893q-1.012,0-1.2,1.34h2.324v-.178a1.141,1.141,0,0,0-.28-.858A1.115,1.115,0,0,0,31.555-5.756ZM37.974-7.4l.075.868a2.508,2.508,0,0,1,2.112-1,2.11,2.11,0,0,1,1.726.69,3.287,3.287,0,0,1,.591,2.078V0H40.168V-4.669a1.248,1.248,0,0,0-.226-.824,1.044,1.044,0,0,0-.82-.263,1.1,1.1,0,0,0-1,.533V0h-2.3V-7.4Zm8.463-1.839V-7.4h1.217v1.6H46.437v3.384a.864.864,0,0,0,.15.581.807.807,0,0,0,.595.164,3.38,3.38,0,0,0,.574-.041V-.062a4.252,4.252,0,0,1-1.3.2A2.413,2.413,0,0,1,44.7-.424a2.3,2.3,0,0,1-.567-1.7V-5.8h-.943V-7.4h.943V-9.235Zm5.7,9.372A3.8,3.8,0,0,1,49.383-.878,3.506,3.506,0,0,1,48.33-3.521v-.191a4.542,4.542,0,0,1,.42-2,3.076,3.076,0,0,1,1.227-1.343,3.7,3.7,0,0,1,1.914-.475,3.2,3.2,0,0,1,2.461.967,3.8,3.8,0,0,1,.9,2.7v.9h-4.58a1.66,1.66,0,0,0,.54.978,1.607,1.607,0,0,0,1.08.355A2.07,2.07,0,0,0,54-2.406l1.053,1.244a2.943,2.943,0,0,1-1.22.947A4.123,4.123,0,0,1,52.138.137Zm-.26-5.893q-1.012,0-1.2,1.34H53v-.178a1.141,1.141,0,0,0-.28-.858A1.115,1.115,0,0,0,51.878-5.756Z" transform="translate(831.304 1956.244)" fill="#00104e"/>
    <g id="Grupo_23509" data-name="Grupo 23509" transform="translate(483.172 1671)">
      <g transform="matrix(1, 0, 0, 1, -218.22, -6)" filter="url(#Rect치ngulo_5623)">
        <g id="Rect치ngulo_5623-2" data-name="Rect치ngulo 5623" transform="translate(218.22 6)" fill="#ffedb7" stroke="#ffa726" stroke-width="3">
          <rect width="257.067" height="364.257" rx="10" stroke="none"/>
          <rect x="1.5" y="1.5" width="254.067" height="361.257" rx="8.5" fill="none"/>
        </g>
      </g>
      <g id="Elipse_1276" data-name="Elipse 1276" transform="translate(34.149 19.92)" fill="#fff" stroke="#4dd0e1" stroke-width="3">
        <ellipse cx="91.539" cy="36.046" rx="91.539" ry="36.046" stroke="none"/>
        <ellipse cx="91.539" cy="36.046" rx="90.039" ry="34.546" fill="none"/>
      </g>
      <g id="Elipse_1277" data-name="Elipse 1277" transform="translate(34.149 101.499)" fill="#fff" stroke="#4dd0e1" stroke-width="3">
        <ellipse cx="91.539" cy="36.046" rx="91.539" ry="36.046" stroke="none"/>
        <ellipse cx="91.539" cy="36.046" rx="90.039" ry="34.546" fill="none"/>
      </g>
      <g id="Elipse_1278" data-name="Elipse 1278" transform="translate(34.149 183.077)" fill="#fff" stroke="#4dd0e1" stroke-width="3">
        <ellipse cx="91.539" cy="36.046" rx="91.539" ry="36.046" stroke="none"/>
        <ellipse cx="91.539" cy="36.046" rx="90.039" ry="34.546" fill="none"/>
      </g>
      <g id="Elipse_1279" data-name="Elipse 1279" transform="translate(34.149 264.656)" fill="#fff" stroke="#4dd0e1" stroke-width="3">
        <ellipse cx="91.539" cy="36.046" rx="91.539" ry="36.046" stroke="none"/>
        <ellipse cx="91.539" cy="36.046" rx="90.039" ry="34.546" fill="none"/>
      </g>
      <path id="Trazado_827374" data-name="Trazado 827374" d="M-30.56-2.051h-3.6L-34.839,0H-37.02l3.705-9.953h1.9L-27.689,0H-29.87ZM-33.6-3.712h2.488l-1.251-3.726Zm6.405-.041a4.457,4.457,0,0,1,.776-2.755A2.517,2.517,0,0,1-24.3-7.533a2.265,2.265,0,0,1,1.784.807V-10.5h1.982V0h-1.784l-.1-.786a2.325,2.325,0,0,1-1.9.923,2.511,2.511,0,0,1-2.1-1.029A4.6,4.6,0,0,1-27.2-3.753Zm1.976.141a2.936,2.936,0,0,0,.362,1.6,1.179,1.179,0,0,0,1.053.556,1.321,1.321,0,0,0,1.292-.776V-5.164a1.3,1.3,0,0,0-1.278-.776Q-25.221-5.94-25.221-3.612ZM-17.148-7.4l.062.827a2.6,2.6,0,0,1,2.126-.964A1.973,1.973,0,0,1-13-6.405a2.54,2.54,0,0,1,2.222-1.128,2.206,2.206,0,0,1,1.791.7A3.221,3.221,0,0,1-8.4-4.724V0H-10.38V-4.728a1.414,1.414,0,0,0-.246-.922,1.089,1.089,0,0,0-.868-.291,1.233,1.233,0,0,0-1.23.85L-12.718,0h-1.976V-4.721a1.4,1.4,0,0,0-.253-.932,1.1,1.1,0,0,0-.861-.288,1.28,1.28,0,0,0-1.217.7V0H-19V-7.4ZM-4.8,0H-6.778V-7.4H-4.8Zm-2.1-9.311a.973.973,0,0,1,.3-.731,1.117,1.117,0,0,1,.81-.287,1.12,1.12,0,0,1,.807.287.967.967,0,0,1,.3.731.97.97,0,0,1-.3.738,1.122,1.122,0,0,1-.8.287,1.122,1.122,0,0,1-.8-.287A.97.97,0,0,1-6.894-9.311ZM-1.35-7.4l.062.854A2.582,2.582,0,0,1,.837-7.533a2.146,2.146,0,0,1,1.75.69,3.221,3.221,0,0,1,.588,2.064V0H1.2V-4.741a1.287,1.287,0,0,0-.273-.915A1.222,1.222,0,0,0,.017-5.94a1.359,1.359,0,0,0-1.251.713V0H-3.209V-7.4ZM6.757,0H4.775V-7.4H6.757Zm-2.1-9.311a.973.973,0,0,1,.3-.731,1.117,1.117,0,0,1,.81-.287,1.12,1.12,0,0,1,.807.287.967.967,0,0,1,.3.731.97.97,0,0,1-.3.738,1.122,1.122,0,0,1-.8.287,1.122,1.122,0,0,1-.8-.287A.97.97,0,0,1,4.659-9.311ZM12.39-2.044a.637.637,0,0,0-.359-.571,4.077,4.077,0,0,0-1.152-.373Q8.241-3.541,8.241-5.229a2.032,2.032,0,0,1,.817-1.644,3.3,3.3,0,0,1,2.136-.66,3.547,3.547,0,0,1,2.252.663,2.09,2.09,0,0,1,.844,1.723H12.315a.956.956,0,0,0-.273-.7,1.157,1.157,0,0,0-.854-.277,1.182,1.182,0,0,0-.772.226.712.712,0,0,0-.273.574.609.609,0,0,0,.311.53,3.2,3.2,0,0,0,1.049.349,8.571,8.571,0,0,1,1.244.332,2.044,2.044,0,0,1,1.565,1.989,1.929,1.929,0,0,1-.868,1.637A3.745,3.745,0,0,1,11.2.137,3.912,3.912,0,0,1,9.55-.195,2.77,2.77,0,0,1,8.418-1.1a2.113,2.113,0,0,1-.41-1.248H9.881a1.031,1.031,0,0,0,.39.807,1.546,1.546,0,0,0,.971.28A1.43,1.43,0,0,0,12.1-1.48.67.67,0,0,0,12.39-2.044Zm5.558-7.171V-7.4h1.265v1.449H17.948v3.691a.881.881,0,0,0,.157.588.79.79,0,0,0,.6.178,3.151,3.151,0,0,0,.581-.048v1.5a4.067,4.067,0,0,1-1.2.178,1.886,1.886,0,0,1-2.119-2.1V-5.947h-1.08V-7.4h1.08V-9.215Zm6.521,3.671a5.367,5.367,0,0,0-.711-.055,1.447,1.447,0,0,0-1.47.759V0H20.313V-7.4h1.866l.055.882a1.831,1.831,0,0,1,1.647-1.019,2.07,2.07,0,0,1,.615.089ZM29.5,0a2.194,2.194,0,0,1-.2-.663,2.39,2.39,0,0,1-1.866.8,2.626,2.626,0,0,1-1.8-.629,2.023,2.023,0,0,1-.714-1.586,2.09,2.09,0,0,1,.872-1.8,4.3,4.3,0,0,1,2.519-.636h.909v-.424a1.219,1.219,0,0,0-.263-.82,1.035,1.035,0,0,0-.831-.308,1.177,1.177,0,0,0-.783.239.813.813,0,0,0-.284.656H25.084a1.984,1.984,0,0,1,.4-1.189A2.621,2.621,0,0,1,26.6-7.222a4.086,4.086,0,0,1,1.627-.311,3.228,3.228,0,0,1,2.17.687,2.4,2.4,0,0,1,.8,1.931v3.206A3.536,3.536,0,0,0,31.5-.116V0ZM27.867-1.374a1.7,1.7,0,0,0,.807-.195,1.28,1.28,0,0,0,.547-.523V-3.363h-.738Q27-3.363,26.9-2.338l-.007.116a.791.791,0,0,0,.26.608A1.009,1.009,0,0,0,27.867-1.374Zm9.01-4.17a5.367,5.367,0,0,0-.711-.055,1.447,1.447,0,0,0-1.47.759V0H32.72V-7.4h1.866l.055.882a1.831,1.831,0,0,1,1.647-1.019,2.07,2.07,0,0,1,.615.089ZM-51.5,12.247a4.457,4.457,0,0,1,.776-2.755A2.517,2.517,0,0,1-48.6,8.467a2.265,2.265,0,0,1,1.784.807V5.5h1.982V16h-1.784l-.1-.786a2.325,2.325,0,0,1-1.9.923,2.511,2.511,0,0,1-2.1-1.029A4.6,4.6,0,0,1-51.5,12.247Zm1.976.141a2.936,2.936,0,0,0,.362,1.6,1.179,1.179,0,0,0,1.053.556,1.321,1.321,0,0,0,1.292-.776V10.836a1.3,1.3,0,0,0-1.278-.776Q-49.52,10.06-49.52,12.388ZM-39.013,16a2.194,2.194,0,0,1-.2-.663,2.39,2.39,0,0,1-1.866.8,2.626,2.626,0,0,1-1.8-.629,2.023,2.023,0,0,1-.714-1.586,2.09,2.09,0,0,1,.872-1.8,4.3,4.3,0,0,1,2.519-.636h.909v-.424a1.219,1.219,0,0,0-.263-.82,1.035,1.035,0,0,0-.831-.308,1.177,1.177,0,0,0-.783.239.813.813,0,0,0-.284.656h-1.976a1.984,1.984,0,0,1,.4-1.189,2.621,2.621,0,0,1,1.121-.858,4.086,4.086,0,0,1,1.627-.311,3.228,3.228,0,0,1,2.17.687,2.4,2.4,0,0,1,.8,1.931v3.206a3.536,3.536,0,0,0,.294,1.593V16Zm-1.634-1.374a1.7,1.7,0,0,0,.807-.195,1.28,1.28,0,0,0,.547-.523V12.637h-.738q-1.483,0-1.579,1.025l-.007.116a.791.791,0,0,0,.26.608A1.009,1.009,0,0,0-40.646,14.626Zm7.219-7.841V8.6h1.265v1.449h-1.265v3.691a.881.881,0,0,0,.157.588.79.79,0,0,0,.6.178,3.15,3.15,0,0,0,.581-.048v1.5a4.067,4.067,0,0,1-1.2.178,1.886,1.886,0,0,1-2.119-2.1V10.053h-1.08V8.6h1.08V6.785Zm1.853,5.448a4.387,4.387,0,0,1,.424-1.962,3.1,3.1,0,0,1,1.22-1.333,3.56,3.56,0,0,1,1.849-.472,3.368,3.368,0,0,1,2.444.916,3.676,3.676,0,0,1,1.056,2.488l.014.506a3.866,3.866,0,0,1-.95,2.731,3.3,3.3,0,0,1-2.55,1.029,3.319,3.319,0,0,1-2.553-1.025,3.934,3.934,0,0,1-.954-2.789Zm1.976.14a2.765,2.765,0,0,0,.4,1.612,1.308,1.308,0,0,0,1.135.558,1.311,1.311,0,0,0,1.121-.551,3.025,3.025,0,0,0,.4-1.763,2.737,2.737,0,0,0-.4-1.6,1.311,1.311,0,0,0-1.135-.568,1.29,1.29,0,0,0-1.121.565A3.076,3.076,0,0,0-29.6,12.374Zm10.254,1.582a.637.637,0,0,0-.359-.571,4.077,4.077,0,0,0-1.152-.373q-2.639-.554-2.639-2.242a2.032,2.032,0,0,1,.817-1.644,3.3,3.3,0,0,1,2.136-.66,3.547,3.547,0,0,1,2.252.663,2.09,2.09,0,0,1,.844,1.723h-1.976a.956.956,0,0,0-.273-.7,1.157,1.157,0,0,0-.854-.277,1.182,1.182,0,0,0-.772.226.712.712,0,0,0-.273.574.609.609,0,0,0,.311.53,3.2,3.2,0,0,0,1.049.349,8.571,8.571,0,0,1,1.244.332,2.044,2.044,0,0,1,1.565,1.989,1.929,1.929,0,0,1-.868,1.637,3.745,3.745,0,0,1-2.242.625,3.912,3.912,0,0,1-1.651-.332,2.77,2.77,0,0,1-1.131-.909,2.113,2.113,0,0,1-.41-1.248h1.873a1.031,1.031,0,0,0,.39.807,1.546,1.546,0,0,0,.971.28,1.43,1.43,0,0,0,.858-.215A.67.67,0,0,0-19.346,13.956ZM-6.009,12.37a4.436,4.436,0,0,1-.776,2.738,2.488,2.488,0,0,1-2.1,1.029,2.3,2.3,0,0,1-1.812-.779v3.486h-1.976V8.6h1.832l.068.725a2.322,2.322,0,0,1,1.873-.861A2.5,2.5,0,0,1-6.768,9.479a4.556,4.556,0,0,1,.759,2.789Zm-1.976-.151a2.927,2.927,0,0,0-.366-1.6,1.19,1.19,0,0,0-1.063-.562,1.293,1.293,0,0,0-1.278.713V13.81a1.315,1.315,0,0,0,1.292.734Q-7.984,14.544-7.984,12.22ZM-.5,16a2.194,2.194,0,0,1-.2-.663,2.39,2.39,0,0,1-1.866.8,2.626,2.626,0,0,1-1.8-.629,2.023,2.023,0,0,1-.714-1.586,2.09,2.09,0,0,1,.872-1.8,4.3,4.3,0,0,1,2.519-.636h.909v-.424a1.219,1.219,0,0,0-.263-.82,1.035,1.035,0,0,0-.831-.308,1.177,1.177,0,0,0-.783.239.813.813,0,0,0-.284.656H-4.915a1.984,1.984,0,0,1,.4-1.189A2.621,2.621,0,0,1-3.4,8.778a4.086,4.086,0,0,1,1.627-.311A3.228,3.228,0,0,1,.4,9.154a2.4,2.4,0,0,1,.8,1.931v3.206A3.536,3.536,0,0,0,1.5,15.884V16Zm-1.634-1.374a1.7,1.7,0,0,0,.807-.195,1.28,1.28,0,0,0,.547-.523V12.637h-.738Q-3,12.637-3.1,13.662l-.007.116a.791.791,0,0,0,.26.608A1.009,1.009,0,0,0-2.133,14.626Zm7.93-.082a1.3,1.3,0,0,0,.889-.3,1.054,1.054,0,0,0,.355-.8H8.894a2.534,2.534,0,0,1-.41,1.377,2.706,2.706,0,0,1-1.1.971,3.455,3.455,0,0,1-1.548.345,3.211,3.211,0,0,1-2.5-1.008,3.99,3.99,0,0,1-.916-2.786v-.13a3.944,3.944,0,0,1,.909-2.728,3.174,3.174,0,0,1,2.5-1.019,3.111,3.111,0,0,1,2.225.79,2.8,2.8,0,0,1,.851,2.1H7.041a1.358,1.358,0,0,0-.355-.938,1.185,1.185,0,0,0-.9-.361,1.19,1.19,0,0,0-1.042.5A2.916,2.916,0,0,0,4.389,12.2V12.4a2.953,2.953,0,0,0,.349,1.643A1.2,1.2,0,0,0,5.8,14.544ZM12.106,16H10.124V8.6h1.982Zm-2.1-9.311a.973.973,0,0,1,.3-.731,1.117,1.117,0,0,1,.81-.287,1.12,1.12,0,0,1,.807.287,1.044,1.044,0,0,1,0,1.47,1.267,1.267,0,0,1-1.606,0A.97.97,0,0,1,10.008,6.689Zm7.13,9.447a3.631,3.631,0,0,1-2.649-1,3.548,3.548,0,0,1-1.022-2.659v-.191A4.468,4.468,0,0,1,13.9,10.3a3.161,3.161,0,0,1,1.22-1.354,3.425,3.425,0,0,1,1.8-.475,3.07,3.07,0,0,1,2.389.957,3.889,3.889,0,0,1,.872,2.714v.807H15.47a1.835,1.835,0,0,0,.578,1.162,1.746,1.746,0,0,0,1.22.438,2.132,2.132,0,0,0,1.784-.827l.971,1.087a2.966,2.966,0,0,1-1.2.981A3.947,3.947,0,0,1,17.138,16.137Zm-.226-6.077a1.234,1.234,0,0,0-.954.4,2.062,2.062,0,0,0-.468,1.14h2.748V11.44a1.471,1.471,0,0,0-.355-1.02A1.274,1.274,0,0,0,16.912,10.06ZM23.119,8.6l.062.854a2.582,2.582,0,0,1,2.126-.991,2.146,2.146,0,0,1,1.75.69,3.221,3.221,0,0,1,.588,2.064V16H25.669V11.259a1.287,1.287,0,0,0-.273-.915,1.222,1.222,0,0,0-.909-.284,1.359,1.359,0,0,0-1.251.713V16H21.26V8.6Zm8.388-1.818V8.6h1.265v1.449H31.507v3.691a.881.881,0,0,0,.157.588.79.79,0,0,0,.6.178,3.15,3.15,0,0,0,.581-.048v1.5a4.067,4.067,0,0,1-1.2.178,1.886,1.886,0,0,1-2.119-2.1V10.053h-1.08V8.6h1.08V6.785Zm5.77,9.352a3.631,3.631,0,0,1-2.649-1,3.548,3.548,0,0,1-1.022-2.659v-.191a4.468,4.468,0,0,1,.431-1.993,3.161,3.161,0,0,1,1.22-1.354,3.425,3.425,0,0,1,1.8-.475,3.07,3.07,0,0,1,2.389.957,3.889,3.889,0,0,1,.872,2.714v.807h-4.71a1.835,1.835,0,0,0,.578,1.162,1.746,1.746,0,0,0,1.22.438,2.132,2.132,0,0,0,1.784-.827l.971,1.087a2.966,2.966,0,0,1-1.2.981A3.947,3.947,0,0,1,37.276,16.137Zm-.226-6.077a1.234,1.234,0,0,0-.954.4,2.062,2.062,0,0,0-.468,1.14h2.748V11.44a1.471,1.471,0,0,0-.355-1.02A1.274,1.274,0,0,0,37.051,10.06Zm8.395,3.9a.637.637,0,0,0-.359-.571,4.077,4.077,0,0,0-1.152-.373Q41.3,12.459,41.3,10.771a2.032,2.032,0,0,1,.817-1.644,3.3,3.3,0,0,1,2.136-.66A3.547,3.547,0,0,1,46.5,9.13a2.09,2.09,0,0,1,.844,1.723H45.37a.956.956,0,0,0-.273-.7,1.157,1.157,0,0,0-.854-.277,1.182,1.182,0,0,0-.772.226.712.712,0,0,0-.273.574.609.609,0,0,0,.311.53,3.2,3.2,0,0,0,1.049.349,8.571,8.571,0,0,1,1.244.332,2.044,2.044,0,0,1,1.565,1.989,1.929,1.929,0,0,1-.868,1.637,3.745,3.745,0,0,1-2.242.625,3.912,3.912,0,0,1-1.651-.332,2.77,2.77,0,0,1-1.131-.909,2.113,2.113,0,0,1-.41-1.248h1.873a1.031,1.031,0,0,0,.39.807,1.546,1.546,0,0,0,.971.28,1.43,1.43,0,0,0,.858-.215A.67.67,0,0,0,45.445,13.956Zm3.295,1.073a1,1,0,0,1,.318-.766,1.235,1.235,0,0,1,1.6,0,1,1,0,0,1,.318.766.981.981,0,0,1-.314.755,1.256,1.256,0,0,1-1.606,0A.981.981,0,0,1,48.74,15.029Z" transform="translate(122.195 48.098)" fill="#00104e"/>
      <path id="Trazado_827375" data-name="Trazado 827375" d="M-32.743-2.2H-36.6L-37.328,0h-2.336l3.97-10.664h2.036L-29.667,0H-32ZM-36-3.977h2.666l-1.34-3.992Zm6.863-.044a4.776,4.776,0,0,1,.831-2.952,2.7,2.7,0,0,1,2.274-1.1,2.427,2.427,0,0,1,1.912.864V-11.25H-22V0H-23.91l-.1-.842a2.491,2.491,0,0,1-2.036.989,2.69,2.69,0,0,1-2.245-1.1A4.93,4.93,0,0,1-29.139-4.021Zm2.117.151a3.146,3.146,0,0,0,.388,1.714,1.263,1.263,0,0,0,1.128.6,1.416,1.416,0,0,0,1.384-.831V-5.533a1.4,1.4,0,0,0-1.37-.831Q-27.023-6.365-27.023-3.87Zm8.65-4.054.066.886a2.785,2.785,0,0,1,2.278-1.033,2.114,2.114,0,0,1,2.1,1.208,2.721,2.721,0,0,1,2.38-1.208,2.364,2.364,0,0,1,1.919.751A3.451,3.451,0,0,1-9-5.061V0h-2.124V-5.065a1.515,1.515,0,0,0-.264-.987,1.167,1.167,0,0,0-.93-.312,1.321,1.321,0,0,0-1.318.91L-13.627,0h-2.117V-5.058a1.5,1.5,0,0,0-.271-1,1.178,1.178,0,0,0-.923-.308,1.371,1.371,0,0,0-1.3.749V0h-2.117V-7.925ZM-5.138,0H-7.262V-7.925h2.124ZM-7.386-9.976a1.042,1.042,0,0,1,.319-.784,1.2,1.2,0,0,1,.868-.308,1.2,1.2,0,0,1,.864.308,1.036,1.036,0,0,1,.322.784,1.039,1.039,0,0,1-.326.791,1.2,1.2,0,0,1-.861.308,1.2,1.2,0,0,1-.861-.308A1.039,1.039,0,0,1-7.386-9.976Zm5.94,2.051.066.916A2.767,2.767,0,0,1,.9-8.071a2.3,2.3,0,0,1,1.875.74A3.451,3.451,0,0,1,3.4-5.12V0H1.285V-5.08a1.379,1.379,0,0,0-.293-.98,1.31,1.31,0,0,0-.974-.3,1.456,1.456,0,0,0-1.34.763V0H-3.439V-7.925ZM7.24,0H5.116V-7.925H7.24ZM4.991-9.976a1.042,1.042,0,0,1,.319-.784,1.2,1.2,0,0,1,.868-.308,1.2,1.2,0,0,1,.864.308,1.036,1.036,0,0,1,.322.784,1.039,1.039,0,0,1-.326.791,1.2,1.2,0,0,1-.861.308,1.2,1.2,0,0,1-.861-.308A1.039,1.039,0,0,1,4.991-9.976ZM13.275-2.19a.682.682,0,0,0-.385-.612,4.368,4.368,0,0,0-1.234-.4Q8.829-3.794,8.829-5.6A2.178,2.178,0,0,1,9.7-7.365a3.531,3.531,0,0,1,2.289-.707,3.8,3.8,0,0,1,2.413.71,2.239,2.239,0,0,1,.9,1.846H13.195a1.024,1.024,0,0,0-.293-.751,1.24,1.24,0,0,0-.916-.3,1.267,1.267,0,0,0-.828.242.763.763,0,0,0-.293.615.652.652,0,0,0,.333.568,3.428,3.428,0,0,0,1.124.374,9.183,9.183,0,0,1,1.333.355,2.19,2.19,0,0,1,1.677,2.131A2.067,2.067,0,0,1,14.4-.524a4.013,4.013,0,0,1-2.4.67,4.191,4.191,0,0,1-1.769-.355A2.968,2.968,0,0,1,9.02-1.183,2.263,2.263,0,0,1,8.58-2.52h2.007A1.105,1.105,0,0,0,11-1.655a1.656,1.656,0,0,0,1.04.3,1.533,1.533,0,0,0,.919-.231A.718.718,0,0,0,13.275-2.19ZM19.23-9.873v1.948h1.355v1.553H19.23v3.955a.944.944,0,0,0,.168.63.846.846,0,0,0,.645.19,3.376,3.376,0,0,0,.623-.051v1.6a4.358,4.358,0,0,1-1.282.19A2.021,2.021,0,0,1,17.113-2.1v-4.27H15.956V-7.925h1.157V-9.873ZM26.217-5.94A5.751,5.751,0,0,0,25.455-6a1.55,1.55,0,0,0-1.575.813V0H21.764V-7.925h2l.059.945a1.961,1.961,0,0,1,1.765-1.091,2.218,2.218,0,0,1,.659.1ZM31.608,0A2.351,2.351,0,0,1,31.4-.71a2.561,2.561,0,0,1-2,.857,2.814,2.814,0,0,1-1.93-.674,2.167,2.167,0,0,1-.765-1.7,2.24,2.24,0,0,1,.934-1.934,4.608,4.608,0,0,1,2.7-.681h.974V-5.3a1.306,1.306,0,0,0-.282-.879,1.109,1.109,0,0,0-.89-.33,1.261,1.261,0,0,0-.839.256.871.871,0,0,0-.3.7H26.876A2.126,2.126,0,0,1,27.3-6.819a2.808,2.808,0,0,1,1.2-.919,4.378,4.378,0,0,1,1.743-.333,3.459,3.459,0,0,1,2.325.736,2.575,2.575,0,0,1,.861,2.069v3.435a3.789,3.789,0,0,0,.315,1.707V0Zm-1.75-1.472a1.823,1.823,0,0,0,.864-.209,1.371,1.371,0,0,0,.586-.56V-3.6h-.791q-1.589,0-1.692,1.1l-.007.125a.847.847,0,0,0,.278.652A1.081,1.081,0,0,0,29.857-1.472ZM39.51-5.94A5.751,5.751,0,0,0,38.749-6a1.55,1.55,0,0,0-1.575.813V0H35.057V-7.925h2l.059.945a1.961,1.961,0,0,1,1.765-1.091,2.218,2.218,0,0,1,.659.1ZM-61.469,12.979a4.776,4.776,0,0,1,.831-2.952,2.7,2.7,0,0,1,2.274-1.1,2.427,2.427,0,0,1,1.912.864V5.75h2.124V17h-1.912l-.1-.842a2.491,2.491,0,0,1-2.036.989,2.69,2.69,0,0,1-2.245-1.1A4.93,4.93,0,0,1-61.469,12.979Zm2.117.151a3.146,3.146,0,0,0,.388,1.714,1.263,1.263,0,0,0,1.128.6,1.416,1.416,0,0,0,1.384-.831V11.467a1.4,1.4,0,0,0-1.37-.831Q-59.352,10.635-59.352,13.13ZM-48.094,17a2.351,2.351,0,0,1-.212-.71,2.561,2.561,0,0,1-2,.857,2.814,2.814,0,0,1-1.93-.674,2.167,2.167,0,0,1-.765-1.7,2.24,2.24,0,0,1,.934-1.934,4.608,4.608,0,0,1,2.7-.681h.974V11.7a1.306,1.306,0,0,0-.282-.879,1.109,1.109,0,0,0-.89-.33,1.261,1.261,0,0,0-.839.256.871.871,0,0,0-.3.7h-2.117a2.126,2.126,0,0,1,.425-1.274,2.808,2.808,0,0,1,1.2-.919,4.378,4.378,0,0,1,1.743-.333,3.459,3.459,0,0,1,2.325.736,2.575,2.575,0,0,1,.861,2.069v3.435a3.789,3.789,0,0,0,.315,1.707V17Zm-1.75-1.472a1.823,1.823,0,0,0,.864-.209,1.371,1.371,0,0,0,.586-.56V13.4h-.791q-1.589,0-1.692,1.1l-.007.125a.847.847,0,0,0,.278.652A1.081,1.081,0,0,0-49.845,15.528Zm7.734-8.4V9.075h1.355v1.553h-1.355v3.955a.944.944,0,0,0,.168.63.846.846,0,0,0,.645.19,3.376,3.376,0,0,0,.623-.051v1.6a4.358,4.358,0,0,1-1.282.19A2.021,2.021,0,0,1-44.227,14.9v-4.27h-1.157V9.075h1.157V7.127Zm1.985,5.837a4.7,4.7,0,0,1,.454-2.1,3.324,3.324,0,0,1,1.307-1.428,3.814,3.814,0,0,1,1.981-.505,3.609,3.609,0,0,1,2.618.981,3.939,3.939,0,0,1,1.132,2.666l.015.542a4.142,4.142,0,0,1-1.018,2.926,3.539,3.539,0,0,1-2.732,1.1,3.556,3.556,0,0,1-2.736-1.1,4.215,4.215,0,0,1-1.022-2.988Zm2.117.15a2.962,2.962,0,0,0,.425,1.727,1.4,1.4,0,0,0,1.216.6,1.4,1.4,0,0,0,1.2-.591,3.241,3.241,0,0,0,.432-1.889,2.933,2.933,0,0,0-.432-1.716,1.4,1.4,0,0,0-1.216-.609,1.382,1.382,0,0,0-1.2.605A3.3,3.3,0,0,0-38.009,13.115Zm10.986,1.7a.682.682,0,0,0-.385-.612,4.368,4.368,0,0,0-1.234-.4q-2.827-.593-2.827-2.4a2.178,2.178,0,0,1,.875-1.761A3.531,3.531,0,0,1-28.3,8.929a3.8,3.8,0,0,1,2.413.71,2.239,2.239,0,0,1,.9,1.846H-27.1a1.024,1.024,0,0,0-.293-.751,1.24,1.24,0,0,0-.916-.3,1.267,1.267,0,0,0-.828.242.763.763,0,0,0-.293.615.652.652,0,0,0,.333.568,3.428,3.428,0,0,0,1.124.374,9.183,9.183,0,0,1,1.333.355,2.19,2.19,0,0,1,1.677,2.131,2.067,2.067,0,0,1-.93,1.754,4.013,4.013,0,0,1-2.4.67,4.191,4.191,0,0,1-1.769-.355,2.968,2.968,0,0,1-1.212-.974,2.263,2.263,0,0,1-.439-1.337h2.007a1.105,1.105,0,0,0,.417.864,1.656,1.656,0,0,0,1.04.3,1.533,1.533,0,0,0,.919-.231A.718.718,0,0,0-27.023,14.81Zm9.69-7.683V9.075h1.355v1.553h-1.355v3.955a.944.944,0,0,0,.168.63.846.846,0,0,0,.645.19,3.376,3.376,0,0,0,.623-.051v1.6a4.358,4.358,0,0,1-1.282.19A2.021,2.021,0,0,1-19.449,14.9v-4.27h-1.157V9.075h1.157V7.127Zm6.987,3.933A5.751,5.751,0,0,0-11.107,11a1.55,1.55,0,0,0-1.575.813V17H-14.8V9.075h2l.059.945a1.961,1.961,0,0,1,1.765-1.091,2.218,2.218,0,0,1,.659.1ZM-4.955,17a2.351,2.351,0,0,1-.212-.71,2.561,2.561,0,0,1-2,.857,2.814,2.814,0,0,1-1.93-.674,2.167,2.167,0,0,1-.765-1.7,2.24,2.24,0,0,1,.934-1.934,4.608,4.608,0,0,1,2.7-.681h.974V11.7a1.306,1.306,0,0,0-.282-.879,1.109,1.109,0,0,0-.89-.33,1.261,1.261,0,0,0-.839.256.871.871,0,0,0-.3.7H-9.686a2.126,2.126,0,0,1,.425-1.274,2.808,2.808,0,0,1,1.2-.919,4.378,4.378,0,0,1,1.743-.333,3.459,3.459,0,0,1,2.325.736,2.575,2.575,0,0,1,.861,2.069v3.435a3.789,3.789,0,0,0,.315,1.707V17Zm-1.75-1.472a1.823,1.823,0,0,0,.864-.209,1.371,1.371,0,0,0,.586-.56V13.4h-.791q-1.589,0-1.692,1.1l-.007.125a.847.847,0,0,0,.278.652A1.081,1.081,0,0,0-6.705,15.528Zm7.734-8.4V9.075H2.384v1.553H1.029v3.955a.944.944,0,0,0,.168.63.846.846,0,0,0,.645.19,3.376,3.376,0,0,0,.623-.051v1.6a4.358,4.358,0,0,1-1.282.19A2.021,2.021,0,0,1-1.088,14.9v-4.27H-2.245V9.075h1.157V7.127ZM8.156,17a2.351,2.351,0,0,1-.212-.71,2.561,2.561,0,0,1-2,.857,2.814,2.814,0,0,1-1.93-.674,2.167,2.167,0,0,1-.765-1.7,2.24,2.24,0,0,1,.934-1.934,4.608,4.608,0,0,1,2.7-.681h.974V11.7a1.306,1.306,0,0,0-.282-.879,1.109,1.109,0,0,0-.89-.33,1.261,1.261,0,0,0-.839.256.871.871,0,0,0-.3.7H3.424a2.126,2.126,0,0,1,.425-1.274,2.808,2.808,0,0,1,1.2-.919,4.378,4.378,0,0,1,1.743-.333,3.459,3.459,0,0,1,2.325.736,2.575,2.575,0,0,1,.861,2.069v3.435a3.789,3.789,0,0,0,.315,1.707V17Zm-1.75-1.472a1.823,1.823,0,0,0,.864-.209,1.371,1.371,0,0,0,.586-.56V13.4H7.064q-1.589,0-1.692,1.1l-.007.125a.847.847,0,0,0,.278.652A1.081,1.081,0,0,0,6.405,15.528ZM13.59,9.075l.066.886a2.785,2.785,0,0,1,2.278-1.033,2.114,2.114,0,0,1,2.1,1.208,2.721,2.721,0,0,1,2.38-1.208,2.364,2.364,0,0,1,1.919.751,3.451,3.451,0,0,1,.63,2.26V17H20.841V11.935a1.515,1.515,0,0,0-.264-.987,1.167,1.167,0,0,0-.93-.312,1.321,1.321,0,0,0-1.318.91L18.336,17H16.219V11.942a1.5,1.5,0,0,0-.271-1,1.178,1.178,0,0,0-.923-.308,1.371,1.371,0,0,0-1.3.749V17H11.605V9.075ZM26.825,17H24.7V9.075h2.124ZM24.576,7.024a1.042,1.042,0,0,1,.319-.784,1.373,1.373,0,0,1,1.732,0,1.118,1.118,0,0,1,0,1.575,1.358,1.358,0,0,1-1.721,0A1.039,1.039,0,0,1,24.576,7.024Zm7.639,10.122a3.89,3.89,0,0,1-2.838-1.069,3.8,3.8,0,0,1-1.095-2.849v-.205a4.787,4.787,0,0,1,.461-2.135,3.386,3.386,0,0,1,1.307-1.45,3.669,3.669,0,0,1,1.93-.509,3.289,3.289,0,0,1,2.56,1.025,4.167,4.167,0,0,1,.934,2.908v.864H30.428a1.966,1.966,0,0,0,.619,1.245,1.871,1.871,0,0,0,1.307.469,2.285,2.285,0,0,0,1.912-.886l1.04,1.165a3.178,3.178,0,0,1-1.289,1.051A4.229,4.229,0,0,1,32.216,17.146Zm-.242-6.511a1.323,1.323,0,0,0-1.022.427,2.209,2.209,0,0,0-.5,1.221h2.944v-.169a1.576,1.576,0,0,0-.381-1.092A1.365,1.365,0,0,0,31.974,10.635Zm6.65-1.56.066.916a2.767,2.767,0,0,1,2.278-1.062,2.3,2.3,0,0,1,1.875.74,3.451,3.451,0,0,1,.63,2.212V17H41.356V11.92a1.379,1.379,0,0,0-.293-.98,1.31,1.31,0,0,0-.974-.3,1.456,1.456,0,0,0-1.34.763V17H36.632V9.075Zm8.987-1.948V9.075h1.355v1.553H47.611v3.955a.944.944,0,0,0,.168.63.846.846,0,0,0,.645.19,3.376,3.376,0,0,0,.623-.051v1.6a4.358,4.358,0,0,1-1.282.19A2.021,2.021,0,0,1,45.494,14.9v-4.27H44.337V9.075h1.157V7.127ZM49.6,12.964a4.7,4.7,0,0,1,.454-2.1,3.324,3.324,0,0,1,1.307-1.428,3.814,3.814,0,0,1,1.981-.505,3.609,3.609,0,0,1,2.618.981,3.939,3.939,0,0,1,1.132,2.666l.015.542a4.142,4.142,0,0,1-1.018,2.926,3.946,3.946,0,0,1-5.468,0A4.215,4.215,0,0,1,49.6,13.06Zm2.117.15a2.962,2.962,0,0,0,.425,1.727,1.526,1.526,0,0,0,2.417.007,3.241,3.241,0,0,0,.432-1.889,2.933,2.933,0,0,0-.432-1.716,1.4,1.4,0,0,0-1.216-.609,1.382,1.382,0,0,0-1.2.605A3.3,3.3,0,0,0,51.713,13.115Zm6.8,2.845a1.066,1.066,0,0,1,.341-.82,1.323,1.323,0,0,1,1.714,0,1.066,1.066,0,0,1,.341.82,1.051,1.051,0,0,1-.337.809,1.345,1.345,0,0,1-1.721,0A1.051,1.051,0,0,1,58.517,15.96Z" transform="translate(125.555 134.471)" fill="#00104e"/>
      <path id="Trazado_827376" data-name="Trazado 827376" d="M-43.707-1.348a3.814,3.814,0,0,1-1.677,1.1,7.024,7.024,0,0,1-2.4.392,4.759,4.759,0,0,1-2.428-.6,4.03,4.03,0,0,1-1.611-1.754,6.174,6.174,0,0,1-.582-2.7V-5.64A6.557,6.557,0,0,1-51.87-8.4a3.982,3.982,0,0,1,1.553-1.787,4.473,4.473,0,0,1,2.377-.619,4.454,4.454,0,0,1,2.966.9,3.866,3.866,0,0,1,1.267,2.633h-2.139a2.126,2.126,0,0,0-.648-1.34,2.07,2.07,0,0,0-1.381-.425,1.948,1.948,0,0,0-1.707.842,4.429,4.429,0,0,0-.593,2.5v.681a4.216,4.216,0,0,0,.637,2.534,2.182,2.182,0,0,0,1.868.857A2.437,2.437,0,0,0-45.9-2.146V-3.984h-2V-5.6h4.2ZM-38.419.146A3.89,3.89,0,0,1-41.257-.923a3.8,3.8,0,0,1-1.095-2.849v-.205a4.787,4.787,0,0,1,.461-2.135,3.386,3.386,0,0,1,1.307-1.45,3.669,3.669,0,0,1,1.93-.509,3.289,3.289,0,0,1,2.56,1.025,4.167,4.167,0,0,1,.934,2.908v.864h-5.046a1.966,1.966,0,0,0,.619,1.245,1.871,1.871,0,0,0,1.307.469,2.285,2.285,0,0,0,1.912-.886l1.04,1.165A3.178,3.178,0,0,1-36.617-.231,4.229,4.229,0,0,1-38.419.146Zm-.242-6.511a1.323,1.323,0,0,0-1.022.427,2.209,2.209,0,0,0-.5,1.221h2.944v-.169a1.576,1.576,0,0,0-.381-1.092A1.365,1.365,0,0,0-38.661-6.365Zm8.994,4.175a.682.682,0,0,0-.385-.612,4.368,4.368,0,0,0-1.234-.4q-2.827-.593-2.827-2.4a2.178,2.178,0,0,1,.875-1.761,3.531,3.531,0,0,1,2.289-.707,3.8,3.8,0,0,1,2.413.71,2.239,2.239,0,0,1,.9,1.846h-2.117a1.024,1.024,0,0,0-.293-.751,1.24,1.24,0,0,0-.916-.3,1.267,1.267,0,0,0-.828.242.763.763,0,0,0-.293.615.652.652,0,0,0,.333.568,3.428,3.428,0,0,0,1.124.374,9.183,9.183,0,0,1,1.333.355,2.19,2.19,0,0,1,1.677,2.131,2.067,2.067,0,0,1-.93,1.754,4.013,4.013,0,0,1-2.4.67A4.191,4.191,0,0,1-32.71-.209a2.968,2.968,0,0,1-1.212-.974,2.263,2.263,0,0,1-.439-1.337h2.007a1.105,1.105,0,0,0,.417.864,1.656,1.656,0,0,0,1.04.3,1.533,1.533,0,0,0,.919-.231A.718.718,0,0,0-29.667-2.19Zm5.955-7.683v1.948h1.355v1.553h-1.355v3.955a.944.944,0,0,0,.168.63.846.846,0,0,0,.645.19,3.376,3.376,0,0,0,.623-.051v1.6a4.358,4.358,0,0,1-1.282.19A2.021,2.021,0,0,1-25.829-2.1v-4.27h-1.157V-7.925h1.157V-9.873ZM-18.944,0h-2.124V-7.925h2.124Zm-2.249-9.976a1.042,1.042,0,0,1,.319-.784,1.2,1.2,0,0,1,.868-.308,1.2,1.2,0,0,1,.864.308,1.036,1.036,0,0,1,.322.784,1.039,1.039,0,0,1-.326.791,1.2,1.2,0,0,1-.861.308,1.2,1.2,0,0,1-.861-.308A1.039,1.039,0,0,1-21.193-9.976Zm3.662,5.94a4.7,4.7,0,0,1,.454-2.1,3.324,3.324,0,0,1,1.307-1.428,3.814,3.814,0,0,1,1.981-.505,3.609,3.609,0,0,1,2.618.981,3.939,3.939,0,0,1,1.132,2.666l.015.542A4.142,4.142,0,0,1-11.041-.956a3.539,3.539,0,0,1-2.732,1.1,3.556,3.556,0,0,1-2.736-1.1A4.215,4.215,0,0,1-17.531-3.94Zm2.117.15a2.962,2.962,0,0,0,.425,1.727,1.4,1.4,0,0,0,1.216.6,1.4,1.4,0,0,0,1.2-.591,3.241,3.241,0,0,0,.432-1.889,2.933,2.933,0,0,0-.432-1.716,1.4,1.4,0,0,0-1.216-.609,1.382,1.382,0,0,0-1.2.605A3.3,3.3,0,0,0-15.414-3.885Zm8.643-4.039.066.916A2.767,2.767,0,0,1-4.427-8.071a2.3,2.3,0,0,1,1.875.74,3.451,3.451,0,0,1,.63,2.212V0H-4.039V-5.08a1.379,1.379,0,0,0-.293-.98,1.31,1.31,0,0,0-.974-.3,1.456,1.456,0,0,0-1.34.763V0H-8.763V-7.925ZM4.274,0a2.351,2.351,0,0,1-.212-.71,2.561,2.561,0,0,1-2,.857A2.814,2.814,0,0,1,.132-.527a2.167,2.167,0,0,1-.765-1.7A2.24,2.24,0,0,1,.3-4.16,4.608,4.608,0,0,1,3-4.841h.974V-5.3a1.306,1.306,0,0,0-.282-.879A1.109,1.109,0,0,0,2.8-6.5a1.261,1.261,0,0,0-.839.256.871.871,0,0,0-.3.7H-.458A2.126,2.126,0,0,1-.033-6.819a2.808,2.808,0,0,1,1.2-.919,4.378,4.378,0,0,1,1.743-.333,3.459,3.459,0,0,1,2.325.736A2.575,2.575,0,0,1,6.1-5.266v3.435A3.789,3.789,0,0,0,6.412-.125V0ZM2.523-1.472a1.823,1.823,0,0,0,.864-.209,1.371,1.371,0,0,0,.586-.56V-3.6H3.182Q1.593-3.6,1.49-2.5l-.007.125a.847.847,0,0,0,.278.652A1.081,1.081,0,0,0,2.523-1.472ZM12.177-5.94A5.751,5.751,0,0,0,11.415-6a1.55,1.55,0,0,0-1.575.813V0H7.723V-7.925h2l.059.945a1.961,1.961,0,0,1,1.765-1.091,2.218,2.218,0,0,1,.659.1Zm8.049,4.38a1.388,1.388,0,0,0,.952-.322,1.129,1.129,0,0,0,.381-.857h1.985A2.715,2.715,0,0,1,23.1-1.263a2.9,2.9,0,0,1-1.183,1.04,3.7,3.7,0,0,1-1.659.37,3.44,3.44,0,0,1-2.681-1.08A4.275,4.275,0,0,1,16.6-3.918v-.139a4.226,4.226,0,0,1,.974-2.922,3.4,3.4,0,0,1,2.673-1.091,3.333,3.333,0,0,1,2.384.846,3,3,0,0,1,.912,2.252H21.559a1.455,1.455,0,0,0-.381-1.005,1.27,1.27,0,0,0-.967-.387,1.275,1.275,0,0,0-1.117.539,3.125,3.125,0,0,0-.377,1.749v.22A3.164,3.164,0,0,0,19.091-2.1,1.291,1.291,0,0,0,20.226-1.56ZM26.986,0H24.862V-7.925h2.124ZM24.738-9.976a1.042,1.042,0,0,1,.319-.784,1.2,1.2,0,0,1,.868-.308,1.2,1.2,0,0,1,.864.308,1.036,1.036,0,0,1,.322.784,1.039,1.039,0,0,1-.326.791,1.2,1.2,0,0,1-.861.308,1.2,1.2,0,0,1-.861-.308A1.039,1.039,0,0,1,24.738-9.976Zm6.526.1v1.948h1.355v1.553H31.263v3.955a.944.944,0,0,0,.168.63.846.846,0,0,0,.645.19,3.376,3.376,0,0,0,.623-.051v1.6a4.358,4.358,0,0,1-1.282.19A2.021,2.021,0,0,1,29.147-2.1v-4.27H27.99V-7.925h1.157V-9.873ZM38.39,0a2.351,2.351,0,0,1-.212-.71,2.561,2.561,0,0,1-2,.857,2.814,2.814,0,0,1-1.93-.674,2.167,2.167,0,0,1-.765-1.7,2.24,2.24,0,0,1,.934-1.934,4.608,4.608,0,0,1,2.7-.681h.974V-5.3a1.306,1.306,0,0,0-.282-.879,1.109,1.109,0,0,0-.89-.33,1.261,1.261,0,0,0-.839.256.871.871,0,0,0-.3.7H33.658a2.126,2.126,0,0,1,.425-1.274,2.808,2.808,0,0,1,1.2-.919,4.378,4.378,0,0,1,1.743-.333,3.459,3.459,0,0,1,2.325.736,2.575,2.575,0,0,1,.861,2.069v3.435a3.789,3.789,0,0,0,.315,1.707V0Zm-1.75-1.472a1.823,1.823,0,0,0,.864-.209,1.371,1.371,0,0,0,.586-.56V-3.6H37.3q-1.589,0-1.692,1.1L35.6-2.38a.847.847,0,0,0,.278.652A1.081,1.081,0,0,0,36.639-1.472Zm9.492-.718a.682.682,0,0,0-.385-.612,4.368,4.368,0,0,0-1.234-.4q-2.827-.593-2.827-2.4a2.178,2.178,0,0,1,.875-1.761,3.531,3.531,0,0,1,2.289-.707,3.8,3.8,0,0,1,2.413.71,2.239,2.239,0,0,1,.9,1.846H46.051a1.024,1.024,0,0,0-.293-.751,1.24,1.24,0,0,0-.916-.3,1.267,1.267,0,0,0-.828.242.763.763,0,0,0-.293.615.652.652,0,0,0,.333.568,3.428,3.428,0,0,0,1.124.374,9.183,9.183,0,0,1,1.333.355A2.19,2.19,0,0,1,48.19-2.278a2.067,2.067,0,0,1-.93,1.754,4.013,4.013,0,0,1-2.4.67,4.191,4.191,0,0,1-1.769-.355,2.968,2.968,0,0,1-1.212-.974,2.263,2.263,0,0,1-.439-1.337h2.007a1.105,1.105,0,0,0,.417.864,1.656,1.656,0,0,0,1.04.3,1.533,1.533,0,0,0,.919-.231A.718.718,0,0,0,46.132-2.19Zm3.53,1.15A1.066,1.066,0,0,1,50-1.86a1.208,1.208,0,0,1,.853-.315,1.218,1.218,0,0,1,.861.315,1.066,1.066,0,0,1,.341.82,1.051,1.051,0,0,1-.337.809,1.223,1.223,0,0,1-.864.311A1.213,1.213,0,0,1,50-.231,1.051,1.051,0,0,1,49.662-1.04Z" transform="translate(125.093 224.586)" fill="#00104e"/>
      <path id="Trazado_827377" data-name="Trazado 827377" d="M-55.942-1.348a3.814,3.814,0,0,1-1.677,1.1,7.024,7.024,0,0,1-2.4.392,4.759,4.759,0,0,1-2.428-.6,4.03,4.03,0,0,1-1.611-1.754,6.174,6.174,0,0,1-.582-2.7V-5.64A6.557,6.557,0,0,1-64.105-8.4a3.982,3.982,0,0,1,1.553-1.787,4.473,4.473,0,0,1,2.377-.619,4.454,4.454,0,0,1,2.966.9,3.866,3.866,0,0,1,1.267,2.633h-2.139a2.126,2.126,0,0,0-.648-1.34,2.07,2.07,0,0,0-1.381-.425,1.948,1.948,0,0,0-1.707.842,4.429,4.429,0,0,0-.593,2.5v.681a4.216,4.216,0,0,0,.637,2.534,2.182,2.182,0,0,0,1.868.857,2.437,2.437,0,0,0,1.765-.527V-3.984h-2V-5.6h4.2ZM-50.654.146A3.89,3.89,0,0,1-53.492-.923a3.8,3.8,0,0,1-1.095-2.849v-.205a4.787,4.787,0,0,1,.461-2.135,3.386,3.386,0,0,1,1.307-1.45,3.669,3.669,0,0,1,1.93-.509,3.289,3.289,0,0,1,2.56,1.025A4.167,4.167,0,0,1-47.4-4.138v.864h-5.046a1.966,1.966,0,0,0,.619,1.245,1.871,1.871,0,0,0,1.307.469A2.285,2.285,0,0,0-48.6-2.446l1.04,1.165A3.178,3.178,0,0,1-48.853-.231,4.229,4.229,0,0,1-50.654.146ZM-50.9-6.365a1.323,1.323,0,0,0-1.022.427,2.209,2.209,0,0,0-.5,1.221h2.944v-.169a1.576,1.576,0,0,0-.381-1.092A1.365,1.365,0,0,0-50.9-6.365ZM-41.9-2.19a.682.682,0,0,0-.385-.612,4.368,4.368,0,0,0-1.234-.4q-2.827-.593-2.827-2.4a2.178,2.178,0,0,1,.875-1.761,3.531,3.531,0,0,1,2.289-.707,3.8,3.8,0,0,1,2.413.71,2.239,2.239,0,0,1,.9,1.846h-2.117a1.024,1.024,0,0,0-.293-.751,1.24,1.24,0,0,0-.916-.3,1.267,1.267,0,0,0-.828.242.763.763,0,0,0-.293.615.652.652,0,0,0,.333.568,3.428,3.428,0,0,0,1.124.374,9.183,9.183,0,0,1,1.333.355,2.19,2.19,0,0,1,1.677,2.131,2.067,2.067,0,0,1-.93,1.754,4.013,4.013,0,0,1-2.4.67,4.191,4.191,0,0,1-1.769-.355,2.968,2.968,0,0,1-1.212-.974A2.263,2.263,0,0,1-46.6-2.52h2.007a1.105,1.105,0,0,0,.417.864,1.656,1.656,0,0,0,1.04.3,1.533,1.533,0,0,0,.919-.231A.718.718,0,0,0-41.9-2.19Zm5.955-7.683v1.948h1.355v1.553h-1.355v3.955a.944.944,0,0,0,.168.63.846.846,0,0,0,.645.19,3.376,3.376,0,0,0,.623-.051v1.6a4.358,4.358,0,0,1-1.282.19A2.021,2.021,0,0,1-38.064-2.1v-4.27h-1.157V-7.925h1.157V-9.873ZM-31.179,0H-33.3V-7.925h2.124Zm-2.249-9.976a1.042,1.042,0,0,1,.319-.784,1.2,1.2,0,0,1,.868-.308,1.2,1.2,0,0,1,.864.308,1.036,1.036,0,0,1,.322.784,1.039,1.039,0,0,1-.326.791,1.2,1.2,0,0,1-.861.308,1.2,1.2,0,0,1-.861-.308A1.039,1.039,0,0,1-33.428-9.976Zm3.662,5.94a4.7,4.7,0,0,1,.454-2.1A3.324,3.324,0,0,1-28-7.566a3.814,3.814,0,0,1,1.981-.505A3.609,3.609,0,0,1-23.4-7.09a3.939,3.939,0,0,1,1.132,2.666l.015.542A4.142,4.142,0,0,1-23.276-.956a3.539,3.539,0,0,1-2.732,1.1,3.556,3.556,0,0,1-2.736-1.1A4.215,4.215,0,0,1-29.766-3.94Zm2.117.15a2.962,2.962,0,0,0,.425,1.727,1.4,1.4,0,0,0,1.216.6,1.4,1.4,0,0,0,1.2-.591,3.241,3.241,0,0,0,.432-1.889,2.933,2.933,0,0,0-.432-1.716,1.4,1.4,0,0,0-1.216-.609,1.382,1.382,0,0,0-1.2.605A3.3,3.3,0,0,0-27.649-3.885Zm8.643-4.039.066.916a2.767,2.767,0,0,1,2.278-1.062,2.3,2.3,0,0,1,1.875.74,3.451,3.451,0,0,1,.63,2.212V0h-2.117V-5.08a1.379,1.379,0,0,0-.293-.98,1.31,1.31,0,0,0-.974-.3,1.456,1.456,0,0,0-1.34.763V0H-21V-7.925ZM-7.961,0a2.351,2.351,0,0,1-.212-.71,2.561,2.561,0,0,1-2,.857A2.814,2.814,0,0,1-12.1-.527a2.167,2.167,0,0,1-.765-1.7,2.24,2.24,0,0,1,.934-1.934,4.608,4.608,0,0,1,2.7-.681h.974V-5.3a1.306,1.306,0,0,0-.282-.879,1.109,1.109,0,0,0-.89-.33,1.261,1.261,0,0,0-.839.256.871.871,0,0,0-.3.7h-2.117a2.126,2.126,0,0,1,.425-1.274,2.808,2.808,0,0,1,1.2-.919,4.378,4.378,0,0,1,1.743-.333A3.459,3.459,0,0,1-7-7.335a2.575,2.575,0,0,1,.861,2.069v3.435A3.789,3.789,0,0,0-5.823-.125V0Zm-1.75-1.472a1.823,1.823,0,0,0,.864-.209,1.371,1.371,0,0,0,.586-.56V-3.6h-.791q-1.589,0-1.692,1.1l-.007.125a.847.847,0,0,0,.278.652A1.081,1.081,0,0,0-9.712-1.472ZM-.059-5.94A5.751,5.751,0,0,0-.82-6,1.55,1.55,0,0,0-2.4-5.186V0H-4.512V-7.925h2l.059.945A1.961,1.961,0,0,1-.688-8.071a2.218,2.218,0,0,1,.659.1Zm9.207,0A5.751,5.751,0,0,0,8.386-6a1.55,1.55,0,0,0-1.575.813V0H4.695V-7.925h2l.059.945A1.961,1.961,0,0,1,8.518-8.071a2.218,2.218,0,0,1,.659.1ZM13.674.146A3.89,3.89,0,0,1,10.836-.923,3.8,3.8,0,0,1,9.741-3.772v-.205A4.787,4.787,0,0,1,10.2-6.112a3.386,3.386,0,0,1,1.307-1.45,3.669,3.669,0,0,1,1.93-.509A3.289,3.289,0,0,1,16-7.046a4.167,4.167,0,0,1,.934,2.908v.864H11.887a1.966,1.966,0,0,0,.619,1.245,1.871,1.871,0,0,0,1.307.469,2.285,2.285,0,0,0,1.912-.886l1.04,1.165A3.178,3.178,0,0,1,15.476-.231,4.229,4.229,0,0,1,13.674.146Zm-.242-6.511a1.323,1.323,0,0,0-1.022.427,2.209,2.209,0,0,0-.5,1.221h2.944v-.169a1.576,1.576,0,0,0-.381-1.092A1.365,1.365,0,0,0,13.433-6.365ZM25.269-3.889a4.753,4.753,0,0,1-.831,2.933,2.665,2.665,0,0,1-2.245,1.1,2.469,2.469,0,0,1-1.941-.835V3.047H18.135V-7.925H20.1l.073.776a2.488,2.488,0,0,1,2.007-.923,2.683,2.683,0,0,1,2.278,1.084A4.882,4.882,0,0,1,25.269-4Zm-2.117-.161a3.136,3.136,0,0,0-.392-1.712,1.275,1.275,0,0,0-1.139-.6,1.385,1.385,0,0,0-1.37.764v3.255a1.409,1.409,0,0,0,1.384.786Q23.152-1.56,23.152-4.051Zm3.1.015a4.7,4.7,0,0,1,.454-2.1,3.324,3.324,0,0,1,1.307-1.428,3.814,3.814,0,0,1,1.981-.505,3.609,3.609,0,0,1,2.618.981,3.939,3.939,0,0,1,1.132,2.666l.015.542A4.142,4.142,0,0,1,32.739-.956a3.539,3.539,0,0,1-2.732,1.1,3.556,3.556,0,0,1-2.736-1.1A4.215,4.215,0,0,1,26.25-3.94Zm2.117.15a2.962,2.962,0,0,0,.425,1.727,1.4,1.4,0,0,0,1.216.6,1.4,1.4,0,0,0,1.2-.591,3.241,3.241,0,0,0,.432-1.889,2.933,2.933,0,0,0-.432-1.716,1.4,1.4,0,0,0-1.216-.609,1.382,1.382,0,0,0-1.2.605A3.3,3.3,0,0,0,28.367-3.885ZM39.514-5.94A5.751,5.751,0,0,0,38.752-6a1.55,1.55,0,0,0-1.575.813V0H35.061V-7.925h2l.059.945a1.961,1.961,0,0,1,1.765-1.091,2.218,2.218,0,0,1,.659.1Zm3.918-3.933v1.948h1.355v1.553H43.433v3.955a.944.944,0,0,0,.168.63.846.846,0,0,0,.645.19,3.376,3.376,0,0,0,.623-.051v1.6a4.358,4.358,0,0,1-1.282.19A2.021,2.021,0,0,1,41.316-2.1v-4.27H40.159V-7.925h1.157V-9.873ZM49.614.146A3.89,3.89,0,0,1,46.776-.923a3.8,3.8,0,0,1-1.095-2.849v-.205a4.787,4.787,0,0,1,.461-2.135,3.386,3.386,0,0,1,1.307-1.45,3.669,3.669,0,0,1,1.93-.509,3.289,3.289,0,0,1,2.56,1.025,4.167,4.167,0,0,1,.934,2.908v.864H47.827a1.966,1.966,0,0,0,.619,1.245,1.871,1.871,0,0,0,1.307.469,2.285,2.285,0,0,0,1.912-.886l1.04,1.165A3.178,3.178,0,0,1,51.416-.231,4.229,4.229,0,0,1,49.614.146Zm-.242-6.511a1.323,1.323,0,0,0-1.022.427,2.209,2.209,0,0,0-.5,1.221h2.944v-.169a1.576,1.576,0,0,0-.381-1.092A1.365,1.365,0,0,0,49.373-6.365ZM58.367-2.19a.682.682,0,0,0-.385-.612,4.368,4.368,0,0,0-1.234-.4q-2.827-.593-2.827-2.4A2.178,2.178,0,0,1,54.8-7.365a3.531,3.531,0,0,1,2.289-.707,3.8,3.8,0,0,1,2.413.71,2.239,2.239,0,0,1,.9,1.846H58.286a1.024,1.024,0,0,0-.293-.751,1.24,1.24,0,0,0-.916-.3,1.267,1.267,0,0,0-.828.242.763.763,0,0,0-.293.615.652.652,0,0,0,.333.568,3.428,3.428,0,0,0,1.124.374,9.183,9.183,0,0,1,1.333.355,2.19,2.19,0,0,1,1.677,2.131,2.067,2.067,0,0,1-.93,1.754,4.013,4.013,0,0,1-2.4.67,4.191,4.191,0,0,1-1.769-.355,2.968,2.968,0,0,1-1.212-.974,2.263,2.263,0,0,1-.439-1.337h2.007a1.105,1.105,0,0,0,.417.864,1.656,1.656,0,0,0,1.04.3,1.533,1.533,0,0,0,.919-.231A.718.718,0,0,0,58.367-2.19ZM61.9-1.04a1.066,1.066,0,0,1,.341-.82,1.208,1.208,0,0,1,.853-.315,1.218,1.218,0,0,1,.861.315,1.066,1.066,0,0,1,.341.82,1.051,1.051,0,0,1-.337.809,1.223,1.223,0,0,1-.864.311,1.213,1.213,0,0,1-.857-.311A1.051,1.051,0,0,1,61.9-1.04Z" transform="translate(124.761 304.268)" fill="#00104e"/>
    </g>
    <g id="Grupo_23508" data-name="Grupo 23508" transform="translate(264.951 1774.673)">
      <path id="Trazado_6637" data-name="Trazado 6637" d="M377.81,729.357c-17.24,2.595-27.242,4.362-31.218,8.672-4.633,5.018-10.133,7-13.875,6.07-6.937-1.734-6.953-4.463-4.914-9.828,3.459-9.1,18.354-14.31,34.588-14.643,20.452-.417,26.426,1.481,27.5,3.646C392.05,727.618,381.071,728.869,377.81,729.357Z" transform="translate(-324.758 -567.214)" fill="#231f20" opacity="0.29" style="mix-blend-mode: multiply;isolation: isolate"/>
      <g id="Grupo_23507" data-name="Grupo 23507" transform="translate(0 0)">
        <path id="Trazado_6638" data-name="Trazado 6638" d="M323.4,614.6s1.962-3.3,17.57-2.719c7.532.279,15.031-1.156,26.015-2.312,6.671-.7.146,4.226.146,4.226l3.79-54.088-6.071-47.552-23.48,2.921Z" transform="translate(-323.396 -479.707)" fill="#b0b4b5"/>
        <path id="Trazado_6639" data-name="Trazado 6639" d="M413.357,536.879a5.86,5.86,0,0,0-.2,2.4s-.829,1.456-1.923,1.392c-5.689-.32-18.007.579-27.272-2.731-5.617-2.012-16.951-18.049-16.951-18.049s-2.844-1.448.325-7.5c2.329-4.426,5.2-7.77,8.809-4.374,2.3,2.166,11.013,17.582,14.042,19.235,5.851,3.2,22.588,4.671,22.588,4.671S414.5,532.218,413.357,536.879Z" transform="translate(-341.301 -477.376)" fill="#c1c7c9"/>
        <path id="Trazado_6640" data-name="Trazado 6640" d="M346.4,731.962a6.446,6.446,0,0,1-.291,4.682s-1.346,1.045-1.558,1.261c-1.256,1.254-5.419,7.851-9.16,8.019-4.081.186-4.33-3.006-3.882-4.984.224-1,4.967-11.781,4.967-11.781Z" transform="translate(-326.749 -571.26)" fill="#282827"/>
        <path id="Trazado_6641" data-name="Trazado 6641" d="M397.484,708.884s1.747,3.263,3.009,3.831c2.622,1.18,10.189,3.438,10.889,3.7A1.806,1.806,0,0,1,412.6,718a1.334,1.334,0,0,1-.235.853c-.749,1.079-2.3,1.482-3.724,1.826-3.863.935-15.213-1.546-15.567-1.822,0,0-1.16-.246-1.442.324a4.931,4.931,0,0,0-.064,1.015l-4.091-1.35a10.568,10.568,0,0,1-.728-2.927l.161-5.633Z" transform="translate(-350.123 -562.706)" fill="#231f20"/>
        <g id="Grupo_23496" data-name="Grupo 23496" transform="translate(41.438 155.172)">
          <path id="Trazado_6642" data-name="Trazado 6642" d="M415.894,724.948a6.223,6.223,0,0,1-3.866,1.979c-4.663.941-15.569-1.706-15.569-1.706-.934-.121-1.321.206-1.386.76l.006.779c.043-.012,1.307-.856,1.285-.861,0,0,10.245,2.62,14.835,2.117,1.446-.168,3.891-1.03,4.738-2.365a1.5,1.5,0,0,0,.145-1.209A4.162,4.162,0,0,1,415.894,724.948Z" transform="translate(-395.073 -724.441)" fill="#282827"/>
        </g>
        <path id="Trazado_6643" data-name="Trazado 6643" d="M394.057,594.413l1.408,66.775c.073,2.227,1.433,2.885,1.387,3.147-.667,3.753-12.86,4.848-14.076,2l-4.536-71.719Z" transform="translate(-346.534 -514.411)" fill="#141413"/>
        <path id="Trazado_6644" data-name="Trazado 6644" d="M366.144,594.773,364.6,613.658,350.01,675.2c-.171,1.316-.834,1.707-2,2-6.744,1.708-9.488-.668-9.488-.668a2.309,2.309,0,0,1-1.26-2.3l9.664-77.921Z" transform="translate(-329.245 -514.563)" fill="#383736"/>
        <path id="Trazado_6645" data-name="Trazado 6645" d="M344.583,509.141a45.654,45.654,0,0,1,14.164-4.3c2.831-.358,10.705.485,10.705.485s10.058,1.62,11.393,8.225c.136.668,3.031,11.615-2.051,44.963-.494,3.242-6.962,4.6-14.532,3.463-6.238-.938-15.691-4.621-15.691-4.621s-.626-.414-.125-2.489a71.532,71.532,0,0,0,1.438-17.93C349.458,529.322,344.583,509.141,344.583,509.141Z" transform="translate(-332.334 -476.583)" fill="#63a3c6"/>
        <path id="Trazado_6646" data-name="Trazado 6646" d="M368.309,477.209a2.379,2.379,0,0,1,1.849,2.592l-1.041,4.228a1.3,1.3,0,0,1-1.162.862c-1.251-.051-1.515-1.223-1.768-2.5-.018-.072-.284-1.94-.3-2.053C365.656,478.749,366.316,476.718,368.309,477.209Z" transform="translate(-341.304 -464.931)" fill="#ffe8d9"/>
        <path id="Trazado_6647" data-name="Trazado 6647" d="M385.679,523.733a2.578,2.578,0,0,1-.087-1.223l.213-1.529-2.288-3.177-1.037.253-.4,3.737,1.137,1.267c.349.287.312,1.6.316,2.04,0,0,.325,22.332-1.909,31.411-.134.546,2.829,8.591,2.829,8.591s4.558-5.884,4.657-7.712C389.964,541.563,385.679,523.733,385.679,523.733Z" transform="translate(-347.958 -482.09)" fill="#a52619"/>
        <path id="Trazado_6648" data-name="Trazado 6648" d="M377.4,506.526c-4.172,4.219-6.464-2.747-9.231-5.962l1.135-13.3,10.75,3.232-.55,6.867Z" transform="translate(-342.282 -469.203)" fill="#ddbca6"/>
        <path id="Trazado_6649" data-name="Trazado 6649" d="M384.653,512.245a1.542,1.542,0,0,0,.245,1.578l2.127,2.727c.676.817.929-.143.911-1.029l-.3-6.423c-.552-4-1.329-3.255-1.329-3.255s-.039-.218-.213.85C385.873,508.06,384.9,511.375,384.653,512.245Z" transform="translate(-349.194 -477.02)" fill="#76c3e3"/>
        <path id="Trazado_6650" data-name="Trazado 6650" d="M378.4,467.247v0l-8.327.912,1.453,15.037a5.95,5.95,0,0,0,1.435,3.293,9.382,9.382,0,0,0,2.72,1.648s5.615,2.055,8.576.628c1.223-.587,1.521-2.171,1.814-3.163a30.261,30.261,0,0,0,.654-5.346l.382-7.306-.222-5.791Z" transform="translate(-343.09 -460.724)" fill="#e8c5ac"/>
        <path id="Trazado_6651" data-name="Trazado 6651" d="M382.643,459.8c1.533,1.766,1.092,3.588.92,6.456-.061,1.059-.275,1.868-.228,1.9s-.124-1.346-.16-2.535c-.088-2.945-1.823-2.526-3.025-2.253-.038.009-5.354,1.158-5.377,1.2-.065.114.638-1.933.3-1.729a5.633,5.633,0,0,0-2.712,2.914,15.787,15.787,0,0,0-.859,6.637l.135,1.312c.074.684.161,1.191,0,1.2a2.062,2.062,0,0,1-1.663-1.265,2.522,2.522,0,0,0-2.764-1.263c-1.581.4.012,4.014.128,4.2l-.034,1.086c-.076.76-.738,2.8-1.182,1.911-.75-1.5-2.43-4.789-2.944-5.7-5.612-9.976,1.509-20.435,12.613-17.268A29.532,29.532,0,0,1,382.643,459.8Z" transform="translate(-339.353 -456.026)" fill="#332107"/>
        <path id="Trazado_6652" data-name="Trazado 6652" d="M368.752,483.932a2.38,2.38,0,0,1,2.885,1.352l1.56,3.094s.088,1.256-.653,1.637c-1.12.573-1.3.5-2.463-.091a10,10,0,0,1-1.905-1.61C367.206,487.041,366.775,484.485,368.752,483.932Z" transform="translate(-341.942 -467.753)" fill="#e8c5ac"/>
        <path id="Trazado_6653" data-name="Trazado 6653" d="M368.112,502.481a7.487,7.487,0,0,0,.408,2.285c1.982,3.7,7.547,6.067,7.547,6.067a1.447,1.447,0,0,1,1.206,1.666l-.656,4.4c-.066,1.1-.641,1.009-1.091.578,0,0-4.536-3.606-5.822-4.825-3.016-2.871-2.742-4.959-2.186-8.847C367.672,502.715,368.112,502.481,368.112,502.481Z" transform="translate(-341.861 -475.625)" fill="#76c3e3"/>
        <g id="Grupo_23497" data-name="Grupo 23497" transform="translate(67.778 52.443)">
          <path id="Trazado_6654" data-name="Trazado 6654" d="M444.782,550.512s1.148-.431,1.536.126,1.116,1.861.553,5.066a7.625,7.625,0,0,1-1.017,2.466c-.261.418-1.026,1.285-1.6,1.112-.42-.126-.829-.451-1.256-1.529a7.627,7.627,0,0,1,.292-5.791C443.753,551.432,444.782,550.512,444.782,550.512Z" transform="translate(-441.452 -548.265)" fill="#48819b"/>
          <path id="Trazado_6655" data-name="Trazado 6655" d="M441.034,556.665l5.058.11-.246-5.845-2.748-.01Z" transform="translate(-440.805 -548.504)" fill="#e8c5ac"/>
          <path id="Trazado_6656" data-name="Trazado 6656" d="M444.7,550.331s-1.958.1-2.5,3.764a8.188,8.188,0,0,0,.282,4.28,1.467,1.467,0,0,0,.987.9l-1.594-.2s-1.287-.882-1.234-3.7c.077-4.177,2.717-5.062,2.717-5.062Z" transform="translate(-440.637 -548.246)" fill="#63a3c6"/>
          <path id="Trazado_6657" data-name="Trazado 6657" d="M447.75,550c.4-.993.858-1.862,4.17-3.255a.673.673,0,0,0,.62.6c1.411.211,2.432,1.213,3.524,2.058.416.623-.035.322-.258.286-1.781-.292-1.956-.438-2.193.011-.646,1.22-2.141,2.984-3.779,2.559S447.388,550.907,447.75,550Z" transform="translate(-443.602 -546.741)" fill="#e8c5ac"/>
        </g>
        <path id="Trazado_6658" data-name="Trazado 6658" d="M323.4,612.418l9.69-54.907.95-33.249.523-13.532c2.746-1.915,9.28-3.752,9.28-3.752a52.681,52.681,0,0,0,4.423,9.456c1.167,1.865,2.493,29.107,2.493,49.246L347.381,609.9c.559,5.147-2.825,5.912-4.025,6.338-1.445.509-6.879-.257-6.879-.257C328.662,614.8,323.256,611.96,323.4,612.418Z" transform="translate(-323.394 -477.522)" fill="#dbdddd"/>
        <path id="Trazado_6659" data-name="Trazado 6659" d="M393.291,518.672c-2.735-7-4.417-11.465-5.69-12.941a17.268,17.268,0,0,1,5.536,1.052c.072.043,4.076,1.9,5.42,4.843,1.965,4.293,1.821,8.258,3.047,14.161,3.7,17.836-.486,78.179-.486,78.179a4.79,4.79,0,0,1-1.419,4.2,38.748,38.748,0,0,1-5.483,2.911S400.722,537.714,393.291,518.672Z" transform="translate(-350.483 -476.988)" fill="#d8d8d8"/>
        <path id="Trazado_6660" data-name="Trazado 6660" d="M388.365,507.653l-.764-1.908a9.2,9.2,0,0,1,.962.472,18.32,18.32,0,0,1,3.373,3.235l3.508,4.7c.384,1,1.416,1.714.685,3.507l-1.275,3.438,2.252,1.39c1.057.75,1.956,2.207,1.786,5.008L396.6,543.42s-1.3-18.349-2.511-22.152A72.308,72.308,0,0,0,388.365,507.653Z" transform="translate(-350.483 -477.002)" fill="#fff"/>
        <path id="Trazado_6661" data-name="Trazado 6661" d="M357.626,506.624l-.941.291a3.632,3.632,0,0,0-2.049,2.582,15.047,15.047,0,0,0-.167,3.247L356.518,520c.423,1.554.987,2.072,2.162,2.165l3.34,1.32-2.117,1.669c-.917.635-1.622,1.059-.42,4.022l4.054,16.711s1.332-17.112-.806-25.389A90.271,90.271,0,0,0,357.626,506.624Z" transform="translate(-336.497 -477.373)" fill="#fff"/>
        <g id="Grupo_23499" data-name="Grupo 23499" transform="translate(5.077 34.858)">
          <path id="Trazado_6662" data-name="Trazado 6662" d="M339.141,516.347c-5.808.554-5.645,14.048-5.645,14.048s-2.938,19.9-.049,22.45c3.4,3,24.455,4.059,31.368,5.17,3.708.6.558-5.723.558-5.723-.053-.81-26.531-3.715-25.711-5.661,2.457-5.829,3.017-17.832,2.891-18.933C342.035,522.858,344.2,515.87,339.141,516.347Z" transform="translate(-332.176 -516.324)" fill="#edcfbc"/>
          <g id="Grupo_23498" data-name="Grupo 23498" transform="translate(30.125 33.718)">
            <path id="Trazado_6663" data-name="Trazado 6663" d="M386.838,581.042c1.741.391,3.434-1.685,3.79-3.274.134-.566,3.486-.137,4.879-.681a1.477,1.477,0,0,0,.688-2.356c-.264-.239-5.375.125-6.656.169-4.3.151-4.83,1.743-5.178,3.333C383.978,579.829,385.1,580.626,386.838,581.042Z" transform="translate(-384.286 -574.649)" fill="#edcfbc"/>
            <path id="Trazado_6664" data-name="Trazado 6664" d="M388.636,584l.324-2.1,3.5-3.981a9.046,9.046,0,0,0,3.521,1.019c2.058.324,2.756.539,4.57.868,1.723.311,2.933.519,2.736.929a4.459,4.459,0,0,1-1.553,1.879c-.867.723-2.023,1.9-2.023,1.9C398.012,585.636,392.369,585.474,388.636,584Z" transform="translate(-386.121 -576.028)" fill="#edcfbc"/>
          </g>
        </g>
        <path id="Trazado_6665" data-name="Trazado 6665" d="M360.191,558.439c-1.591.171-26.209-2.611-29.483-3.758-2.891-1.012-2.652-3.737-2.6-7.226.145-9.972,3.42-26.882,3.42-26.882.65-3.252,3.222-9,7.419-7.033,3.965,1.856,3.439,14.737,3.42,15.9-.048,2.938-2.986,16.138-2.986,16.138l23.028,3.71S365.161,557.9,360.191,558.439Z" transform="translate(-325.371 -480.122)" fill="#f4f4f4"/>
        <g id="Grupo_23506" data-name="Grupo 23506" transform="translate(53.592 40.133)">
          <g id="Grupo_23502" data-name="Grupo 23502">
            <g id="Grupo_23501" data-name="Grupo 23501" style="isolation: isolate">
              <g id="Grupo_23500" data-name="Grupo 23500">
                <path id="Trazado_6666" data-name="Trazado 6666" d="M424.888,530.366a1.7,1.7,0,0,0-1.243,1.162l-7.529,24.9c-.076.251.093.433.214.628.167.269.717.838.889.8l15.811-5.617a1.7,1.7,0,0,0,1.242-1.163l8.431-24.427c-.47-.469-1.149-1.288-1.576-1.19Z" transform="translate(-416.097 -525.448)" fill="#aeafaf"/>
              </g>
            </g>
          </g>
          <g id="Grupo_23505" data-name="Grupo 23505" transform="translate(1.391 1.245)">
            <g id="Grupo_23504" data-name="Grupo 23504" style="isolation: isolate">
              <g id="Grupo_23503" data-name="Grupo 23503">
                <path id="Trazado_6667" data-name="Trazado 6667" d="M427.3,532.526a1.7,1.7,0,0,0-1.242,1.163l-7.529,24.9a.57.57,0,0,0,.673.72l16.241-4.909a1.7,1.7,0,0,0,1.243-1.163l7.529-24.9a.57.57,0,0,0-.674-.72Z" transform="translate(-418.504 -527.601)" fill="#7a7c7c"/>
              </g>
            </g>
          </g>
        </g>
        <path id="Trazado_6668" data-name="Trazado 6668" d="M445.308,552.489c.295-.372.349-.4.56-.637a2.224,2.224,0,0,1,2.166-.723l1.5.39a3.553,3.553,0,0,0,2.109-.179c.481-.176,1.318-.491,1.318-.491s3.381.291,2.326,2.442a3.1,3.1,0,0,1-1.09,1.126c-.33.958-1.086,2.52-1.518,3.564-1,2.426-4.271,1.332-4.271,1.332l-2.172-.519C444.053,557.115,443.325,554.466,445.308,552.489Z" transform="translate(-374.34 -496.032)" fill="#e8c5ac"/>
      </g>
    </g>
    <path id="Trazado_6669" data-name="Trazado 6669" d="M8904.933,1730H8793v246.949h111.933" transform="translate(-8394.252 -3.033)" fill="none" stroke="#4dd0e1" stroke-width="2"/>
    <path id="Trazado_6670" data-name="Trazado 6670" d="M8814.95,1817.333H8703.332" transform="translate(-8304.268 -7.523)" fill="none" stroke="#4dd0e1" stroke-width="2"/>
    <path id="Trazado_6671" data-name="Trazado 6671" d="M8814.95,1817.333H8703.332" transform="translate(-8304.268 73.106)" fill="none" stroke="#4dd0e1" stroke-width="2"/>
    <path id="Trazado_6672" data-name="Trazado 6672" d="M8664,1862.5h36.679" transform="translate(-8302.247 -9.846)" fill="none" stroke="#4dd0e1" stroke-width="2"/>
    <g id="Grupo_23524" data-name="Grupo 23524" transform="translate(886.504 1774.673)">
      <ellipse id="Elipse_1317" data-name="Elipse 1317" cx="27.223" cy="15.717" rx="27.223" ry="15.717" transform="translate(0 145.674)" fill="#bfb7a3"/>
      <g id="Grupo_23523" data-name="Grupo 23523" transform="translate(3.866 0)">
        <g id="Grupo_23511" data-name="Grupo 23511" transform="translate(5.177 83.545)">
          <g id="Grupo_23510" data-name="Grupo 23510" transform="translate(0 62.869)">
            <path id="Trazado_6673" data-name="Trazado 6673" d="M640.911,435.264a9.159,9.159,0,0,1,.705,2.015c.044.612-.581,1.059-3.218,1.953s-3.755,2.771-6.884,3.754-7.669.251-7.611-1.484l6.45-1.272Z" transform="translate(-623.902 -432.174)" fill="#0e171c"/>
            <path id="Trazado_6674" data-name="Trazado 6674" d="M633.246,431.845a69.355,69.355,0,0,1-8.906,7.752.975.975,0,0,0,.38,1.774,29.636,29.636,0,0,0,4.673.383c4.128,0,3.709-2.477,7.7-3.991s5.081-.435,2.748-6.4Z" transform="translate(-623.902 -431.368)" fill="#1a2933"/>
            <path id="Trazado_6675" data-name="Trazado 6675" d="M633.5,434.13s.242,1.352,2.406,1.8" transform="translate(-625.888 -431.939)" fill="none" stroke="#0e171c" stroke-miterlimit="10" stroke-width="1"/>
            <path id="Trazado_6676" data-name="Trazado 6676" d="M634.768,432.642a10.4,10.4,0,0,0-.96,3.253" transform="translate(-625.952 -431.632)" fill="none" stroke="#0e171c" stroke-miterlimit="10" stroke-width="1"/>
            <path id="Trazado_6677" data-name="Trazado 6677" d="M630.842,436.618" transform="translate(-625.338 -432.454)" fill="none" stroke="#241e1b" stroke-miterlimit="10" stroke-width="0.591"/>
            <path id="Trazado_6678" data-name="Trazado 6678" d="M628.446,438.709" transform="translate(-624.842 -432.887)" fill="none" stroke="#241e1b" stroke-miterlimit="10" stroke-width="0.591"/>
            <path id="Trazado_6679" data-name="Trazado 6679" d="M631.346,438.752" transform="translate(-625.442 -432.896)" fill="none" stroke="#241e1b" stroke-miterlimit="10" stroke-width="0.591"/>
          </g>
          <path id="Trazado_6680" data-name="Trazado 6680" d="M629.313,352.1s1.654,21.307,2.39,28.134,1.761,35.173,1.761,35.173a12.647,12.647,0,0,0,8.715,0s3.172-12.8,2.6-19.838-1.218-6.568-1.106-9.586.681-20.325.842-27.452Z" transform="translate(-625.022 -352.101)" fill="#1a2933"/>
        </g>
        <g id="Grupo_23513" data-name="Grupo 23513" transform="translate(8.78 83.545)">
          <g id="Grupo_23512" data-name="Grupo 23512" transform="translate(19.277 71.778)">
            <path id="Trazado_6681" data-name="Trazado 6681" d="M661.576,442.6a5.774,5.774,0,0,1,.66,2.26c.277,1.743.551,4.469,1.018,6.481s1.262,3.308-.651,5.408-4.47,3.665-6.615,3.308a3.88,3.88,0,0,1-2.995-5.185Z" transform="translate(-652.751 -442.602)" fill="#0e171c"/>
            <path id="Trazado_6682" data-name="Trazado 6682" d="M655.572,442.6a6.458,6.458,0,0,0,6.067,0s.088,1.724.731,5.881c.422,2.726,1.678,4.817.359,6.881s-4.491,4.629-6.746,3.941-3.444-3.3-2.712-4.955A44.935,44.935,0,0,0,655.572,442.6Z" transform="translate(-652.814 -442.602)" fill="#1a2933"/>
            <path id="Trazado_6683" data-name="Trazado 6683" d="M661.654,450.639a6.108,6.108,0,0,0-5.078-.781" transform="translate(-653.542 -444.048)" fill="none" stroke="#0e171c" stroke-miterlimit="10" stroke-width="1"/>
            <path id="Trazado_6684" data-name="Trazado 6684" d="M661.654,448.146s-3.575,1.112-5.078,2.765" transform="translate(-653.542 -443.749)" fill="none" stroke="#0e171c" stroke-miterlimit="10" stroke-width="1"/>
          </g>
          <path id="Trazado_6685" data-name="Trazado 6685" d="M656.871,352.1s2.915,11.726,1.347,34.261c0,0,3.306,16.209,0,38.221,0,0-3.854,2.831-10.038,0,0,0-.888-22.131-1.121-27.133s-.235-8.262-.938-11.089-5.059-21.456-5.059-21.456-11.454-6.309-12.615-12.8Z" transform="translate(-628.446 -352.101)" fill="#263c4a"/>
        </g>
        <path id="Trazado_6686" data-name="Trazado 6686" d="M633.929,279.523c-1.225.582-9.415,4.979-12.258,12.343s-5.909,19.182-3.32,22.243,10.606-2.391,10.606-2.391Z" transform="translate(-617.375 -253.541)" fill="#943232"/>
        <g id="Grupo_23517" data-name="Grupo 23517" transform="translate(7.062 14.474)">
          <path id="Trazado_6687" data-name="Trazado 6687" d="M657.464,355.286a39.39,39.39,0,0,1-14.361,2.451,41.191,41.191,0,0,1-12.989-1.942,9.541,9.541,0,0,1-1.668-3.694h28.425S657.136,353.175,657.464,355.286Z" transform="translate(-626.727 -283.029)" fill="#3d312f"/>
          <path id="Trazado_6688" data-name="Trazado 6688" d="M635.479,357.553l1.006.175a1.954,1.954,0,0,0,2.254-1.585h0a1.954,1.954,0,0,0-1.585-2.254l-1.007-.176a1.954,1.954,0,0,0-2.254,1.585h0A1.955,1.955,0,0,0,635.479,357.553Z" transform="translate(-627.848 -283.357)" fill="#fff"/>
          <path id="Trazado_6689" data-name="Trazado 6689" d="M627.855,332.109c-.8-13.662.4-31.823.4-31.823s.023-12.42,3.87-17.1,7.256-4.516,7.256-4.516l12.374,1.791a47.707,47.707,0,0,0,6.389,2.54s-.976,8.812-1.637,16.74c-.879,10.556-1.819,20-.876,27.514.293,2.333.6,2.275.867,4.661h0a5.621,5.621,0,0,1,.627,5.878c-19.569,3.36-28.429-.706-28.87,0a7.935,7.935,0,0,1-.4-5.688Z" transform="translate(-626.535 -267.839)" fill="#9bc1db"/>
          <g id="Grupo_23514" data-name="Grupo 23514" transform="translate(0 10.644)">
            <path id="Trazado_6690" data-name="Trazado 6690" d="M639.091,278.433s-5.522,7.233-6.894,14.141-2.216,33.471-.956,49.923c0,0-2.45.638-4.963-2.344,0,0,.086-20.139.479-27.928C627.261,302.232,625.681,279.729,639.091,278.433Z" transform="translate(-626.279 -278.433)" fill="#ba3f3f"/>
            <path id="Trazado_6691" data-name="Trazado 6691" d="M631.166,314.1s-1.082-23.329,8.362-35.666c0,0-8.38,9.9-10.406,15.3a16.513,16.513,0,0,0,2.026,2.529l-2.757,4.89Z" transform="translate(-626.716 -278.433)" fill="#943232"/>
          </g>
          <g id="Grupo_23515" data-name="Grupo 23515" transform="translate(12.652 11.563)">
            <path id="Trazado_6692" data-name="Trazado 6692" d="M653.937,279.592s5.159,1.317,7.293,3.6L658.858,310.8s-.19,14.524,1.5,19.549a35.6,35.6,0,0,1,1.451,11.009s-6.085,3.829-19.376,2.034c0,0-.033-24.984.757-38.338S648.937,287.941,653.937,279.592Z" transform="translate(-642.273 -279.592)" fill="#ba3f3f"/>
            <path id="Trazado_6693" data-name="Trazado 6693" d="M653.9,279.592l-1.024,17.855-4.865,2.406,2.273,5.2L642.7,316.492S638.725,293.087,653.9,279.592Z" transform="translate(-642.231 -279.592)" fill="#943232"/>
          </g>
          <path id="Trazado_6694" data-name="Trazado 6694" d="M641.1,292.462s-6.894,18.519-4.7,49.078" transform="translate(-628.283 -270.692)" fill="none" stroke="#7390a3" stroke-miterlimit="10" stroke-width="1"/>
          <g id="Grupo_23516" data-name="Grupo 23516" transform="translate(9.492)">
            <path id="Trazado_6695" data-name="Trazado 6695" d="M641.913,276.283c.048-3.556-.1-7.477-.1-7.477l10.049-3.794s.681,10.8.778,11.769-3.961,4.28-7.136,5.35a8.693,8.693,0,0,1-1.7.426l.007.029-1.647,4.2-.7-4.57S640.449,280.159,641.913,276.283Z" transform="translate(-638.841 -265.013)" fill="#ffbe92"/>
            <path id="Trazado_6696" data-name="Trazado 6696" d="M651.883,265.306c0,.074.01.163.017.263.041.646.114,1.8.2,3.132a40.845,40.845,0,0,1-10.968,11.124,11.445,11.445,0,0,1,.784-3.542c.048-3.556-.1-7.477-.1-7.477l10.049-3.794,0,.053C651.871,265.112,651.875,265.184,651.883,265.306Z" transform="translate(-638.844 -265.013)" fill="#e0a780"/>
            <path id="Trazado_6697" data-name="Trazado 6697" d="M640.866,284.766l-2.619,1.3s.693-6.385,2.972-8.719l.348.858S640.167,283.307,640.866,284.766Z" transform="translate(-638.247 -267.565)" fill="#cbe7fa"/>
            <path id="Trazado_6698" data-name="Trazado 6698" d="M653.254,278.433s-1.415,5.251-8.753,6.9l2.356,3a21.742,21.742,0,0,0,8.412-7.921A7.9,7.9,0,0,0,653.254,278.433Z" transform="translate(-639.541 -267.789)" fill="#cbe7fa"/>
          </g>
        </g>
        <g id="Grupo_23519" data-name="Grupo 23519" transform="translate(11.859)">
          <g id="Grupo_23518" data-name="Grupo 23518" transform="translate(1.121 1.415)">
            <path id="Trazado_6699" data-name="Trazado 6699" d="M637.389,250.542a4.5,4.5,0,0,1,1.488-.958c6.649-2.556,12.8-.573,13.775,8.1,1.008,8.958-10.012,15.436-13.709,15.852s-5.68-10.47-5.1-15.525A12.091,12.091,0,0,1,637.389,250.542Z" transform="translate(-633.741 -248.548)" fill="#ffbe92"/>
          </g>
          <path id="Trazado_6700" data-name="Trazado 6700" d="M651.235,263.359s1.206-5.674-1.2-5.912-4.021,4.643-4.021,4.643a12.008,12.008,0,0,1,0-6.072s-4.344,2.5-13.687,1.905a32.121,32.121,0,0,1,2.446-6.548c1.546-2.858,4.624-5.358,11.241-4.405s6.025,5.477,6.025,5.477a6.373,6.373,0,0,1,1.464,2.615C654.338,257.209,652.9,260.727,651.235,263.359Z" transform="translate(-632.328 -246.764)" fill="#544340"/>
        </g>
        <g id="Grupo_23522" data-name="Grupo 23522" transform="translate(0.231 29.64)">
          <path id="Trazado_6701" data-name="Trazado 6701" d="M630.079,311.26s-4.466-3.925-6.508-4.219-2.865-.353-3.276.236,4.34,3.059,4.34,3.059-5.135-2.482-6.046-1.756,4.118,3.344,4.118,3.344-4.118-1.706-4.941-1,3.764,2.942,3.764,2.942Z" transform="translate(-617.667 -288.829)" fill="#ffbe92"/>
          <path id="Trazado_6702" data-name="Trazado 6702" d="M655.6,332.258s.461,2.942-.481,3-2.588-2.118-2.588-2.118-1.068,1.294-1.74,1-1.554-2.883-1.554-2.883-.228,2.353-.7,2.294-2.063-3.235-2.063-3.235Z" transform="translate(-623.626 -293.689)" fill="#ffbe92"/>
          <path id="Trazado_6703" data-name="Trazado 6703" d="M645.885,312.726c.153.117,6.883,1.234,8.849,7.351H650.31Z" transform="translate(-623.505 -290.05)" fill="#ffbe92"/>
          <g id="Grupo_23521" data-name="Grupo 23521" transform="translate(7.677)">
            <g id="Grupo_23520" data-name="Grupo 23520">
              <path id="Trazado_6704" data-name="Trazado 6704" d="M628.724,306.315a.254.254,0,0,0-.224.159,15.434,15.434,0,0,0-.8,8.855.268.268,0,0,0,.262.2c1.812-.031,26.908,14.493,32.2,6.516a66.025,66.025,0,0,0,4.718-25.209c-.14-7.95-1.771-10.947-6.768-12.706,0,0-4.919,5.381-4.408,17.917a21.6,21.6,0,0,1-3.64,10.524Z" transform="translate(-627.346 -284.135)" fill="#a63838"/>
            </g>
          </g>
          <path id="Trazado_6705" data-name="Trazado 6705" d="M618.48,320.661c.78,1.342,2.287,3.724,10.536.215,6.161-2.621,17.241-1.947,17.241-1.947s-.274-5.388-1.3-6.872c-2.529-.778-9.235-.976-11.523-.809-5.745.42-10.474.964-12.541,2.544C617.7,316.232,617.582,319.115,618.48,320.661Z" transform="translate(-617.736 -289.733)" fill="#943232"/>
        </g>
      </g>
    </g>
    <path id="Trazado_6706" data-name="Trazado 6706" d="M9034,1902.333h84.108V1979.8H9034" transform="translate(-8321.27 -11.893)" fill="none" stroke="#4dd0e1" stroke-width="2"/>
    <path id="Trazado_6707" data-name="Trazado 6707" d="M9122.667,1940h77.784" transform="translate(-8325.828 -13.83)" fill="none" stroke="#4dd0e1" stroke-linecap="round" stroke-width="2"/>
  </g>
</svg>
