<svg xmlns="http://www.w3.org/2000/svg" xmlns:xlink="http://www.w3.org/1999/xlink" width="100" height="110.564" viewBox="0 0 100 110.564">
  <defs>
    <clipPath id="clip-path">
      <rect id="Rectángulo_382838" data-name="Rectángulo 382838" width="36.11" height="95.722" fill="#ffce00"/>
    </clipPath>
  </defs>
  <g id="Grupo_1075286" data-name="Grupo 1075286" transform="translate(-435 -15446.003)">
    <path id="Op_component_1" data-name="Op component 1" d="M50,0A50,50,0,1,1,0,50,50,50,0,0,1,50,0Z" transform="translate(435 15456.567)" fill="#fff" opacity="0.4"/>
    <g id="Grupo_1074411" data-name="Grupo 1074411" transform="translate(0 -73)">
      <path id="Op_component_1-2" data-name="Op component 1" d="M45.235,0A45.235,45.235,0,1,1,0,45.235,45.235,45.235,0,0,1,45.235,0Z" transform="translate(439.5 15534.067)" fill="none" stroke="#273a89" stroke-width="1"/>
      <g id="Grupo_1074409" data-name="Grupo 1074409" transform="translate(467 15519.003)">
        <g id="Grupo_1074408" data-name="Grupo 1074408" clip-path="url(#clip-path)">
          <path id="Trazado_827304" data-name="Trazado 827304" d="M8.461,150.187q0-7.475,0-14.95-.007-7.6-.029-15.2c0-.879-.007-.89-.87-.881-.3,0-.675-.157-.886.081-.184.208-.068.566-.068.857.008,4.935.035,9.87.025,14.8,0,1.846.07,3.692-.033,5.538a7.391,7.391,0,0,1-.478,2.291A2.516,2.516,0,0,1,4.061,144.4a5.217,5.217,0,0,1-1.755,0A2.3,2.3,0,0,1,.56,143.051,5.35,5.35,0,0,1,.111,141.2c-.1-.977-.08-1.958-.081-2.939q-.006-8.187-.013-16.373c0-1.4-.043-2.811.013-4.214a17.253,17.253,0,0,1,.926-5.433,7.368,7.368,0,0,1,2.556-3.455,9.409,9.409,0,0,1,3.382-1.5,20.013,20.013,0,0,1,4.56-.584c4-.042,8.009-.065,12.012.045a23.783,23.783,0,0,1,5.245.631,12.648,12.648,0,0,1,2.523.925,7.874,7.874,0,0,1,4.18,5.283,19.168,19.168,0,0,1,.58,4.949q.061,10.343.117,20.686a13.987,13.987,0,0,1-.205,2.683,4.94,4.94,0,0,1-.334,1.073,2.454,2.454,0,0,1-1.841,1.464,4.888,4.888,0,0,1-2.091-.021,2.257,2.257,0,0,1-1.667-1.448,6.234,6.234,0,0,1-.429-2.3q-.043-3.308-.058-6.616-.04-7.058-.073-14.116c0-.845.046-.687-.709-.715-.278-.011-.556-.008-.833-.015-.707-.017-.594.015-.594.564q0,2.77.018,5.54.05,11.471.1,22.942.038,7.768.088,15.536.026,4.632.051,9.265c.014,2.124.054,4.248.049,6.372a11.259,11.259,0,0,1-.369,3.006,3.144,3.144,0,0,1-2.938,2.465,6.514,6.514,0,0,1-2.145-.106,3.765,3.765,0,0,1-2.81-2.421,7.088,7.088,0,0,1-.484-2.586q-.019-2.917-.034-5.834-.047-10.268-.093-20.536-.015-3.308-.035-6.617c0-.652-.021-1.3-.015-1.955,0-.252-.09-.354-.343-.35-.376.006-.752,0-1.127-.018-.251-.01-.351.09-.347.344.009.588-.005,1.176,0,1.764q.033,8.53.069,17.059.025,5.98.049,11.96c.005,1.242.021,2.483.016,3.725a9.454,9.454,0,0,1-.5,3.374,3.2,3.2,0,0,1-2.8,2.2,6.8,6.8,0,0,1-2.194-.1,3.156,3.156,0,0,1-2.39-2.039,7.17,7.17,0,0,1-.471-2.293c-.071-1.241-.019-2.483-.035-3.725-.016-1.29-.035-2.581-.038-3.871,0-1.928.007-3.856,0-5.784q-.007-5.123-.022-10.246-.005-3.33,0-6.66H8.461" transform="translate(0 -89.233)" fill="#ffce00"/>
          <path id="Trazado_827305" data-name="Trazado 827305" d="M71.523,0a7.84,7.84,0,0,1,2.716,15.222,7.261,7.261,0,0,1-7.655-1.758,7.646,7.646,0,0,1-2.3-4.127A7.731,7.731,0,0,1,69.988.17,6.109,6.109,0,0,1,71.523,0" transform="translate(-53.628 0)" fill="#ffce00"/>
        </g>
      </g>
    </g>
  </g>
</svg>
